999
"DXF R12 Output" (www.mydxf.blogspot.com)
 0 
SECTION
 2 
HEADER
 9 
$ACADVER
 1 
AC1009
 9 
$EXTMIN
 10 
 0 
 20 
 0 
 9 
$EXTMAX
 10 
 8.5 
 20 
 11 
 0 
ENDSEC
 0 
SECTION
 2 
ENTITIES
0
LINE
8
Bottom
10
25.917200
20
78.720200
11
25.999861
21
78.520639
0
LINE
8
Bottom
10
25.999861
20
78.520639
11
26.199422
21
78.437978
0
LINE
8
Bottom
10
26.199422
20
78.437978
11
26.398983
21
78.520639
0
LINE
8
Bottom
10
26.398983
20
78.520639
11
26.481644
21
78.720200
0
LINE
8
Bottom
10
26.481644
20
78.720200
11
26.398983
21
78.919761
0
LINE
8
Bottom
10
26.398983
20
78.919761
11
26.199422
21
79.002422
0
LINE
8
Bottom
10
26.199422
20
79.002422
11
25.999861
21
78.919761
0
LINE
8
Bottom
10
25.999861
20
78.919761
11
25.917200
21
78.720200
0
LINE
8
Bottom
10
25.917200
20
78.720200
11
25.917200
21
78.720200
0
LINE
8
Bottom
10
25.917200
20
72.985500
11
25.999861
21
72.785939
0
LINE
8
Bottom
10
25.999861
20
72.785939
11
26.199422
21
72.703278
0
LINE
8
Bottom
10
26.199422
20
72.703278
11
26.398983
21
72.785939
0
LINE
8
Bottom
10
26.398983
20
72.785939
11
26.481644
21
72.985500
0
LINE
8
Bottom
10
26.481644
20
72.985500
11
26.398983
21
73.185061
0
LINE
8
Bottom
10
26.398983
20
73.185061
11
26.199422
21
73.267722
0
LINE
8
Bottom
10
26.199422
20
73.267722
11
25.999861
21
73.185061
0
LINE
8
Bottom
10
25.999861
20
73.185061
11
25.917200
21
72.985500
0
LINE
8
Bottom
10
25.917200
20
72.985500
11
25.917200
21
72.985500
0
LINE
8
Bottom
10
25.917200
20
72.268700
11
25.999861
21
72.069139
0
LINE
8
Bottom
10
25.999861
20
72.069139
11
26.199422
21
71.986478
0
LINE
8
Bottom
10
26.199422
20
71.986478
11
26.398983
21
72.069139
0
LINE
8
Bottom
10
26.398983
20
72.069139
11
26.481644
21
72.268700
0
LINE
8
Bottom
10
26.481644
20
72.268700
11
26.398983
21
72.468261
0
LINE
8
Bottom
10
26.398983
20
72.468261
11
26.199422
21
72.550922
0
LINE
8
Bottom
10
26.199422
20
72.550922
11
25.999861
21
72.468261
0
LINE
8
Bottom
10
25.999861
20
72.468261
11
25.917200
21
72.268700
0
LINE
8
Bottom
10
25.917200
20
72.268700
11
25.917200
21
72.268700
0
LINE
8
Bottom
10
25.917200
20
74.419200
11
25.999861
21
74.219639
0
LINE
8
Bottom
10
25.999861
20
74.219639
11
26.199422
21
74.136978
0
LINE
8
Bottom
10
26.199422
20
74.136978
11
26.398983
21
74.219639
0
LINE
8
Bottom
10
26.398983
20
74.219639
11
26.481644
21
74.419200
0
LINE
8
Bottom
10
26.481644
20
74.419200
11
26.398983
21
74.618761
0
LINE
8
Bottom
10
26.398983
20
74.618761
11
26.199422
21
74.701422
0
LINE
8
Bottom
10
26.199422
20
74.701422
11
25.999861
21
74.618761
0
LINE
8
Bottom
10
25.999861
20
74.618761
11
25.917200
21
74.419200
0
LINE
8
Bottom
10
25.917200
20
74.419200
11
25.917200
21
74.419200
0
LINE
8
Bottom
10
25.917200
20
75.852900
11
25.999861
21
75.653339
0
LINE
8
Bottom
10
25.999861
20
75.653339
11
26.199422
21
75.570678
0
LINE
8
Bottom
10
26.199422
20
75.570678
11
26.398983
21
75.653339
0
LINE
8
Bottom
10
26.398983
20
75.653339
11
26.481644
21
75.852900
0
LINE
8
Bottom
10
26.481644
20
75.852900
11
26.398983
21
76.052461
0
LINE
8
Bottom
10
26.398983
20
76.052461
11
26.199422
21
76.135122
0
LINE
8
Bottom
10
26.199422
20
76.135122
11
25.999861
21
76.052461
0
LINE
8
Bottom
10
25.999861
20
76.052461
11
25.917200
21
75.852900
0
LINE
8
Bottom
10
25.917200
20
75.852900
11
25.917200
21
75.852900
0
LINE
8
Bottom
10
25.917200
20
77.286600
11
25.999861
21
77.087039
0
LINE
8
Bottom
10
25.999861
20
77.087039
11
26.199422
21
77.004378
0
LINE
8
Bottom
10
26.199422
20
77.004378
11
26.398983
21
77.087039
0
LINE
8
Bottom
10
26.398983
20
77.087039
11
26.481644
21
77.286600
0
LINE
8
Bottom
10
26.481644
20
77.286600
11
26.398983
21
77.486161
0
LINE
8
Bottom
10
26.398983
20
77.486161
11
26.199422
21
77.568822
0
LINE
8
Bottom
10
26.199422
20
77.568822
11
25.999861
21
77.486161
0
LINE
8
Bottom
10
25.999861
20
77.486161
11
25.917200
21
77.286600
0
LINE
8
Bottom
10
25.917200
20
77.286600
11
25.917200
21
77.286600
0
LINE
8
Bottom
10
25.917200
20
78.003400
11
25.999861
21
77.803839
0
LINE
8
Bottom
10
25.999861
20
77.803839
11
26.199422
21
77.721178
0
LINE
8
Bottom
10
26.199422
20
77.721178
11
26.398983
21
77.803839
0
LINE
8
Bottom
10
26.398983
20
77.803839
11
26.481644
21
78.003400
0
LINE
8
Bottom
10
26.481644
20
78.003400
11
26.398983
21
78.202961
0
LINE
8
Bottom
10
26.398983
20
78.202961
11
26.199422
21
78.285622
0
LINE
8
Bottom
10
26.199422
20
78.285622
11
25.999861
21
78.202961
0
LINE
8
Bottom
10
25.999861
20
78.202961
11
25.917200
21
78.003400
0
LINE
8
Bottom
10
25.917200
20
78.003400
11
25.917200
21
78.003400
0
LINE
8
Bottom
10
25.917200
20
73.702400
11
25.999861
21
73.502839
0
LINE
8
Bottom
10
25.999861
20
73.502839
11
26.199422
21
73.420178
0
LINE
8
Bottom
10
26.199422
20
73.420178
11
26.398983
21
73.502839
0
LINE
8
Bottom
10
26.398983
20
73.502839
11
26.481644
21
73.702400
0
LINE
8
Bottom
10
26.481644
20
73.702400
11
26.398983
21
73.901961
0
LINE
8
Bottom
10
26.398983
20
73.901961
11
26.199422
21
73.984622
0
LINE
8
Bottom
10
26.199422
20
73.984622
11
25.999861
21
73.901961
0
LINE
8
Bottom
10
25.999861
20
73.901961
11
25.917200
21
73.702400
0
LINE
8
Bottom
10
25.917200
20
73.702400
11
25.917200
21
73.702400
0
LINE
8
Layer 1
10
30.449000
20
68.835300
11
30.366339
21
68.635739
0
LINE
8
Layer 1
10
30.366339
20
68.635739
11
30.166778
21
68.553078
0
LINE
8
Layer 1
10
30.166778
20
68.553078
11
29.967217
21
68.635739
0
LINE
8
Layer 1
10
29.967217
20
68.635739
11
29.884556
21
68.835300
0
LINE
8
Layer 1
10
29.884556
20
68.835300
11
29.967217
21
69.034861
0
LINE
8
Layer 1
10
29.967217
20
69.034861
11
30.166778
21
69.117522
0
LINE
8
Layer 1
10
30.166778
20
69.117522
11
30.366339
21
69.034861
0
LINE
8
Layer 1
10
30.366339
20
69.034861
11
30.449000
21
68.835300
0
LINE
8
Layer 1
10
30.449000
20
68.835300
11
30.449000
21
68.835300
0
LINE
8
Layer 1
10
30.449000
20
68.118400
11
30.366339
21
67.918839
0
LINE
8
Layer 1
10
30.366339
20
67.918839
11
30.166778
21
67.836178
0
LINE
8
Layer 1
10
30.166778
20
67.836178
11
29.967217
21
67.918839
0
LINE
8
Layer 1
10
29.967217
20
67.918839
11
29.884556
21
68.118400
0
LINE
8
Layer 1
10
29.884556
20
68.118400
11
29.967217
21
68.317961
0
LINE
8
Layer 1
10
29.967217
20
68.317961
11
30.166778
21
68.400622
0
LINE
8
Layer 1
10
30.166778
20
68.400622
11
30.366339
21
68.317961
0
LINE
8
Layer 1
10
30.366339
20
68.317961
11
30.449000
21
68.118400
0
LINE
8
Layer 1
10
30.449000
20
68.118400
11
30.449000
21
68.118400
0
LINE
8
Layer 1
10
30.449000
20
70.269000
11
30.366339
21
70.069439
0
LINE
8
Layer 1
10
30.366339
20
70.069439
11
30.166778
21
69.986778
0
LINE
8
Layer 1
10
30.166778
20
69.986778
11
29.967217
21
70.069439
0
LINE
8
Layer 1
10
29.967217
20
70.069439
11
29.884556
21
70.269000
0
LINE
8
Layer 1
10
29.884556
20
70.269000
11
29.967217
21
70.468561
0
LINE
8
Layer 1
10
29.967217
20
70.468561
11
30.166778
21
70.551222
0
LINE
8
Layer 1
10
30.166778
20
70.551222
11
30.366339
21
70.468561
0
LINE
8
Layer 1
10
30.366339
20
70.468561
11
30.449000
21
70.269000
0
LINE
8
Layer 1
10
30.449000
20
70.269000
11
30.449000
21
70.269000
0
LINE
8
Layer 1
10
30.449000
20
69.552100
11
30.366339
21
69.352539
0
LINE
8
Layer 1
10
30.366339
20
69.352539
11
30.166778
21
69.269878
0
LINE
8
Layer 1
10
30.166778
20
69.269878
11
29.967217
21
69.352539
0
LINE
8
Layer 1
10
29.967217
20
69.352539
11
29.884556
21
69.552100
0
LINE
8
Layer 1
10
29.884556
20
69.552100
11
29.967217
21
69.751661
0
LINE
8
Layer 1
10
29.967217
20
69.751661
11
30.166778
21
69.834322
0
LINE
8
Layer 1
10
30.166778
20
69.834322
11
30.366339
21
69.751661
0
LINE
8
Layer 1
10
30.366339
20
69.751661
11
30.449000
21
69.552100
0
LINE
8
Layer 1
10
30.449000
20
69.552100
11
30.449000
21
69.552100
0
LINE
8
Bottom
10
25.917200
20
75.136000
11
25.999861
21
74.936439
0
LINE
8
Bottom
10
25.999861
20
74.936439
11
26.199422
21
74.853778
0
LINE
8
Bottom
10
26.199422
20
74.853778
11
26.398983
21
74.936439
0
LINE
8
Bottom
10
26.398983
20
74.936439
11
26.481644
21
75.136000
0
LINE
8
Bottom
10
26.481644
20
75.136000
11
26.398983
21
75.335561
0
LINE
8
Bottom
10
26.398983
20
75.335561
11
26.199422
21
75.418222
0
LINE
8
Bottom
10
26.199422
20
75.418222
11
25.999861
21
75.335561
0
LINE
8
Bottom
10
25.999861
20
75.335561
11
25.917200
21
75.136000
0
LINE
8
Bottom
10
25.917200
20
75.136000
11
25.917200
21
75.136000
0
LINE
8
Bottom
10
25.917200
20
76.569700
11
25.999861
21
76.370139
0
LINE
8
Bottom
10
25.999861
20
76.370139
11
26.199422
21
76.287478
0
LINE
8
Bottom
10
26.199422
20
76.287478
11
26.398983
21
76.370139
0
LINE
8
Bottom
10
26.398983
20
76.370139
11
26.481644
21
76.569700
0
LINE
8
Bottom
10
26.481644
20
76.569700
11
26.398983
21
76.769261
0
LINE
8
Bottom
10
26.398983
20
76.769261
11
26.199422
21
76.851922
0
LINE
8
Bottom
10
26.199422
20
76.851922
11
25.999861
21
76.769261
0
LINE
8
Bottom
10
25.999861
20
76.769261
11
25.917200
21
76.569700
0
LINE
8
Bottom
10
25.917200
20
76.569700
11
25.917200
21
76.569700
0
LINE
8
Layer 1
10
8.208150
20
75.339200
11
8.125489
21
75.139639
0
LINE
8
Layer 1
10
8.125489
20
75.139639
11
7.925928
21
75.056978
0
LINE
8
Layer 1
10
7.925928
20
75.056978
11
7.726367
21
75.139639
0
LINE
8
Layer 1
10
7.726367
20
75.139639
11
7.643706
21
75.339200
0
LINE
8
Layer 1
10
7.643706
20
75.339200
11
7.726367
21
75.538761
0
LINE
8
Layer 1
10
7.726367
20
75.538761
11
7.925928
21
75.621422
0
LINE
8
Layer 1
10
7.925928
20
75.621422
11
8.125489
21
75.538761
0
LINE
8
Layer 1
10
8.125489
20
75.538761
11
8.208150
21
75.339200
0
LINE
8
Layer 1
10
8.208150
20
75.339200
11
8.208150
21
75.339200
0
LINE
8
Layer 1
10
7.507110
20
73.504800
11
7.424449
21
73.305239
0
LINE
8
Layer 1
10
7.424449
20
73.305239
11
7.224888
21
73.222578
0
LINE
8
Layer 1
10
7.224888
20
73.222578
11
7.025327
21
73.305239
0
LINE
8
Layer 1
10
7.025327
20
73.305239
11
6.942666
21
73.504800
0
LINE
8
Layer 1
10
6.942666
20
73.504800
11
7.025327
21
73.704361
0
LINE
8
Layer 1
10
7.025327
20
73.704361
11
7.224888
21
73.787022
0
LINE
8
Layer 1
10
7.224888
20
73.787022
11
7.424449
21
73.704361
0
LINE
8
Layer 1
10
7.424449
20
73.704361
11
7.507110
21
73.504800
0
LINE
8
Layer 1
10
7.507110
20
73.504800
11
7.507110
21
73.504800
0
LINE
8
Layer 1
10
9.256880
20
77.173700
11
9.174219
21
76.974139
0
LINE
8
Layer 1
10
9.174219
20
76.974139
11
8.974658
21
76.891478
0
LINE
8
Layer 1
10
8.974658
20
76.891478
11
8.775097
21
76.974139
0
LINE
8
Layer 1
10
8.775097
20
76.974139
11
8.692436
21
77.173700
0
LINE
8
Layer 1
10
8.692436
20
77.173700
11
8.775097
21
77.373261
0
LINE
8
Layer 1
10
8.775097
20
77.373261
11
8.974658
21
77.455922
0
LINE
8
Layer 1
10
8.974658
20
77.455922
11
9.174219
21
77.373261
0
LINE
8
Layer 1
10
9.174219
20
77.373261
11
9.256880
21
77.173700
0
LINE
8
Layer 1
10
9.256880
20
77.173700
11
9.256880
21
77.173700
0
LINE
8
Layer 1
10
8.208150
20
75.339200
11
8.125489
21
75.139639
0
LINE
8
Layer 1
10
8.125489
20
75.139639
11
7.925928
21
75.056978
0
LINE
8
Layer 1
10
7.925928
20
75.056978
11
7.726367
21
75.139639
0
LINE
8
Layer 1
10
7.726367
20
75.139639
11
7.643706
21
75.339200
0
LINE
8
Layer 1
10
7.643706
20
75.339200
11
7.726367
21
75.538761
0
LINE
8
Layer 1
10
7.726367
20
75.538761
11
7.925928
21
75.621422
0
LINE
8
Layer 1
10
7.925928
20
75.621422
11
8.125489
21
75.538761
0
LINE
8
Layer 1
10
8.125489
20
75.538761
11
8.208150
21
75.339200
0
LINE
8
Layer 1
10
8.208150
20
75.339200
11
8.208150
21
75.339200
0
LINE
8
Layer 1
10
7.507110
20
73.504800
11
7.424449
21
73.305239
0
LINE
8
Layer 1
10
7.424449
20
73.305239
11
7.224888
21
73.222578
0
LINE
8
Layer 1
10
7.224888
20
73.222578
11
7.025327
21
73.305239
0
LINE
8
Layer 1
10
7.025327
20
73.305239
11
6.942666
21
73.504800
0
LINE
8
Layer 1
10
6.942666
20
73.504800
11
7.025327
21
73.704361
0
LINE
8
Layer 1
10
7.025327
20
73.704361
11
7.224888
21
73.787022
0
LINE
8
Layer 1
10
7.224888
20
73.787022
11
7.424449
21
73.704361
0
LINE
8
Layer 1
10
7.424449
20
73.704361
11
7.507110
21
73.504800
0
LINE
8
Layer 1
10
7.507110
20
73.504800
11
7.507110
21
73.504800
0
LINE
8
Layer 1
10
9.256880
20
77.173700
11
9.174219
21
76.974139
0
LINE
8
Layer 1
10
9.174219
20
76.974139
11
8.974658
21
76.891478
0
LINE
8
Layer 1
10
8.974658
20
76.891478
11
8.775097
21
76.974139
0
LINE
8
Layer 1
10
8.775097
20
76.974139
11
8.692436
21
77.173700
0
LINE
8
Layer 1
10
8.692436
20
77.173700
11
8.775097
21
77.373261
0
LINE
8
Layer 1
10
8.775097
20
77.373261
11
8.974658
21
77.455922
0
LINE
8
Layer 1
10
8.974658
20
77.455922
11
9.174219
21
77.373261
0
LINE
8
Layer 1
10
9.174219
20
77.373261
11
9.256880
21
77.173700
0
LINE
8
Layer 1
10
9.256880
20
77.173700
11
9.256880
21
77.173700
0
LINE
8
Layer 1
10
8.208150
20
75.339200
11
8.125489
21
75.139639
0
LINE
8
Layer 1
10
8.125489
20
75.139639
11
7.925928
21
75.056978
0
LINE
8
Layer 1
10
7.925928
20
75.056978
11
7.726367
21
75.139639
0
LINE
8
Layer 1
10
7.726367
20
75.139639
11
7.643706
21
75.339200
0
LINE
8
Layer 1
10
7.643706
20
75.339200
11
7.726367
21
75.538761
0
LINE
8
Layer 1
10
7.726367
20
75.538761
11
7.925928
21
75.621422
0
LINE
8
Layer 1
10
7.925928
20
75.621422
11
8.125489
21
75.538761
0
LINE
8
Layer 1
10
8.125489
20
75.538761
11
8.208150
21
75.339200
0
LINE
8
Layer 1
10
8.208150
20
75.339200
11
8.208150
21
75.339200
0
LINE
8
Layer 1
10
7.507110
20
73.504800
11
7.424449
21
73.305239
0
LINE
8
Layer 1
10
7.424449
20
73.305239
11
7.224888
21
73.222578
0
LINE
8
Layer 1
10
7.224888
20
73.222578
11
7.025327
21
73.305239
0
LINE
8
Layer 1
10
7.025327
20
73.305239
11
6.942666
21
73.504800
0
LINE
8
Layer 1
10
6.942666
20
73.504800
11
7.025327
21
73.704361
0
LINE
8
Layer 1
10
7.025327
20
73.704361
11
7.224888
21
73.787022
0
LINE
8
Layer 1
10
7.224888
20
73.787022
11
7.424449
21
73.704361
0
LINE
8
Layer 1
10
7.424449
20
73.704361
11
7.507110
21
73.504800
0
LINE
8
Layer 1
10
7.507110
20
73.504800
11
7.507110
21
73.504800
0
LINE
8
Layer 1
10
9.256880
20
77.173700
11
9.174219
21
76.974139
0
LINE
8
Layer 1
10
9.174219
20
76.974139
11
8.974658
21
76.891478
0
LINE
8
Layer 1
10
8.974658
20
76.891478
11
8.775097
21
76.974139
0
LINE
8
Layer 1
10
8.775097
20
76.974139
11
8.692436
21
77.173700
0
LINE
8
Layer 1
10
8.692436
20
77.173700
11
8.775097
21
77.373261
0
LINE
8
Layer 1
10
8.775097
20
77.373261
11
8.974658
21
77.455922
0
LINE
8
Layer 1
10
8.974658
20
77.455922
11
9.174219
21
77.373261
0
LINE
8
Layer 1
10
9.174219
20
77.373261
11
9.256880
21
77.173700
0
LINE
8
Layer 1
10
9.256880
20
77.173700
11
9.256880
21
77.173700
0
LINE
8
Bottom
10
23.168400
20
82.758400
11
23.914745
21
80.742060
0
LINE
8
Bottom
10
23.914745
20
80.742060
11
26.207800
21
80.742000
0
LINE
8
Bottom
10
26.207800
20
80.742000
11
26.462461
21
78.702510
0
LINE
8
Bottom
10
26.462461
20
78.702510
11
25.902427
21
78.632506
0
LINE
8
Bottom
10
25.902427
20
78.632506
11
25.709502
21
80.177566
0
LINE
8
Bottom
10
25.709502
20
80.177566
11
23.522300
21
80.177600
0
LINE
8
Bottom
10
23.522300
20
80.177600
11
22.775400
21
82.193900
0
LINE
8
Bottom
10
22.775400
20
82.193900
11
18.118200
21
82.193900
0
LINE
8
Bottom
10
18.118200
20
82.193900
11
18.118200
21
82.758400
0
LINE
8
Bottom
10
18.118200
20
82.758400
11
23.168400
21
82.758400
0
LINE
8
Bottom
10
3.975640
20
82.769900
11
4.559376
21
80.835690
0
LINE
8
Bottom
10
4.559376
20
80.835690
11
7.404750
21
80.835700
0
LINE
8
Bottom
10
7.404750
20
80.835700
11
8.006676
21
81.878600
0
LINE
8
Bottom
10
8.006676
20
81.878600
11
21.528000
21
81.878600
0
LINE
8
Bottom
10
21.528000
20
81.878600
11
23.603880
21
78.282470
0
LINE
8
Bottom
10
23.603880
20
78.282470
11
26.199000
21
78.282500
0
LINE
8
Bottom
10
26.199000
20
78.282500
11
26.199000
21
77.718100
0
LINE
8
Bottom
10
26.199000
20
77.718100
11
23.278100
21
77.718100
0
LINE
8
Bottom
10
23.278100
20
77.718100
11
21.202200
21
81.314200
0
LINE
8
Bottom
10
21.202200
20
81.314200
11
8.332440
21
81.314200
0
LINE
8
Bottom
10
8.332440
20
81.314200
11
7.730520
21
80.271300
0
LINE
8
Bottom
10
7.730520
20
80.271300
11
4.139900
21
80.271300
0
LINE
8
Bottom
10
4.139900
20
80.271300
11
3.556170
21
82.205500
0
LINE
8
Bottom
10
3.556170
20
82.205500
11
1.681480
21
82.205500
0
LINE
8
Bottom
10
1.681480
20
82.205500
11
1.681480
21
82.769900
0
LINE
8
Bottom
10
1.681480
20
82.769900
11
3.975640
21
82.769900
0
LINE
8
Bottom
10
19.109800
20
80.962000
11
19.111465
21
80.397556
0
LINE
8
Bottom
10
19.111465
20
80.397556
11
9.557255
21
80.370547
0
LINE
8
Bottom
10
9.557255
20
80.370547
11
7.126945
21
76.975067
0
LINE
8
Bottom
10
7.126945
20
76.975067
11
0.851915
21
76.959633
0
LINE
8
Bottom
10
0.851915
20
76.959633
11
0.851917
21
80.956400
0
LINE
8
Bottom
10
0.851917
20
80.956400
11
2.782270
21
80.956400
0
LINE
8
Bottom
10
2.782270
20
80.956400
11
2.782270
21
80.392000
0
LINE
8
Bottom
10
2.782270
20
80.392000
11
1.416360
21
80.392000
0
LINE
8
Bottom
10
1.416360
20
80.392000
11
1.416360
21
77.525100
0
LINE
8
Bottom
10
1.416360
20
77.525100
11
6.835900
21
77.538881
0
LINE
8
Bottom
10
6.835900
20
77.538881
11
9.266210
21
80.934361
0
LINE
8
Bottom
10
9.266210
20
80.934361
11
19.109800
21
80.962000
0
LINE
8
Bottom
10
15.724800
20
80.655500
11
15.724800
21
75.602500
0
LINE
8
Bottom
10
15.724800
20
75.602500
11
23.964900
21
75.602500
0
LINE
8
Bottom
10
23.964900
20
75.602500
11
24.875507
21
74.691342
0
LINE
8
Bottom
10
24.875507
20
74.691342
11
26.223800
21
74.691300
0
LINE
8
Bottom
10
26.223800
20
74.691300
11
26.223800
21
74.126900
0
LINE
8
Bottom
10
26.223800
20
74.126900
11
24.641800
21
74.126900
0
LINE
8
Bottom
10
24.641800
20
74.126900
11
23.731200
21
75.038000
0
LINE
8
Bottom
10
23.731200
20
75.038000
11
15.160300
21
75.038000
0
LINE
8
Bottom
10
15.160300
20
75.038000
11
15.160300
21
80.655500
0
LINE
8
Bottom
10
15.160300
20
80.655500
11
15.724800
21
80.655500
0
LINE
8
Bottom
10
15.160300
20
75.324100
11
15.724744
21
75.315831
0
LINE
8
Bottom
10
15.724744
20
75.315831
11
15.668520
21
71.488751
0
LINE
8
Bottom
10
15.668520
20
71.488751
11
0.881671
21
71.488800
0
LINE
8
Bottom
10
0.881671
20
71.488800
11
0.881671
21
72.053200
0
LINE
8
Bottom
10
0.881671
20
72.053200
11
15.112400
21
72.053200
0
LINE
8
Bottom
10
15.112400
20
72.053200
11
15.160300
21
75.324100
0
LINE
8
Bottom
10
26.224300
20
73.970300
11
26.224864
21
73.405856
0
LINE
8
Bottom
10
26.224864
20
73.405856
11
22.928044
21
73.403655
0
LINE
8
Bottom
10
22.928044
20
73.403655
11
22.139808
21
70.788685
0
LINE
8
Bottom
10
22.139808
20
70.788685
11
0.862930
21
70.788700
0
LINE
8
Bottom
10
0.862930
20
70.788700
11
0.862930
21
71.353200
0
LINE
8
Bottom
10
0.862930
20
71.353200
11
21.720300
21
71.353200
0
LINE
8
Bottom
10
21.720300
20
71.353200
11
22.508537
21
73.968160
0
LINE
8
Bottom
10
22.508537
20
73.968160
11
26.224300
21
73.970300
0
LINE
8
Bottom
10
23.198700
20
73.289000
11
26.211090
21
73.245454
0
LINE
8
Bottom
10
26.211090
20
73.245454
11
26.202821
21
72.681010
0
LINE
8
Bottom
10
26.202821
20
72.681010
11
23.611561
21
72.718493
0
LINE
8
Bottom
10
23.611561
20
72.718493
11
22.779227
21
70.062743
0
LINE
8
Bottom
10
22.779227
20
70.062743
11
0.885529
21
70.062800
0
LINE
8
Bottom
10
0.885529
20
70.062800
11
0.885529
21
70.627200
0
LINE
8
Bottom
10
0.885529
20
70.627200
11
22.364700
21
70.627200
0
LINE
8
Bottom
10
22.364700
20
70.627200
11
23.198700
21
73.289000
0
LINE
8
Bottom
10
26.209400
20
72.585700
11
26.209400
21
72.021200
0
LINE
8
Bottom
10
26.209400
20
72.021200
11
24.693100
21
72.021200
0
LINE
8
Bottom
10
24.693100
20
72.021200
11
23.977000
21
69.347300
0
LINE
8
Bottom
10
23.977000
20
69.347300
11
0.874505
21
69.347300
0
LINE
8
Bottom
10
0.874505
20
69.347300
11
0.874505
21
69.911700
0
LINE
8
Bottom
10
0.874505
20
69.911700
11
23.543800
21
69.911700
0
LINE
8
Bottom
10
23.543800
20
69.911700
11
24.260379
21
72.585640
0
LINE
8
Bottom
10
24.260379
20
72.585640
11
26.209400
21
72.585700
0
LINE
8
Bottom
10
26.196200
20
77.559900
11
26.204469
21
76.995456
0
LINE
8
Bottom
10
26.204469
20
76.995456
11
18.097749
21
76.871984
0
LINE
8
Bottom
10
18.097749
20
76.871984
11
18.088930
21
77.436428
0
LINE
8
Bottom
10
18.088930
20
77.436428
11
26.196200
21
77.559900
 0 
ENDSEC
 0 
EOF