999
"DXF R12 Output" (www.mydxf.blogspot.com)
 0 
SECTION
 2 
HEADER
 9 
$ACADVER
 1 
AC1009
 9 
$EXTMIN
 10 
 0 
 20 
 0 
 9 
$EXTMAX
 10 
 8.5 
 20 
 11 
 0 
ENDSEC
 0 
SECTION
 2 
ENTITIES
0
LINE
8
Top_(Cut)
10
0.000000
20
83.820000
11
0.000000
21
83.783100
0
LINE
8
Top_(Cut)
10
0.000000
20
83.783100
11
0.000000
21
67.168900
0
LINE
8
Top_(Cut)
10
0.000000
20
67.168900
11
27.375500
21
67.168900
0
LINE
8
Top_(Cut)
10
27.375500
20
67.168900
11
27.375500
21
83.820000
0
LINE
8
Top_(Cut)
10
27.375500
20
83.820000
11
0.000000
21
83.820000
0
LINE
8
Top_(Cut)
10
0.074414
20
83.745600
11
27.301100
21
83.745600
0
LINE
8
Top_(Cut)
10
27.301100
20
83.745600
11
27.301100
21
67.243300
0
LINE
8
Top_(Cut)
10
27.301100
20
67.243300
11
0.074414
21
67.243300
0
LINE
8
Top_(Cut)
10
0.074414
20
67.243300
11
0.074414
21
83.745600
0
LINE
8
Top_(Cut)
10
1.693330
20
82.691100
11
1.294369
21
82.525638
0
LINE
8
Top_(Cut)
10
1.294369
20
82.525638
11
1.128890
21
82.126700
0
LINE
8
Top_(Cut)
10
1.128890
20
82.126700
11
1.294369
21
81.727712
0
LINE
8
Top_(Cut)
10
1.294369
20
81.727712
11
1.693330
21
81.562200
0
LINE
8
Top_(Cut)
10
1.693330
20
81.562200
11
2.092300
21
81.727712
0
LINE
8
Top_(Cut)
10
2.092300
20
81.727712
11
2.257780
21
82.126700
0
LINE
8
Top_(Cut)
10
2.257780
20
82.126700
11
2.092300
21
82.525638
0
LINE
8
Top_(Cut)
10
2.092300
20
82.525638
11
1.693330
21
82.691100
0
LINE
8
Top_(Cut)
10
1.693330
20
82.691100
11
1.693330
21
82.691100
0
LINE
8
Top_(Cut)
10
1.693330
20
82.620600
11
2.042759
21
82.476137
0
LINE
8
Top_(Cut)
10
2.042759
20
82.476137
11
2.187220
21
82.126700
0
LINE
8
Top_(Cut)
10
2.187220
20
82.126700
11
2.042759
21
81.777263
0
LINE
8
Top_(Cut)
10
2.042759
20
81.777263
11
1.693330
21
81.632800
0
LINE
8
Top_(Cut)
10
1.693330
20
81.632800
11
1.343901
21
81.777263
0
LINE
8
Top_(Cut)
10
1.343901
20
81.777263
11
1.199440
21
82.126700
0
LINE
8
Top_(Cut)
10
1.199440
20
82.126700
11
1.343901
21
82.476137
0
LINE
8
Top_(Cut)
10
1.343901
20
82.476137
11
1.693330
21
82.620600
0
LINE
8
Top_(Cut)
10
1.693330
20
82.620600
11
1.693330
21
82.620600
0
LINE
8
Layer 1
10
8.974880
20
82.634900
11
8.833769
21
82.493789
0
LINE
8
Layer 1
10
8.833769
20
82.493789
11
8.974880
21
82.352678
0
LINE
8
Layer 1
10
8.974880
20
82.352678
11
9.115991
21
82.493789
0
LINE
8
Layer 1
10
9.115991
20
82.493789
11
8.974880
21
82.634900
0
LINE
8
Layer 1
10
8.974880
20
82.634900
11
8.974880
21
82.634900
0
LINE
8
Layer 1
10
8.974880
20
82.574266
11
9.055357
21
82.493789
0
LINE
8
Layer 1
10
9.055357
20
82.493789
11
8.974880
21
82.412760
0
LINE
8
Layer 1
10
8.974880
20
82.412760
11
8.893852
21
82.493789
0
LINE
8
Layer 1
10
8.893852
20
82.493789
11
8.974880
21
82.574266
0
LINE
8
Layer 1
10
8.974880
20
82.574266
11
8.974880
21
82.574266
0
LINE
8
Layer 1
10
7.925920
20
80.800400
11
7.784809
21
80.659289
0
LINE
8
Layer 1
10
7.784809
20
80.659289
11
7.925920
21
80.518178
0
LINE
8
Layer 1
10
7.925920
20
80.518178
11
8.067031
21
80.659289
0
LINE
8
Layer 1
10
8.067031
20
80.659289
11
7.925920
21
80.800400
0
LINE
8
Layer 1
10
7.925920
20
80.800400
11
7.925920
21
80.800400
0
LINE
8
Layer 1
10
7.925920
20
80.739766
11
8.006398
21
80.659289
0
LINE
8
Layer 1
10
8.006398
20
80.659289
11
7.925920
21
80.578260
0
LINE
8
Layer 1
10
7.925920
20
80.578260
11
7.845443
21
80.659289
0
LINE
8
Layer 1
10
7.845443
20
80.659289
11
7.925920
21
80.739766
0
LINE
8
Layer 1
10
7.925920
20
80.739766
11
7.925920
21
80.739766
0
LINE
8
Layer 1
10
7.224770
20
78.966000
11
7.083659
21
78.824889
0
LINE
8
Layer 1
10
7.083659
20
78.824889
11
7.224770
21
78.683778
0
LINE
8
Layer 1
10
7.224770
20
78.683778
11
7.365881
21
78.824889
0
LINE
8
Layer 1
10
7.365881
20
78.824889
11
7.224770
21
78.966000
0
LINE
8
Layer 1
10
7.224770
20
78.966000
11
7.224770
21
78.966000
0
LINE
8
Layer 1
10
7.224770
20
78.905367
11
7.305799
21
78.824889
0
LINE
8
Layer 1
10
7.305799
20
78.824889
11
7.224770
21
78.743860
0
LINE
8
Layer 1
10
7.224770
20
78.743860
11
7.144293
21
78.824889
0
LINE
8
Layer 1
10
7.144293
20
78.824889
11
7.224770
21
78.905367
0
LINE
8
Layer 1
10
7.224770
20
78.905367
11
7.224770
21
78.905367
0
LINE
8
Top_(Cut)
10
8.974880
20
77.314600
11
8.833769
21
77.173489
0
LINE
8
Top_(Cut)
10
8.833769
20
77.173489
11
8.974880
21
77.032378
0
LINE
8
Top_(Cut)
10
8.974880
20
77.032378
11
9.115991
21
77.173489
0
LINE
8
Top_(Cut)
10
9.115991
20
77.173489
11
8.974880
21
77.314600
0
LINE
8
Top_(Cut)
10
8.974880
20
77.314600
11
8.974880
21
77.314600
0
LINE
8
Top_(Cut)
10
8.974880
20
77.254518
11
9.055357
21
77.173489
0
LINE
8
Top_(Cut)
10
9.055357
20
77.173489
11
8.974880
21
77.093012
0
LINE
8
Top_(Cut)
10
8.974880
20
77.093012
11
8.893852
21
77.173489
0
LINE
8
Top_(Cut)
10
8.893852
20
77.173489
11
8.974880
21
77.254518
0
LINE
8
Top_(Cut)
10
8.974880
20
77.254518
11
8.974880
21
77.254518
0
LINE
8
Top_(Cut)
10
7.925920
20
75.480100
11
7.784809
21
75.338989
0
LINE
8
Top_(Cut)
10
7.784809
20
75.338989
11
7.925920
21
75.197878
0
LINE
8
Top_(Cut)
10
7.925920
20
75.197878
11
8.067031
21
75.338989
0
LINE
8
Top_(Cut)
10
8.067031
20
75.338989
11
7.925920
21
75.480100
0
LINE
8
Top_(Cut)
10
7.925920
20
75.480100
11
7.925920
21
75.480100
0
LINE
8
Top_(Cut)
10
7.925920
20
75.420018
11
8.006398
21
75.338989
0
LINE
8
Top_(Cut)
10
8.006398
20
75.338989
11
7.925920
21
75.258512
0
LINE
8
Top_(Cut)
10
7.925920
20
75.258512
11
7.845443
21
75.338989
0
LINE
8
Top_(Cut)
10
7.845443
20
75.338989
11
7.925920
21
75.420018
0
LINE
8
Top_(Cut)
10
7.925920
20
75.420018
11
7.925920
21
75.420018
0
LINE
8
Top_(Cut)
10
7.224770
20
73.645700
11
7.083659
21
73.504589
0
LINE
8
Top_(Cut)
10
7.083659
20
73.504589
11
7.224770
21
73.363478
0
LINE
8
Top_(Cut)
10
7.224770
20
73.363478
11
7.365881
21
73.504589
0
LINE
8
Top_(Cut)
10
7.365881
20
73.504589
11
7.224770
21
73.645700
0
LINE
8
Top_(Cut)
10
7.224770
20
73.645700
11
7.224770
21
73.645700
0
LINE
8
Top_(Cut)
10
7.224770
20
73.585618
11
7.305799
21
73.504589
0
LINE
8
Top_(Cut)
10
7.305799
20
73.504589
11
7.224770
21
73.424112
0
LINE
8
Top_(Cut)
10
7.224770
20
73.424112
11
7.144293
21
73.504589
0
LINE
8
Top_(Cut)
10
7.144293
20
73.504589
11
7.224770
21
73.585618
0
LINE
8
Top_(Cut)
10
7.224770
20
73.585618
11
7.224770
21
73.585618
0
LINE
8
Layer 1
10
0.879188
20
78.894300
11
0.705555
21
78.720116
0
LINE
8
Layer 1
10
0.705555
20
78.720116
11
0.879188
21
78.546483
0
LINE
8
Layer 1
10
0.879188
20
78.546483
11
1.053372
21
78.720116
0
LINE
8
Layer 1
10
1.053372
20
78.720116
11
0.879188
21
78.894300
0
LINE
8
Layer 1
10
0.879188
20
78.894300
11
0.879188
21
78.894300
0
LINE
8
Layer 1
10
0.879188
20
78.819886
11
0.978958
21
78.720116
0
LINE
8
Layer 1
10
0.978958
20
78.720116
11
0.879188
21
78.620897
0
LINE
8
Layer 1
10
0.879188
20
78.620897
11
0.779969
21
78.720116
0
LINE
8
Layer 1
10
0.779969
20
78.720116
11
0.879188
21
78.819886
0
LINE
8
Layer 1
10
0.879188
20
78.819886
11
0.879188
21
78.819886
0
LINE
8
Layer 1
10
0.879188
20
78.177200
11
0.705555
21
78.003567
0
LINE
8
Layer 1
10
0.705555
20
78.003567
11
0.879188
21
77.829383
0
LINE
8
Layer 1
10
0.879188
20
77.829383
11
1.053372
21
78.003567
0
LINE
8
Layer 1
10
1.053372
20
78.003567
11
0.879188
21
78.177200
0
LINE
8
Layer 1
10
0.879188
20
78.177200
11
0.879188
21
78.177200
0
LINE
8
Layer 1
10
0.879188
20
78.102786
11
0.978958
21
78.003567
0
LINE
8
Layer 1
10
0.978958
20
78.003567
11
0.879188
21
77.903797
0
LINE
8
Layer 1
10
0.879188
20
77.903797
11
0.779969
21
78.003567
0
LINE
8
Layer 1
10
0.779969
20
78.003567
11
0.879188
21
78.102786
0
LINE
8
Layer 1
10
0.879188
20
78.102786
11
0.879188
21
78.102786
0
LINE
8
Layer 1
10
0.879188
20
77.460600
11
0.705555
21
77.286416
0
LINE
8
Layer 1
10
0.705555
20
77.286416
11
0.879188
21
77.112783
0
LINE
8
Layer 1
10
0.879188
20
77.112783
11
1.053372
21
77.286416
0
LINE
8
Layer 1
10
1.053372
20
77.286416
11
0.879188
21
77.460600
0
LINE
8
Layer 1
10
0.879188
20
77.460600
11
0.879188
21
77.460600
0
LINE
8
Layer 1
10
0.879188
20
77.386186
11
0.978958
21
77.286416
0
LINE
8
Layer 1
10
0.978958
20
77.286416
11
0.879188
21
77.187197
0
LINE
8
Layer 1
10
0.879188
20
77.187197
11
0.779969
21
77.286416
0
LINE
8
Layer 1
10
0.779969
20
77.286416
11
0.879188
21
77.386186
0
LINE
8
Layer 1
10
0.879188
20
77.386186
11
0.879188
21
77.386186
0
LINE
8
Layer 1
10
0.879188
20
74.593200
11
0.705555
21
74.419016
0
LINE
8
Layer 1
10
0.705555
20
74.419016
11
0.879188
21
74.245383
0
LINE
8
Layer 1
10
0.879188
20
74.245383
11
1.053372
21
74.419016
0
LINE
8
Layer 1
10
1.053372
20
74.419016
11
0.879188
21
74.593200
0
LINE
8
Layer 1
10
0.879188
20
74.593200
11
0.879188
21
74.593200
0
LINE
8
Layer 1
10
0.879188
20
74.518786
11
0.978958
21
74.419016
0
LINE
8
Layer 1
10
0.978958
20
74.419016
11
0.879188
21
74.319797
0
LINE
8
Layer 1
10
0.879188
20
74.319797
11
0.779969
21
74.419016
0
LINE
8
Layer 1
10
0.779969
20
74.419016
11
0.879188
21
74.518786
0
LINE
8
Layer 1
10
0.879188
20
74.518786
11
0.879188
21
74.518786
0
LINE
8
Layer 1
10
0.879188
20
73.159500
11
0.705555
21
72.985316
0
LINE
8
Layer 1
10
0.705555
20
72.985316
11
0.879188
21
72.811683
0
LINE
8
Layer 1
10
0.879188
20
72.811683
11
1.053372
21
72.985316
0
LINE
8
Layer 1
10
1.053372
20
72.985316
11
0.879188
21
73.159500
0
LINE
8
Layer 1
10
0.879188
20
73.159500
11
0.879188
21
73.159500
0
LINE
8
Layer 1
10
0.879188
20
73.085086
11
0.978958
21
72.985316
0
LINE
8
Layer 1
10
0.978958
20
72.985316
11
0.879188
21
72.886097
0
LINE
8
Layer 1
10
0.879188
20
72.886097
11
0.779969
21
72.985316
0
LINE
8
Layer 1
10
0.779969
20
72.985316
11
0.879188
21
73.085086
0
LINE
8
Layer 1
10
0.879188
20
73.085086
11
0.879188
21
73.085086
0
LINE
8
Layer 1
10
0.879188
20
73.876100
11
0.705555
21
73.702467
0
LINE
8
Layer 1
10
0.705555
20
73.702467
11
0.879188
21
73.528283
0
LINE
8
Layer 1
10
0.879188
20
73.528283
11
1.053372
21
73.702467
0
LINE
8
Layer 1
10
1.053372
20
73.702467
11
0.879188
21
73.876100
0
LINE
8
Layer 1
10
0.879188
20
73.876100
11
0.879188
21
73.876100
0
LINE
8
Layer 1
10
0.879188
20
73.801686
11
0.978958
21
73.702467
0
LINE
8
Layer 1
10
0.978958
20
73.702467
11
0.879188
21
73.602697
0
LINE
8
Layer 1
10
0.879188
20
73.602697
11
0.779969
21
73.702467
0
LINE
8
Layer 1
10
0.779969
20
73.702467
11
0.879188
21
73.801686
0
LINE
8
Layer 1
10
0.879188
20
73.801686
11
0.879188
21
73.801686
0
LINE
8
Layer 1
10
0.879188
20
76.743500
11
0.705555
21
76.569867
0
LINE
8
Layer 1
10
0.705555
20
76.569867
11
0.879188
21
76.395683
0
LINE
8
Layer 1
10
0.879188
20
76.395683
11
1.053372
21
76.569867
0
LINE
8
Layer 1
10
1.053372
20
76.569867
11
0.879188
21
76.743500
0
LINE
8
Layer 1
10
0.879188
20
76.743500
11
0.879188
21
76.743500
0
LINE
8
Layer 1
10
0.879188
20
76.669086
11
0.978958
21
76.569867
0
LINE
8
Layer 1
10
0.978958
20
76.569867
11
0.879188
21
76.470097
0
LINE
8
Layer 1
10
0.879188
20
76.470097
11
0.779969
21
76.569867
0
LINE
8
Layer 1
10
0.779969
20
76.569867
11
0.879188
21
76.669086
0
LINE
8
Layer 1
10
0.879188
20
76.669086
11
0.879188
21
76.669086
0
LINE
8
Layer 1
10
0.879188
20
76.026900
11
0.705555
21
75.852716
0
LINE
8
Layer 1
10
0.705555
20
75.852716
11
0.879188
21
75.679083
0
LINE
8
Layer 1
10
0.879188
20
75.679083
11
1.053372
21
75.852716
0
LINE
8
Layer 1
10
1.053372
20
75.852716
11
0.879188
21
76.026900
0
LINE
8
Layer 1
10
0.879188
20
76.026900
11
0.879188
21
76.026900
0
LINE
8
Layer 1
10
0.879188
20
75.952486
11
0.978958
21
75.852716
0
LINE
8
Layer 1
10
0.978958
20
75.852716
11
0.879188
21
75.753497
0
LINE
8
Layer 1
10
0.879188
20
75.753497
11
0.779969
21
75.852716
0
LINE
8
Layer 1
10
0.779969
20
75.852716
11
0.879188
21
75.952486
0
LINE
8
Layer 1
10
0.879188
20
75.952486
11
0.879188
21
75.952486
0
LINE
8
Layer 1
10
0.879188
20
75.309800
11
0.705555
21
75.136167
0
LINE
8
Layer 1
10
0.705555
20
75.136167
11
0.879188
21
74.961983
0
LINE
8
Layer 1
10
0.879188
20
74.961983
11
1.053372
21
75.136167
0
LINE
8
Layer 1
10
1.053372
20
75.136167
11
0.879188
21
75.309800
0
LINE
8
Layer 1
10
0.879188
20
75.309800
11
0.879188
21
75.309800
0
LINE
8
Layer 1
10
0.879188
20
75.235386
11
0.978958
21
75.136167
0
LINE
8
Layer 1
10
0.978958
20
75.136167
11
0.879188
21
75.036397
0
LINE
8
Layer 1
10
0.879188
20
75.036397
11
0.779969
21
75.136167
0
LINE
8
Layer 1
10
0.779969
20
75.136167
11
0.879188
21
75.235386
0
LINE
8
Layer 1
10
0.879188
20
75.235386
11
0.879188
21
75.235386
0
LINE
8
Layer 1
10
0.879188
20
72.442400
11
0.705555
21
72.268767
0
LINE
8
Layer 1
10
0.705555
20
72.268767
11
0.879188
21
72.094583
0
LINE
8
Layer 1
10
0.879188
20
72.094583
11
1.053372
21
72.268767
0
LINE
8
Layer 1
10
1.053372
20
72.268767
11
0.879188
21
72.442400
0
LINE
8
Layer 1
10
0.879188
20
72.442400
11
0.879188
21
72.442400
0
LINE
8
Layer 1
10
0.879188
20
72.367986
11
0.978958
21
72.268767
0
LINE
8
Layer 1
10
0.978958
20
72.268767
11
0.879188
21
72.168997
0
LINE
8
Layer 1
10
0.879188
20
72.168997
11
0.779969
21
72.268767
0
LINE
8
Layer 1
10
0.779969
20
72.268767
11
0.879188
21
72.367986
0
LINE
8
Layer 1
10
0.879188
20
72.367986
11
0.879188
21
72.367986
0
LINE
8
Top_(Cut)
10
20.320000
20
82.691100
11
19.921034
21
82.525622
0
LINE
8
Top_(Cut)
10
19.921034
20
82.525622
11
19.755556
21
82.126656
0
LINE
8
Top_(Cut)
10
19.755556
20
82.126656
11
19.921034
21
81.727690
0
LINE
8
Top_(Cut)
10
19.921034
20
81.727690
11
20.320000
21
81.562212
0
LINE
8
Top_(Cut)
10
20.320000
20
81.562212
11
20.718966
21
81.727690
0
LINE
8
Top_(Cut)
10
20.718966
20
81.727690
11
20.884444
21
82.126656
0
LINE
8
Top_(Cut)
10
20.884444
20
82.126656
11
20.718966
21
82.525622
0
LINE
8
Top_(Cut)
10
20.718966
20
82.525622
11
20.320000
21
82.691100
0
LINE
8
Top_(Cut)
10
20.320000
20
82.691100
11
20.320000
21
82.691100
0
LINE
8
Top_(Cut)
10
20.320000
20
82.620545
11
20.669429
21
82.476085
0
LINE
8
Top_(Cut)
10
20.669429
20
82.476085
11
20.813889
21
82.126657
0
LINE
8
Top_(Cut)
10
20.813889
20
82.126657
11
20.669429
21
81.777228
0
LINE
8
Top_(Cut)
10
20.669429
20
81.777228
11
20.320000
21
81.632769
0
LINE
8
Top_(Cut)
10
20.320000
20
81.632769
11
19.970571
21
81.777228
0
LINE
8
Top_(Cut)
10
19.970571
20
81.777228
11
19.826111
21
82.126657
0
LINE
8
Top_(Cut)
10
19.826111
20
82.126657
11
19.970571
21
82.476085
0
LINE
8
Top_(Cut)
10
19.970571
20
82.476085
11
20.320000
21
82.620545
0
LINE
8
Top_(Cut)
10
20.320000
20
82.620545
11
20.320000
21
82.620545
0
LINE
8
Top_(Cut)
10
1.693330
20
68.862200
11
1.294364
21
68.696722
0
LINE
8
Top_(Cut)
10
1.294364
20
68.696722
11
1.128886
21
68.297756
0
LINE
8
Top_(Cut)
10
1.128886
20
68.297756
11
1.294364
21
67.898790
0
LINE
8
Top_(Cut)
10
1.294364
20
67.898790
11
1.693330
21
67.733312
0
LINE
8
Top_(Cut)
10
1.693330
20
67.733312
11
2.092296
21
67.898790
0
LINE
8
Top_(Cut)
10
2.092296
20
67.898790
11
2.257774
21
68.297756
0
LINE
8
Top_(Cut)
10
2.257774
20
68.297756
11
2.092296
21
68.696722
0
LINE
8
Top_(Cut)
10
2.092296
20
68.696722
11
1.693330
21
68.862200
0
LINE
8
Top_(Cut)
10
1.693330
20
68.862200
11
1.693330
21
68.862200
0
LINE
8
Top_(Cut)
10
1.693330
20
68.791645
11
2.042759
21
68.647185
0
LINE
8
Top_(Cut)
10
2.042759
20
68.647185
11
2.187218
21
68.297757
0
LINE
8
Top_(Cut)
10
2.187218
20
68.297757
11
2.042759
21
67.948328
0
LINE
8
Top_(Cut)
10
2.042759
20
67.948328
11
1.693330
21
67.803869
0
LINE
8
Top_(Cut)
10
1.693330
20
67.803869
11
1.343901
21
67.948328
0
LINE
8
Top_(Cut)
10
1.343901
20
67.948328
11
1.199442
21
68.297757
0
LINE
8
Top_(Cut)
10
1.199442
20
68.297757
11
1.343901
21
68.647185
0
LINE
8
Top_(Cut)
10
1.343901
20
68.647185
11
1.693330
21
68.791645
0
LINE
8
Top_(Cut)
10
1.693330
20
68.791645
11
1.693330
21
68.791645
0
LINE
8
Top_(Cut)
10
20.865100
20
68.862200
11
20.466134
21
68.696722
0
LINE
8
Top_(Cut)
10
20.466134
20
68.696722
11
20.300656
21
68.297756
0
LINE
8
Top_(Cut)
10
20.300656
20
68.297756
11
20.466134
21
67.898790
0
LINE
8
Top_(Cut)
10
20.466134
20
67.898790
11
20.865100
21
67.733312
0
LINE
8
Top_(Cut)
10
20.865100
20
67.733312
11
21.264066
21
67.898790
0
LINE
8
Top_(Cut)
10
21.264066
20
67.898790
11
21.429544
21
68.297756
0
LINE
8
Top_(Cut)
10
21.429544
20
68.297756
11
21.264066
21
68.696722
0
LINE
8
Top_(Cut)
10
21.264066
20
68.696722
11
20.865100
21
68.862200
0
LINE
8
Top_(Cut)
10
20.865100
20
68.862200
11
20.865100
21
68.862200
0
LINE
8
Top_(Cut)
10
20.865100
20
68.791645
11
21.214805
21
68.647185
0
LINE
8
Top_(Cut)
10
21.214805
20
68.647185
11
21.359540
21
68.297757
0
LINE
8
Top_(Cut)
10
21.359540
20
68.297757
11
21.214805
21
67.948328
0
LINE
8
Top_(Cut)
10
21.214805
20
67.948328
11
20.865100
21
67.803869
0
LINE
8
Top_(Cut)
10
20.865100
20
67.803869
11
20.515671
21
67.948328
0
LINE
8
Top_(Cut)
10
20.515671
20
67.948328
11
20.371211
21
68.297757
0
LINE
8
Top_(Cut)
10
20.371211
20
68.297757
11
20.515671
21
68.647185
0
LINE
8
Top_(Cut)
10
20.515671
20
68.647185
11
20.865100
21
68.791645
0
LINE
8
Top_(Cut)
10
20.865100
20
68.791645
11
20.865100
21
68.791645
0
LINE
8
Top_(Cut)
10
14.656300
20
77.348200
11
14.257334
21
77.182722
0
LINE
8
Top_(Cut)
10
14.257334
20
77.182722
11
14.091856
21
76.783756
0
LINE
8
Top_(Cut)
10
14.091856
20
76.783756
11
14.257334
21
76.384790
0
LINE
8
Top_(Cut)
10
14.257334
20
76.384790
11
14.656300
21
76.219312
0
LINE
8
Top_(Cut)
10
14.656300
20
76.219312
11
15.055266
21
76.384790
0
LINE
8
Top_(Cut)
10
15.055266
20
76.384790
11
15.220744
21
76.783756
0
LINE
8
Top_(Cut)
10
15.220744
20
76.783756
11
15.055266
21
77.182722
0
LINE
8
Top_(Cut)
10
15.055266
20
77.182722
11
14.656300
21
77.348200
0
LINE
8
Top_(Cut)
10
14.656300
20
77.348200
11
14.656300
21
77.348200
0
LINE
8
Top_(Cut)
10
14.656300
20
77.277645
11
15.006004
21
77.133185
0
LINE
8
Top_(Cut)
10
15.006004
20
77.133185
11
15.150740
21
76.783757
0
LINE
8
Top_(Cut)
10
15.150740
20
76.783757
11
15.006005
21
76.434052
0
LINE
8
Top_(Cut)
10
15.006005
20
76.434052
11
14.656300
21
76.289317
0
LINE
8
Top_(Cut)
10
14.656300
20
76.289317
11
14.306871
21
76.434052
0
LINE
8
Top_(Cut)
10
14.306871
20
76.434052
11
14.162411
21
76.783757
0
LINE
8
Top_(Cut)
10
14.162411
20
76.783757
11
14.306871
21
77.133185
0
LINE
8
Top_(Cut)
10
14.306871
20
77.133185
11
14.656300
21
77.277645
0
LINE
8
Top_(Cut)
10
14.656300
20
77.277645
11
14.656300
21
77.277645
0
LINE
8
Top_(Cut)
10
9.011810
20
68.791700
11
8.612844
21
68.626222
0
LINE
8
Top_(Cut)
10
8.612844
20
68.626222
11
8.447366
21
68.227256
0
LINE
8
Top_(Cut)
10
8.447366
20
68.227256
11
8.612844
21
67.828290
0
LINE
8
Top_(Cut)
10
8.612844
20
67.828290
11
9.011810
21
67.662812
0
LINE
8
Top_(Cut)
10
9.011810
20
67.662812
11
9.410776
21
67.828290
0
LINE
8
Top_(Cut)
10
9.410776
20
67.828290
11
9.576254
21
68.227256
0
LINE
8
Top_(Cut)
10
9.576254
20
68.227256
11
9.410776
21
68.626222
0
LINE
8
Top_(Cut)
10
9.410776
20
68.626222
11
9.011810
21
68.791700
0
LINE
8
Top_(Cut)
10
9.011810
20
68.791700
11
9.011810
21
68.791700
0
LINE
8
Top_(Cut)
10
9.011810
20
68.721145
11
9.361514
21
68.576685
0
LINE
8
Top_(Cut)
10
9.361514
20
68.576685
11
9.506250
21
68.227257
0
LINE
8
Top_(Cut)
10
9.506250
20
68.227257
11
9.361515
21
67.877552
0
LINE
8
Top_(Cut)
10
9.361515
20
67.877552
11
9.011810
21
67.732817
0
LINE
8
Top_(Cut)
10
9.011810
20
67.732817
11
8.662381
21
67.877552
0
LINE
8
Top_(Cut)
10
8.662381
20
67.877552
11
8.517921
21
68.227257
0
LINE
8
Top_(Cut)
10
8.517921
20
68.227257
11
8.662381
21
68.576685
0
LINE
8
Top_(Cut)
10
8.662381
20
68.576685
11
9.011810
21
68.721145
0
LINE
8
Top_(Cut)
10
9.011810
20
68.721145
11
9.011810
21
68.721145
0
LINE
8
Top_(Cut)
10
24.493800
20
74.880400
11
24.094834
21
74.714922
0
LINE
8
Top_(Cut)
10
24.094834
20
74.714922
11
23.929356
21
74.315956
0
LINE
8
Top_(Cut)
10
23.929356
20
74.315956
11
24.094834
21
73.916990
0
LINE
8
Top_(Cut)
10
24.094834
20
73.916990
11
24.493800
21
73.751512
0
LINE
8
Top_(Cut)
10
24.493800
20
73.751512
11
24.892766
21
73.916990
0
LINE
8
Top_(Cut)
10
24.892766
20
73.916990
11
25.058244
21
74.315956
0
LINE
8
Top_(Cut)
10
25.058244
20
74.315956
11
24.892766
21
74.714922
0
LINE
8
Top_(Cut)
10
24.892766
20
74.714922
11
24.493800
21
74.880400
0
LINE
8
Top_(Cut)
10
24.493800
20
74.880400
11
24.493800
21
74.880400
0
LINE
8
Top_(Cut)
10
24.493800
20
74.809844
11
24.843229
21
74.665385
0
LINE
8
Top_(Cut)
10
24.843229
20
74.665385
11
24.987689
21
74.315956
0
LINE
8
Top_(Cut)
10
24.987689
20
74.315956
11
24.843229
21
73.966528
0
LINE
8
Top_(Cut)
10
24.843229
20
73.966528
11
24.493800
21
73.822069
0
LINE
8
Top_(Cut)
10
24.493800
20
73.822069
11
24.144096
21
73.966528
0
LINE
8
Top_(Cut)
10
24.144096
20
73.966528
11
23.999360
21
74.315956
0
LINE
8
Top_(Cut)
10
23.999360
20
74.315956
11
24.144095
21
74.665385
0
LINE
8
Top_(Cut)
10
24.144095
20
74.665385
11
24.493800
21
74.809844
0
LINE
8
Top_(Cut)
10
24.493800
20
74.809844
11
24.493800
21
74.809844
0
LINE
8
Layer 1
10
8.974880
20
82.634900
11
8.833769
21
82.493789
0
LINE
8
Layer 1
10
8.833769
20
82.493789
11
8.974880
21
82.352678
0
LINE
8
Layer 1
10
8.974880
20
82.352678
11
9.115991
21
82.493789
0
LINE
8
Layer 1
10
9.115991
20
82.493789
11
8.974880
21
82.634900
0
LINE
8
Layer 1
10
8.974880
20
82.634900
11
8.974880
21
82.634900
0
LINE
8
Layer 1
10
8.974880
20
82.574266
11
9.055357
21
82.493789
0
LINE
8
Layer 1
10
9.055357
20
82.493789
11
8.974880
21
82.412760
0
LINE
8
Layer 1
10
8.974880
20
82.412760
11
8.893852
21
82.493789
0
LINE
8
Layer 1
10
8.893852
20
82.493789
11
8.974880
21
82.574266
0
LINE
8
Layer 1
10
8.974880
20
82.574266
11
8.974880
21
82.574266
0
LINE
8
Layer 1
10
7.925920
20
80.800400
11
7.784809
21
80.659289
0
LINE
8
Layer 1
10
7.784809
20
80.659289
11
7.925920
21
80.518178
0
LINE
8
Layer 1
10
7.925920
20
80.518178
11
8.067031
21
80.659289
0
LINE
8
Layer 1
10
8.067031
20
80.659289
11
7.925920
21
80.800400
0
LINE
8
Layer 1
10
7.925920
20
80.800400
11
7.925920
21
80.800400
0
LINE
8
Layer 1
10
7.925920
20
80.739766
11
8.006398
21
80.659289
0
LINE
8
Layer 1
10
8.006398
20
80.659289
11
7.925920
21
80.578260
0
LINE
8
Layer 1
10
7.925920
20
80.578260
11
7.845443
21
80.659289
0
LINE
8
Layer 1
10
7.845443
20
80.659289
11
7.925920
21
80.739766
0
LINE
8
Layer 1
10
7.925920
20
80.739766
11
7.925920
21
80.739766
0
LINE
8
Layer 1
10
7.224770
20
78.966000
11
7.083659
21
78.824889
0
LINE
8
Layer 1
10
7.083659
20
78.824889
11
7.224770
21
78.683778
0
LINE
8
Layer 1
10
7.224770
20
78.683778
11
7.365881
21
78.824889
0
LINE
8
Layer 1
10
7.365881
20
78.824889
11
7.224770
21
78.966000
0
LINE
8
Layer 1
10
7.224770
20
78.966000
11
7.224770
21
78.966000
0
LINE
8
Layer 1
10
7.224770
20
78.905367
11
7.305799
21
78.824889
0
LINE
8
Layer 1
10
7.305799
20
78.824889
11
7.224770
21
78.743860
0
LINE
8
Layer 1
10
7.224770
20
78.743860
11
7.144293
21
78.824889
0
LINE
8
Layer 1
10
7.144293
20
78.824889
11
7.224770
21
78.905367
0
LINE
8
Layer 1
10
7.224770
20
78.905367
11
7.224770
21
78.905367
0
LINE
8
Layer 1
10
26.199200
20
71.957900
11
26.025567
21
71.783716
0
LINE
8
Layer 1
10
26.025567
20
71.783716
11
26.199200
21
71.609532
0
LINE
8
Layer 1
10
26.199200
20
71.609532
11
26.373384
21
71.783716
0
LINE
8
Layer 1
10
26.373384
20
71.783716
11
26.199200
21
71.957900
0
LINE
8
Layer 1
10
26.199200
20
71.957900
11
26.199200
21
71.957900
0
LINE
8
Layer 1
10
26.199200
20
71.882935
11
26.298970
21
71.783716
0
LINE
8
Layer 1
10
26.298970
20
71.783716
11
26.199200
21
71.684497
0
LINE
8
Layer 1
10
26.199200
20
71.684497
11
26.099982
21
71.783716
0
LINE
8
Layer 1
10
26.099982
20
71.783716
11
26.199200
21
71.882935
0
LINE
8
Layer 1
10
26.199200
20
71.882935
11
26.199200
21
71.882935
0
LINE
8
Layer 1
10
26.199200
20
70.524100
11
26.025567
21
70.349916
0
LINE
8
Layer 1
10
26.025567
20
70.349916
11
26.199200
21
70.175732
0
LINE
8
Layer 1
10
26.199200
20
70.175732
11
26.373384
21
70.349916
0
LINE
8
Layer 1
10
26.373384
20
70.349916
11
26.199200
21
70.524100
0
LINE
8
Layer 1
10
26.199200
20
70.524100
11
26.199200
21
70.524100
0
LINE
8
Layer 1
10
26.199200
20
70.449135
11
26.298970
21
70.349916
0
LINE
8
Layer 1
10
26.298970
20
70.349916
11
26.199200
21
70.250698
0
LINE
8
Layer 1
10
26.199200
20
70.250698
11
26.099982
21
70.349916
0
LINE
8
Layer 1
10
26.099982
20
70.349916
11
26.199200
21
70.449135
0
LINE
8
Layer 1
10
26.199200
20
70.449135
11
26.199200
21
70.449135
0
LINE
8
Layer 1
10
26.199200
20
71.240700
11
26.025567
21
71.067067
0
LINE
8
Layer 1
10
26.025567
20
71.067067
11
26.199200
21
70.892883
0
LINE
8
Layer 1
10
26.199200
20
70.892883
11
26.373384
21
71.067067
0
LINE
8
Layer 1
10
26.373384
20
71.067067
11
26.199200
21
71.240700
0
LINE
8
Layer 1
10
26.199200
20
71.240700
11
26.199200
21
71.240700
0
LINE
8
Layer 1
10
26.199200
20
71.166286
11
26.298970
21
71.067067
0
LINE
8
Layer 1
10
26.298970
20
71.067067
11
26.199200
21
70.967297
0
LINE
8
Layer 1
10
26.199200
20
70.967297
11
26.099982
21
71.067067
0
LINE
8
Layer 1
10
26.099982
20
71.067067
11
26.199200
21
71.166286
0
LINE
8
Layer 1
10
26.199200
20
71.166286
11
26.199200
21
71.166286
0
LINE
8
Layer 1
10
26.199200
20
69.807000
11
26.025567
21
69.633367
0
LINE
8
Layer 1
10
26.025567
20
69.633367
11
26.199200
21
69.459183
0
LINE
8
Layer 1
10
26.199200
20
69.459183
11
26.373384
21
69.633367
0
LINE
8
Layer 1
10
26.373384
20
69.633367
11
26.199200
21
69.807000
0
LINE
8
Layer 1
10
26.199200
20
69.807000
11
26.199200
21
69.807000
0
LINE
8
Layer 1
10
26.199200
20
69.732586
11
26.298970
21
69.633367
0
LINE
8
Layer 1
10
26.298970
20
69.633367
11
26.199200
21
69.533597
0
LINE
8
Layer 1
10
26.199200
20
69.533597
11
26.099982
21
69.633367
0
LINE
8
Layer 1
10
26.099982
20
69.633367
11
26.199200
21
69.732586
0
LINE
8
Layer 1
10
26.199200
20
69.732586
11
26.199200
21
69.732586
 0 
ENDSEC
 0 
EOF