999
"DXF R12 Output" (www.mydxf.blogspot.com)
 0 
SECTION
 2 
HEADER
 9 
$ACADVER
 1 
AC1009
 9 
$EXTMIN
 10 
 0 
 20 
 0 
 9 
$EXTMAX
 10 
 8.5 
 20 
 11 
 0 
ENDSEC
 0 
SECTION
 2 
ENTITIES
0
LINE
8
Top_(Footprint)
10
5.700660
20
83.058200
11
5.700660
21
83.036700
0
LINE
8
Top_(Footprint)
10
5.700660
20
83.036700
11
5.700660
21
78.260400
0
LINE
8
Top_(Footprint)
10
5.700660
20
78.260400
11
10.498400
21
78.260400
0
LINE
8
Top_(Footprint)
10
10.498400
20
78.260400
11
10.498400
21
83.058200
0
LINE
8
Top_(Footprint)
10
10.498400
20
83.058200
11
5.700660
21
83.058200
0
LINE
8
Top_(Footprint)
10
5.743103
20
83.015756
11
10.456500
21
83.015800
0
LINE
8
Top_(Footprint)
10
10.456500
20
83.015800
11
10.456500
21
78.302300
0
LINE
8
Top_(Footprint)
10
10.456500
20
78.302300
11
5.743110
21
78.302300
0
LINE
8
Top_(Footprint)
10
5.743110
20
78.302300
11
5.743103
21
83.015756
0
LINE
8
Top_(Footprint)
10
22.098200
20
83.058200
11
22.098200
21
83.036700
0
LINE
8
Top_(Footprint)
10
22.098200
20
83.036700
11
22.098200
21
78.260400
0
LINE
8
Top_(Footprint)
10
22.098200
20
78.260400
11
26.896000
21
78.260400
0
LINE
8
Top_(Footprint)
10
26.896000
20
78.260400
11
26.896000
21
83.058200
0
LINE
8
Top_(Footprint)
10
26.896000
20
83.058200
11
22.098200
21
83.058200
0
LINE
8
Top_(Footprint)
10
22.140092
20
83.015756
11
26.853500
21
83.015800
0
LINE
8
Top_(Footprint)
10
26.853500
20
83.015800
11
26.853500
21
78.302300
0
LINE
8
Top_(Footprint)
10
26.853500
20
78.302300
11
22.140100
21
78.302300
0
LINE
8
Top_(Footprint)
10
22.140100
20
78.302300
11
22.140092
21
83.015756
0
LINE
8
Top_(Footprint)
10
0.130087
20
79.437300
11
0.130087
21
79.421900
0
LINE
8
Top_(Footprint)
10
0.130087
20
79.421900
11
0.130087
21
71.551600
0
LINE
8
Top_(Footprint)
10
0.130087
20
71.551600
11
1.628840
21
71.551600
0
LINE
8
Top_(Footprint)
10
1.628840
20
71.551600
11
1.628840
21
79.437300
0
LINE
8
Top_(Footprint)
10
1.628840
20
79.437300
11
0.130087
21
79.437300
0
LINE
8
Top_(Footprint)
10
0.159853
20
79.406983
11
1.598520
21
79.407000
0
LINE
8
Top_(Footprint)
10
1.598520
20
79.407000
11
1.598520
21
71.581900
0
LINE
8
Top_(Footprint)
10
1.598520
20
71.581900
11
0.159852
21
71.581900
0
LINE
8
Top_(Footprint)
10
0.159852
20
71.581900
11
0.159853
21
79.406983
0
LINE
8
Top_(Footprint)
10
5.700660
20
77.737900
11
5.700660
21
77.716900
0
LINE
8
Top_(Footprint)
10
5.700660
20
77.716900
11
5.700660
21
72.940100
0
LINE
8
Top_(Footprint)
10
5.700660
20
72.940100
11
10.498400
21
72.940100
0
LINE
8
Top_(Footprint)
10
10.498400
20
72.940100
11
10.498400
21
77.737900
0
LINE
8
Top_(Footprint)
10
10.498400
20
77.737900
11
5.700660
21
77.737900
0
LINE
8
Top_(Footprint)
10
5.743103
20
77.696007
11
10.456500
21
77.696000
0
LINE
8
Top_(Footprint)
10
10.456500
20
77.696000
11
10.456500
21
72.982600
0
LINE
8
Top_(Footprint)
10
10.456500
20
72.982600
11
5.743110
21
72.982600
0
LINE
8
Top_(Footprint)
10
5.743110
20
72.982600
11
5.743103
21
77.696007
0
LINE
8
Layer 1
10
12.939500
20
73.755700
11
12.939500
21
73.780200
0
LINE
8
Layer 1
10
12.939500
20
73.780200
11
12.958500
21
73.780200
0
LINE
8
Layer 1
10
12.958500
20
73.780200
11
13.011392
21
73.787199
0
LINE
8
Layer 1
10
13.011392
20
73.787199
11
13.021504
21
73.817923
0
LINE
8
Layer 1
10
13.021504
20
73.817923
11
13.021500
21
74.235200
0
LINE
8
Layer 1
10
13.021500
20
74.235200
11
13.011388
21
74.265146
0
LINE
8
Layer 1
10
13.011388
20
74.265146
11
12.958496
21
74.272535
0
LINE
8
Layer 1
10
12.958496
20
74.272535
11
12.939500
21
74.272500
0
LINE
8
Layer 1
10
12.939500
20
74.272500
11
12.939500
21
74.297400
0
LINE
8
Layer 1
10
12.939500
20
74.297400
11
13.387900
21
74.297400
0
LINE
8
Layer 1
10
13.387900
20
74.297400
11
13.410068
21
74.118111
0
LINE
8
Layer 1
10
13.410068
20
74.118111
11
13.390200
21
74.118100
0
LINE
8
Layer 1
10
13.390200
20
74.118100
11
13.377365
21
74.189660
0
LINE
8
Layer 1
10
13.377365
20
74.189660
11
13.352862
21
74.236329
0
LINE
8
Layer 1
10
13.352862
20
74.236329
11
13.307359
21
74.264331
0
LINE
8
Layer 1
10
13.307359
20
74.264331
11
13.233855
21
74.272499
0
LINE
8
Layer 1
10
13.233855
20
74.272499
11
13.131200
21
74.272500
0
LINE
8
Layer 1
10
13.131200
20
74.272500
11
13.098142
21
74.266666
0
LINE
8
Layer 1
10
13.098142
20
74.266666
11
13.092309
21
74.240609
0
LINE
8
Layer 1
10
13.092309
20
74.240609
11
13.092300
21
74.049700
0
LINE
8
Layer 1
10
13.092300
20
74.049700
11
13.163900
21
74.049700
0
LINE
8
Layer 1
10
13.163900
20
74.049700
11
13.234293
21
74.068756
0
LINE
8
Layer 1
10
13.234293
20
74.068756
11
13.249849
21
74.142649
0
LINE
8
Layer 1
10
13.249849
20
74.142649
11
13.270000
21
74.142600
0
LINE
8
Layer 1
10
13.270000
20
74.142600
11
13.270000
21
73.931800
0
LINE
8
Layer 1
10
13.270000
20
73.931800
11
13.249800
21
73.931800
0
LINE
8
Layer 1
10
13.249800
20
73.931800
11
13.234244
21
74.005304
0
LINE
8
Layer 1
10
13.234244
20
74.005304
11
13.163851
21
74.024749
0
LINE
8
Layer 1
10
13.163851
20
74.024749
11
13.092300
21
74.024800
0
LINE
8
Layer 1
10
13.092300
20
74.024800
11
13.092300
21
73.812100
0
LINE
8
Layer 1
10
13.092300
20
73.812100
11
13.098134
21
73.785653
0
LINE
8
Layer 1
10
13.098134
20
73.785653
11
13.131191
21
73.780209
0
LINE
8
Layer 1
10
13.131191
20
73.780209
11
13.237400
21
73.780200
0
LINE
8
Layer 1
10
13.237400
20
73.780200
11
13.296515
21
73.784478
0
LINE
8
Layer 1
10
13.296515
20
73.784478
11
13.339295
21
73.800035
0
LINE
8
Layer 1
10
13.339295
20
73.800035
11
13.368464
21
73.824148
0
LINE
8
Layer 1
10
13.368464
20
73.824148
11
13.388688
21
73.859927
0
LINE
8
Layer 1
10
13.388688
20
73.859927
11
13.401910
21
73.904652
0
LINE
8
Layer 1
10
13.401910
20
73.904652
11
13.412411
21
73.961045
0
LINE
8
Layer 1
10
13.412411
20
73.961045
11
13.432200
21
73.961000
0
LINE
8
Layer 1
10
13.432200
20
73.961000
11
13.398754
21
73.755654
0
LINE
8
Layer 1
10
13.398754
20
73.755654
11
12.939500
21
73.755700
0
LINE
8
Layer 1
10
13.480800
20
73.766200
11
13.480800
21
73.871200
0
LINE
8
Layer 1
10
13.480800
20
73.871200
11
13.481195
21
73.883257
0
LINE
8
Layer 1
10
13.481195
20
73.883257
11
13.483904
21
73.888701
0
LINE
8
Layer 1
10
13.483904
20
73.888701
11
13.490906
21
73.891043
0
LINE
8
Layer 1
10
13.490906
20
73.891043
11
13.498295
21
73.888701
0
LINE
8
Layer 1
10
13.498295
20
73.888701
11
13.502184
21
73.877423
0
LINE
8
Layer 1
10
13.502184
20
73.877423
11
13.539908
21
73.793418
0
LINE
8
Layer 1
10
13.539908
20
73.793418
11
13.613024
21
73.764638
0
LINE
8
Layer 1
10
13.613024
20
73.764638
11
13.680306
21
73.784473
0
LINE
8
Layer 1
10
13.680306
20
73.784473
11
13.702864
21
73.836976
0
LINE
8
Layer 1
10
13.702864
20
73.836976
11
13.620025
21
73.910092
0
LINE
8
Layer 1
10
13.620025
20
73.910092
11
13.552354
21
73.926037
0
LINE
8
Layer 1
10
13.552354
20
73.926037
11
13.515019
21
73.947037
0
LINE
8
Layer 1
10
13.515019
20
73.947037
11
13.480795
21
74.014708
0
LINE
8
Layer 1
10
13.480795
20
74.014708
11
13.510741
21
74.083545
0
LINE
8
Layer 1
10
13.510741
20
74.083545
11
13.607969
21
74.112714
0
LINE
8
Layer 1
10
13.607969
20
74.112714
11
13.683029
21
74.090156
0
LINE
8
Layer 1
10
13.683029
20
74.090156
11
13.696641
21
74.102991
0
LINE
8
Layer 1
10
13.696641
20
74.102991
11
13.712586
21
74.112714
0
LINE
8
Layer 1
10
13.712586
20
74.112714
11
13.719975
21
74.108435
0
LINE
8
Layer 1
10
13.719975
20
74.108435
11
13.721132
21
74.093269
0
LINE
8
Layer 1
10
13.721132
20
74.093269
11
13.721200
21
74.013100
0
LINE
8
Layer 1
10
13.721200
20
74.013100
11
13.720805
21
74.001043
0
LINE
8
Layer 1
10
13.720805
20
74.001043
11
13.718096
21
73.995599
0
LINE
8
Layer 1
10
13.718096
20
73.995599
11
13.710707
21
73.993652
0
LINE
8
Layer 1
10
13.710707
20
73.993652
11
13.701374
21
74.001041
0
LINE
8
Layer 1
10
13.701374
20
74.001041
11
13.608035
21
74.097491
0
LINE
8
Layer 1
10
13.608035
20
74.097491
11
13.539975
21
74.079211
0
LINE
8
Layer 1
10
13.539975
20
74.079211
11
13.518975
21
74.036820
0
LINE
8
Layer 1
10
13.518975
20
74.036820
11
13.525198
21
74.012707
0
LINE
8
Layer 1
10
13.525198
20
74.012707
11
13.539978
21
73.996372
0
LINE
8
Layer 1
10
13.539978
20
73.996372
11
13.564091
21
73.984705
0
LINE
8
Layer 1
10
13.564091
20
73.984705
11
13.588980
21
73.977316
0
LINE
8
Layer 1
10
13.588980
20
73.977316
11
13.616982
21
73.971483
0
LINE
8
Layer 1
10
13.616982
20
73.971483
11
13.707599
21
73.933369
0
LINE
8
Layer 1
10
13.707599
20
73.933369
11
13.741045
21
73.857531
0
LINE
8
Layer 1
10
13.741045
20
73.857531
11
13.709154
21
73.778582
0
LINE
8
Layer 1
10
13.709154
20
73.778582
11
13.613093
21
73.746692
0
LINE
8
Layer 1
10
13.613093
20
73.746692
11
13.525199
21
73.781305
0
LINE
8
Layer 1
10
13.525199
20
73.781305
11
13.517031
21
73.772358
0
LINE
8
Layer 1
10
13.517031
20
73.772358
11
13.511977
21
73.766914
0
LINE
8
Layer 1
10
13.511977
20
73.766914
11
13.510425
21
73.764205
0
LINE
8
Layer 1
10
13.510425
20
73.764205
11
13.509267
21
73.762653
0
LINE
8
Layer 1
10
13.509267
20
73.762653
11
13.489433
21
73.746707
0
LINE
8
Layer 1
10
13.489433
20
73.746707
11
13.482044
21
73.750986
0
LINE
8
Layer 1
10
13.482044
20
73.750986
11
13.480887
21
73.766152
0
LINE
8
Layer 1
10
13.480887
20
73.766152
11
13.480800
21
73.766200
0
LINE
8
Layer 1
10
13.783000
20
74.074200
11
13.783000
21
74.091700
0
LINE
8
Layer 1
10
13.783000
20
74.091700
11
13.843670
21
74.118923
0
LINE
8
Layer 1
10
13.843670
20
74.118923
11
13.876339
21
74.176871
0
LINE
8
Layer 1
10
13.876339
20
74.176871
11
13.885672
21
74.245709
0
LINE
8
Layer 1
10
13.885672
20
74.245709
11
13.905500
21
74.245700
0
LINE
8
Layer 1
10
13.905500
20
74.245700
11
13.905500
21
74.099100
0
LINE
8
Layer 1
10
13.905500
20
74.099100
11
14.019500
21
74.099100
0
LINE
8
Layer 1
10
14.019500
20
74.099100
11
14.019500
21
74.074200
0
LINE
8
Layer 1
10
14.019500
20
74.074200
11
13.905500
21
74.074200
0
LINE
8
Layer 1
10
13.905500
20
74.074200
11
13.905500
21
73.852900
0
LINE
8
Layer 1
10
13.905500
20
73.852900
11
13.959170
21
73.766950
0
LINE
8
Layer 1
10
13.959170
20
73.766950
11
13.997283
21
73.790284
0
LINE
8
Layer 1
10
13.997283
20
73.790284
11
14.012450
21
73.856010
0
LINE
8
Layer 1
10
14.012450
20
73.856010
11
14.012500
21
73.900000
0
LINE
8
Layer 1
10
14.012500
20
73.900000
11
14.032300
21
73.900000
0
LINE
8
Layer 1
10
14.032300
20
73.900000
11
14.032300
21
73.854500
0
LINE
8
Layer 1
10
14.032300
20
73.854500
11
14.012465
21
73.779051
0
LINE
8
Layer 1
10
14.012465
20
73.779051
11
13.953351
21
73.746771
0
LINE
8
Layer 1
10
13.953351
20
73.746771
11
13.924571
21
73.750660
0
LINE
8
Layer 1
10
13.924571
20
73.750660
11
13.891903
21
73.763493
0
LINE
8
Layer 1
10
13.891903
20
73.763493
11
13.861956
21
73.796551
0
LINE
8
Layer 1
10
13.861956
20
73.796551
11
13.850679
21
73.854499
0
LINE
8
Layer 1
10
13.850679
20
73.854499
11
13.850700
21
74.074200
0
LINE
8
Layer 1
10
13.850700
20
74.074200
11
13.783000
21
74.074200
0
LINE
8
Layer 1
10
14.102300
20
74.074200
11
14.102300
21
74.099100
0
LINE
8
Layer 1
10
14.102300
20
74.099100
11
14.219363
21
74.107657
0
LINE
8
Layer 1
10
14.219363
20
74.107657
11
14.219400
21
73.843200
0
LINE
8
Layer 1
10
14.219400
20
73.843200
11
14.220952
21
73.812865
0
LINE
8
Layer 1
10
14.220952
20
73.812865
11
14.228730
21
73.789141
0
LINE
8
Layer 1
10
14.228730
20
73.789141
11
14.250120
21
73.770472
0
LINE
8
Layer 1
10
14.250120
20
73.770472
11
14.289400
21
73.764639
0
LINE
8
Layer 1
10
14.289400
20
73.764639
11
14.359015
21
73.800030
0
LINE
8
Layer 1
10
14.359015
20
73.800030
11
14.385849
21
73.887924
0
LINE
8
Layer 1
10
14.385849
20
73.887924
11
14.385800
21
74.029900
0
LINE
8
Layer 1
10
14.385800
20
74.029900
11
14.375298
21
74.066846
0
LINE
8
Layer 1
10
14.375298
20
74.066846
11
14.323573
21
74.074235
0
LINE
8
Layer 1
10
14.323573
20
74.074235
11
14.323600
21
74.099100
0
LINE
8
Layer 1
10
14.323600
20
74.099100
11
14.440663
21
74.107657
0
LINE
8
Layer 1
10
14.440663
20
74.107657
11
14.440600
21
73.824900
0
LINE
8
Layer 1
10
14.440600
20
73.824900
11
14.450712
21
73.787564
0
LINE
8
Layer 1
10
14.450712
20
73.787564
11
14.502826
21
73.780176
0
LINE
8
Layer 1
10
14.502826
20
73.780176
11
14.502900
21
73.755700
0
LINE
8
Layer 1
10
14.502900
20
73.755700
11
14.388171
21
73.746756
0
LINE
8
Layer 1
10
14.388171
20
73.746756
11
14.388100
21
73.818700
0
LINE
8
Layer 1
10
14.388100
20
73.818700
11
14.285427
21
73.746752
0
LINE
8
Layer 1
10
14.285427
20
73.746752
11
14.226313
21
73.755695
0
LINE
8
Layer 1
10
14.226313
20
73.755695
11
14.190532
21
73.775530
0
LINE
8
Layer 1
10
14.190532
20
73.775530
11
14.171863
21
73.808198
0
LINE
8
Layer 1
10
14.171863
20
73.808198
11
14.164864
21
73.842812
0
LINE
8
Layer 1
10
14.164864
20
73.842812
11
14.164074
21
73.881703
0
LINE
8
Layer 1
10
14.164074
20
73.881703
11
14.164100
21
74.001100
0
LINE
8
Layer 1
10
14.164100
20
74.001100
11
14.156322
21
74.064493
0
LINE
8
Layer 1
10
14.156322
20
74.064493
11
14.102263
21
74.074215
0
LINE
8
Layer 1
10
14.102263
20
74.074215
11
14.102300
21
74.074200
0
LINE
8
Layer 1
10
14.544900
20
74.074200
11
14.544900
21
74.099100
0
LINE
8
Layer 1
10
14.544900
20
74.099100
11
14.607500
21
74.099100
0
LINE
8
Layer 1
10
14.607500
20
74.099100
11
14.607500
21
74.190500
0
LINE
8
Layer 1
10
14.607500
20
74.190500
11
14.645613
21
74.283450
0
LINE
8
Layer 1
10
14.645613
20
74.283450
11
14.731174
21
74.317285
0
LINE
8
Layer 1
10
14.731174
20
74.317285
11
14.782510
21
74.300561
0
LINE
8
Layer 1
10
14.782510
20
74.300561
11
14.802734
21
74.261281
0
LINE
8
Layer 1
10
14.802734
20
74.261281
11
14.793401
21
74.236002
0
LINE
8
Layer 1
10
14.793401
20
74.236002
11
14.767733
21
74.226280
0
LINE
8
Layer 1
10
14.767733
20
74.226280
11
14.742455
21
74.236392
0
LINE
8
Layer 1
10
14.742455
20
74.236392
11
14.733511
21
74.260505
0
LINE
8
Layer 1
10
14.733511
20
74.260505
11
14.757235
21
74.293951
0
LINE
8
Layer 1
10
14.757235
20
74.293951
11
14.731177
21
74.299785
0
LINE
8
Layer 1
10
14.731177
20
74.299785
11
14.679841
21
74.270228
0
LINE
8
Layer 1
10
14.679841
20
74.270228
11
14.657672
21
74.191278
0
LINE
8
Layer 1
10
14.657672
20
74.191278
11
14.657700
21
74.099100
0
LINE
8
Layer 1
10
14.657700
20
74.099100
11
14.751000
21
74.099100
0
LINE
8
Layer 1
10
14.751000
20
74.099100
11
14.751000
21
74.074200
0
LINE
8
Layer 1
10
14.751000
20
74.074200
11
14.660400
21
74.074200
0
LINE
8
Layer 1
10
14.660400
20
74.074200
11
14.660400
21
73.817900
0
LINE
8
Layer 1
10
14.660400
20
73.817900
11
14.669733
21
73.787565
0
LINE
8
Layer 1
10
14.669733
20
73.787565
11
14.720681
21
73.780176
0
LINE
8
Layer 1
10
14.720681
20
73.780176
11
14.737400
21
73.780200
0
LINE
8
Layer 1
10
14.737400
20
73.780200
11
14.737400
21
73.755700
0
LINE
8
Layer 1
10
14.737400
20
73.755700
11
14.636283
21
73.758042
0
LINE
8
Layer 1
10
14.636283
20
73.758042
11
14.611394
21
73.757647
0
LINE
8
Layer 1
10
14.611394
20
73.757647
11
14.576392
21
73.756490
0
LINE
8
Layer 1
10
14.576392
20
73.756490
11
14.545668
21
73.755700
0
LINE
8
Layer 1
10
14.545668
20
73.755700
11
14.545700
21
73.780200
0
LINE
8
Layer 1
10
14.545700
20
73.780200
11
14.597814
21
73.785255
0
LINE
8
Layer 1
10
14.597814
20
73.785255
11
14.607537
21
73.816368
0
LINE
8
Layer 1
10
14.607537
20
73.816368
11
14.607500
21
74.074200
0
LINE
8
Layer 1
10
14.607500
20
74.074200
11
14.544900
21
74.074200
0
LINE
8
Layer 1
10
14.794600
20
73.831500
11
14.874327
21
73.934950
0
LINE
8
Layer 1
10
14.874327
20
73.934950
11
15.020947
21
73.963730
0
LINE
8
Layer 1
10
15.020947
20
73.963730
11
15.020900
21
73.992900
0
LINE
8
Layer 1
10
15.020900
20
73.992900
11
14.994842
21
74.068349
0
LINE
8
Layer 1
10
14.994842
20
74.068349
11
14.936506
21
74.094796
0
LINE
8
Layer 1
10
14.936506
20
74.094796
11
14.850167
21
74.058238
0
LINE
8
Layer 1
10
14.850167
20
74.058238
11
14.882447
21
74.045403
0
LINE
8
Layer 1
10
14.882447
20
74.045403
11
14.891004
21
74.021679
0
LINE
8
Layer 1
10
14.891004
20
74.021679
11
14.880892
21
73.995232
0
LINE
8
Layer 1
10
14.880892
20
73.995232
11
14.854445
21
73.985120
0
LINE
8
Layer 1
10
14.854445
20
73.985120
11
14.827998
21
73.994842
0
LINE
8
Layer 1
10
14.827998
20
73.994842
11
14.817496
21
74.022455
0
LINE
8
Layer 1
10
14.817496
20
74.022455
11
14.852498
21
74.087014
0
LINE
8
Layer 1
10
14.852498
20
74.087014
11
14.938059
21
74.112683
0
LINE
8
Layer 1
10
14.938059
20
74.112683
11
15.046954
21
74.068736
0
LINE
8
Layer 1
10
15.046954
20
74.068736
11
15.067178
21
74.037623
0
LINE
8
Layer 1
10
15.067178
20
74.037623
11
15.074956
21
74.008454
0
LINE
8
Layer 1
10
15.074956
20
74.008454
11
15.075746
21
73.974619
0
LINE
8
Layer 1
10
15.075746
20
73.974619
11
15.075800
21
73.815600
0
LINE
8
Layer 1
10
15.075800
20
73.815600
11
15.077352
21
73.803154
0
LINE
8
Layer 1
10
15.077352
20
73.803154
11
15.085909
21
73.785264
0
LINE
8
Layer 1
10
15.085909
20
73.785264
11
15.105354
21
73.775541
0
LINE
8
Layer 1
10
15.105354
20
73.775541
11
15.133745
21
73.826489
0
LINE
8
Layer 1
10
15.133745
20
73.826489
11
15.133700
21
73.871200
0
LINE
8
Layer 1
10
15.133700
20
73.871200
11
15.153900
21
73.871200
0
LINE
8
Layer 1
10
15.153900
20
73.871200
11
15.153900
21
73.826500
0
LINE
8
Layer 1
10
15.153900
20
73.826500
11
15.131342
21
73.767385
0
LINE
8
Layer 1
10
15.131342
20
73.767385
11
15.088562
21
73.751050
0
LINE
8
Layer 1
10
15.088562
20
73.751050
11
15.045393
21
73.770495
0
LINE
8
Layer 1
10
15.045393
20
73.770495
11
15.026337
21
73.816387
0
LINE
8
Layer 1
10
15.026337
20
73.816387
11
14.986668
21
73.766217
0
LINE
8
Layer 1
10
14.986668
20
73.766217
11
14.922108
21
73.746772
0
LINE
8
Layer 1
10
14.922108
20
73.746772
11
14.866105
21
73.754161
0
LINE
8
Layer 1
10
14.866105
20
73.754161
11
14.816713
21
73.780994
0
LINE
8
Layer 1
10
14.816713
20
73.780994
11
14.794545
21
73.831553
0
LINE
8
Layer 1
10
14.794545
20
73.831553
11
14.794600
21
73.831500
0
LINE
8
Layer 1
10
14.856048
20
73.832290
11
14.877048
21
73.783676
0
LINE
8
Layer 1
10
14.877048
20
73.783676
11
14.927607
21
73.764620
0
LINE
8
Layer 1
10
14.927607
20
73.764620
11
14.991000
21
73.790289
0
LINE
8
Layer 1
10
14.991000
20
73.790289
11
15.020946
21
73.867293
0
LINE
8
Layer 1
10
15.020946
20
73.867293
11
15.020900
21
73.947000
0
LINE
8
Layer 1
10
15.020900
20
73.947000
11
14.894115
21
73.908498
0
LINE
8
Layer 1
10
14.894115
20
73.908498
11
14.856001
21
73.832271
0
LINE
8
Layer 1
10
14.856001
20
73.832271
11
14.856048
21
73.832290
0
LINE
8
Layer 1
10
15.450700
20
73.755700
11
15.450700
21
73.780200
0
LINE
8
Layer 1
10
15.450700
20
73.780200
11
15.502814
21
73.785255
0
LINE
8
Layer 1
10
15.502814
20
73.785255
11
15.512537
21
73.816368
0
LINE
8
Layer 1
10
15.512537
20
73.816368
11
15.512500
21
74.230500
0
LINE
8
Layer 1
10
15.512500
20
74.230500
11
15.501998
21
74.267447
0
LINE
8
Layer 1
10
15.501998
20
74.267447
11
15.450662
21
74.274835
0
LINE
8
Layer 1
10
15.450662
20
74.274835
11
15.450700
21
74.299800
0
LINE
8
Layer 1
10
15.450700
20
74.299800
11
15.565040
21
74.308357
0
LINE
8
Layer 1
10
15.565040
20
74.308357
11
15.565000
21
73.816300
0
LINE
8
Layer 1
10
15.565000
20
73.816300
11
15.575112
21
73.785187
0
LINE
8
Layer 1
10
15.575112
20
73.785187
11
15.627226
21
73.780132
0
LINE
8
Layer 1
10
15.627226
20
73.780132
11
15.627200
21
73.755700
0
LINE
8
Layer 1
10
15.627200
20
73.755700
11
15.597254
21
73.756490
0
LINE
8
Layer 1
10
15.597254
20
73.756490
11
15.562252
21
73.757647
0
LINE
8
Layer 1
10
15.562252
20
73.757647
11
15.538918
21
73.758042
0
LINE
8
Layer 1
10
15.538918
20
73.758042
11
15.450634
21
73.755700
0
LINE
8
Layer 1
10
15.450634
20
73.755700
11
15.450700
21
73.755700
0
LINE
8
Layer 1
10
15.678200
20
73.831500
11
15.757927
21
73.934950
0
LINE
8
Layer 1
10
15.757927
20
73.934950
11
15.904547
21
73.963730
0
LINE
8
Layer 1
10
15.904547
20
73.963730
11
15.904500
21
73.992900
0
LINE
8
Layer 1
10
15.904500
20
73.992900
11
15.878442
21
74.068349
0
LINE
8
Layer 1
10
15.878442
20
74.068349
11
15.820105
21
74.094796
0
LINE
8
Layer 1
10
15.820105
20
74.094796
11
15.733767
21
74.058238
0
LINE
8
Layer 1
10
15.733767
20
74.058238
11
15.766047
21
74.045403
0
LINE
8
Layer 1
10
15.766047
20
74.045403
11
15.774604
21
74.021679
0
LINE
8
Layer 1
10
15.774604
20
74.021679
11
15.764492
21
73.995232
0
LINE
8
Layer 1
10
15.764492
20
73.995232
11
15.738045
21
73.985120
0
LINE
8
Layer 1
10
15.738045
20
73.985120
11
15.711598
21
73.994842
0
LINE
8
Layer 1
10
15.711598
20
73.994842
11
15.701096
21
74.022455
0
LINE
8
Layer 1
10
15.701096
20
74.022455
11
15.736098
21
74.087014
0
LINE
8
Layer 1
10
15.736098
20
74.087014
11
15.821659
21
74.112683
0
LINE
8
Layer 1
10
15.821659
20
74.112683
11
15.930554
21
74.068736
0
LINE
8
Layer 1
10
15.930554
20
74.068736
11
15.950778
21
74.037623
0
LINE
8
Layer 1
10
15.950778
20
74.037623
11
15.958556
21
74.008454
0
LINE
8
Layer 1
10
15.958556
20
74.008454
11
15.959346
21
73.974619
0
LINE
8
Layer 1
10
15.959346
20
73.974619
11
15.959400
21
73.815600
0
LINE
8
Layer 1
10
15.959400
20
73.815600
11
15.960952
21
73.803154
0
LINE
8
Layer 1
10
15.960952
20
73.803154
11
15.969509
21
73.785264
0
LINE
8
Layer 1
10
15.969509
20
73.785264
11
15.988954
21
73.775541
0
LINE
8
Layer 1
10
15.988954
20
73.775541
11
16.017345
21
73.826489
0
LINE
8
Layer 1
10
16.017345
20
73.826489
11
16.017300
21
73.871200
0
LINE
8
Layer 1
10
16.017300
20
73.871200
11
16.037500
21
73.871200
0
LINE
8
Layer 1
10
16.037500
20
73.871200
11
16.037500
21
73.826500
0
LINE
8
Layer 1
10
16.037500
20
73.826500
11
16.014942
21
73.767385
0
LINE
8
Layer 1
10
16.014942
20
73.767385
11
15.972161
21
73.751050
0
LINE
8
Layer 1
10
15.972161
20
73.751050
11
15.928992
21
73.770495
0
LINE
8
Layer 1
10
15.928992
20
73.770495
11
15.909937
21
73.816387
0
LINE
8
Layer 1
10
15.909937
20
73.816387
11
15.870268
21
73.766217
0
LINE
8
Layer 1
10
15.870268
20
73.766217
11
15.805708
21
73.746772
0
LINE
8
Layer 1
10
15.805708
20
73.746772
11
15.749705
21
73.754161
0
LINE
8
Layer 1
10
15.749705
20
73.754161
11
15.700313
21
73.780994
0
LINE
8
Layer 1
10
15.700313
20
73.780994
11
15.678144
21
73.831553
0
LINE
8
Layer 1
10
15.678144
20
73.831553
11
15.678200
21
73.831500
0
LINE
8
Layer 1
10
15.739648
20
73.832290
11
15.760648
21
73.783676
0
LINE
8
Layer 1
10
15.760648
20
73.783676
11
15.811207
21
73.764620
0
LINE
8
Layer 1
10
15.811207
20
73.764620
11
15.874600
21
73.790289
0
LINE
8
Layer 1
10
15.874600
20
73.790289
11
15.904546
21
73.867293
0
LINE
8
Layer 1
10
15.904546
20
73.867293
11
15.904500
21
73.947000
0
LINE
8
Layer 1
10
15.904500
20
73.947000
11
15.777715
21
73.908498
0
LINE
8
Layer 1
10
15.777715
20
73.908498
11
15.739602
21
73.832271
0
LINE
8
Layer 1
10
15.739602
20
73.832271
11
15.739648
21
73.832290
0
LINE
8
Layer 1
10
16.065100
20
74.274900
11
16.065100
21
74.299800
0
LINE
8
Layer 1
10
16.065100
20
74.299800
11
16.179829
21
74.308357
0
LINE
8
Layer 1
10
16.179829
20
74.308357
11
16.179900
21
74.055900
0
LINE
8
Layer 1
10
16.179900
20
74.055900
11
16.289185
21
74.107625
0
LINE
8
Layer 1
10
16.289185
20
74.107625
11
16.407803
21
74.055122
0
LINE
8
Layer 1
10
16.407803
20
74.055122
11
16.457973
21
73.927559
0
LINE
8
Layer 1
10
16.457973
20
73.927559
11
16.405470
21
73.799218
0
LINE
8
Layer 1
10
16.405470
20
73.799218
11
16.280240
21
73.746715
0
LINE
8
Layer 1
10
16.280240
20
73.746715
11
16.176011
21
73.805052
0
LINE
8
Layer 1
10
16.176011
20
73.805052
11
16.147231
21
73.755660
0
LINE
8
Layer 1
10
16.147231
20
73.755660
11
16.127400
21
73.755700
0
LINE
8
Layer 1
10
16.127400
20
73.755700
11
16.127400
21
74.230500
0
LINE
8
Layer 1
10
16.127400
20
74.230500
11
16.116899
21
74.267447
0
LINE
8
Layer 1
10
16.116899
20
74.267447
11
16.065173
21
74.274835
0
LINE
8
Layer 1
10
16.065173
20
74.274835
11
16.065100
21
74.274900
0
LINE
8
Layer 1
10
16.182163
20
73.846319
11
16.193441
21
73.812873
0
LINE
8
Layer 1
10
16.193441
20
73.812873
11
16.276279
21
73.764647
0
LINE
8
Layer 1
10
16.276279
20
73.764647
11
16.277069
21
73.764647
0
LINE
8
Layer 1
10
16.277069
20
73.764647
11
16.367297
21
73.815595
0
LINE
8
Layer 1
10
16.367297
20
73.815595
11
16.391800
21
73.928380
0
LINE
8
Layer 1
10
16.391800
20
73.928380
11
16.368855
21
74.039220
0
LINE
8
Layer 1
10
16.368855
20
74.039220
11
16.285239
21
74.090168
0
LINE
8
Layer 1
10
16.285239
20
74.090168
11
16.191122
21
74.039220
0
LINE
8
Layer 1
10
16.191122
20
74.039220
11
16.182178
21
74.010441
0
LINE
8
Layer 1
10
16.182178
20
74.010441
11
16.182163
21
73.846319
0
LINE
8
Layer 1
10
16.581600
20
73.798500
11
16.529097
21
73.926063
0
LINE
8
Layer 1
10
16.529097
20
73.926063
11
16.580433
21
74.057126
0
LINE
8
Layer 1
10
16.580433
20
74.057126
11
16.706052
21
74.112740
0
LINE
8
Layer 1
10
16.706052
20
74.112740
11
16.830115
21
74.057515
0
LINE
8
Layer 1
10
16.830115
20
74.057515
11
16.882230
21
73.926063
0
LINE
8
Layer 1
10
16.882230
20
73.926063
11
16.829726
21
73.798888
0
LINE
8
Layer 1
10
16.829726
20
73.798888
11
16.705274
21
73.746774
0
LINE
8
Layer 1
10
16.705274
20
73.746774
11
16.581600
21
73.798499
0
LINE
8
Layer 1
10
16.581600
20
73.798499
11
16.581600
21
73.798500
0
LINE
8
Layer 1
10
16.595212
20
73.932675
11
16.615436
21
73.820280
0
LINE
8
Layer 1
10
16.615436
20
73.820280
11
16.706052
21
73.766999
0
LINE
8
Layer 1
10
16.706052
20
73.766999
11
16.760111
21
73.782944
0
LINE
8
Layer 1
10
16.760111
20
73.782944
11
16.798613
21
73.825725
0
LINE
8
Layer 1
10
16.798613
20
73.825725
11
16.816114
21
73.932676
0
LINE
8
Layer 1
10
16.816114
20
73.932676
11
16.795114
21
74.043126
0
LINE
8
Layer 1
10
16.795114
20
74.043126
11
16.705275
21
74.094852
0
LINE
8
Layer 1
10
16.705275
20
74.094852
11
16.654327
21
74.081240
0
LINE
8
Layer 1
10
16.654327
20
74.081240
11
16.614270
21
74.041571
0
LINE
8
Layer 1
10
16.614270
20
74.041571
11
16.595214
21
73.932675
0
LINE
8
Layer 1
10
16.595214
20
73.932675
11
16.595212
21
73.932675
0
LINE
8
Layer 1
10
16.927400
20
73.755700
11
16.927400
21
73.780200
0
LINE
8
Layer 1
10
16.927400
20
73.780200
11
16.979514
21
73.785255
0
LINE
8
Layer 1
10
16.979514
20
73.785255
11
16.989626
21
73.816368
0
LINE
8
Layer 1
10
16.989626
20
73.816368
11
16.989600
21
74.029900
0
LINE
8
Layer 1
10
16.989600
20
74.029900
11
16.979098
21
74.066846
0
LINE
8
Layer 1
10
16.979098
20
74.066846
11
16.927373
21
74.074235
0
LINE
8
Layer 1
10
16.927373
20
74.074235
11
16.927400
21
74.099100
0
LINE
8
Layer 1
10
16.927400
20
74.099100
11
17.038240
21
74.107657
0
LINE
8
Layer 1
10
17.038240
20
74.107657
11
17.038200
21
74.020100
0
LINE
8
Layer 1
10
17.038200
20
74.020100
11
17.073202
21
74.080770
0
LINE
8
Layer 1
10
17.073202
20
74.080770
11
17.136206
21
74.107604
0
LINE
8
Layer 1
10
17.136206
20
74.107604
11
17.178208
21
74.093213
0
LINE
8
Layer 1
10
17.178208
20
74.093213
11
17.194933
21
74.058989
0
LINE
8
Layer 1
10
17.194933
20
74.058989
11
17.184045
21
74.032542
0
LINE
8
Layer 1
10
17.184045
20
74.032542
11
17.160711
21
74.023985
0
LINE
8
Layer 1
10
17.160711
20
74.023985
11
17.136208
21
74.032928
0
LINE
8
Layer 1
10
17.136208
20
74.032928
11
17.126486
21
74.058207
0
LINE
8
Layer 1
10
17.126486
20
74.058207
11
17.130764
21
74.075318
0
LINE
8
Layer 1
10
17.130764
20
74.075318
11
17.138932
21
74.085820
0
LINE
8
Layer 1
10
17.138932
20
74.085820
11
17.144765
21
74.089319
0
LINE
8
Layer 1
10
17.144765
20
74.089319
11
17.136208
21
74.090109
0
LINE
8
Layer 1
10
17.136208
20
74.090109
11
17.066982
21
74.046162
0
LINE
8
Layer 1
10
17.066982
20
74.046162
11
17.042093
21
73.940378
0
LINE
8
Layer 1
10
17.042093
20
73.940378
11
17.042100
21
73.817900
0
LINE
8
Layer 1
10
17.042100
20
73.817900
11
17.051433
21
73.787565
0
LINE
8
Layer 1
10
17.051433
20
73.787565
11
17.102770
21
73.780176
0
LINE
8
Layer 1
10
17.102770
20
73.780176
11
17.119500
21
73.780200
0
LINE
8
Layer 1
10
17.119500
20
73.780200
11
17.119500
21
73.755700
0
LINE
8
Layer 1
10
17.119500
20
73.755700
11
17.018383
21
73.758042
0
LINE
8
Layer 1
10
17.018383
20
73.758042
11
16.993494
21
73.757647
0
LINE
8
Layer 1
10
16.993494
20
73.757647
11
16.958492
21
73.756490
0
LINE
8
Layer 1
10
16.958492
20
73.756490
11
16.927378
21
73.755700
0
LINE
8
Layer 1
10
16.927378
20
73.755700
11
16.927400
21
73.755700
0
LINE
8
Layer 1
10
17.249800
20
73.831500
11
17.329527
21
73.934950
0
LINE
8
Layer 1
10
17.329527
20
73.934950
11
17.476147
21
73.963730
0
LINE
8
Layer 1
10
17.476147
20
73.963730
11
17.476100
21
73.992900
0
LINE
8
Layer 1
10
17.476100
20
73.992900
11
17.450042
21
74.068349
0
LINE
8
Layer 1
10
17.450042
20
74.068349
11
17.391705
21
74.094796
0
LINE
8
Layer 1
10
17.391705
20
74.094796
11
17.305367
21
74.058238
0
LINE
8
Layer 1
10
17.305367
20
74.058238
11
17.337647
21
74.045403
0
LINE
8
Layer 1
10
17.337647
20
74.045403
11
17.346204
21
74.021679
0
LINE
8
Layer 1
10
17.346204
20
74.021679
11
17.336092
21
73.995232
0
LINE
8
Layer 1
10
17.336092
20
73.995232
11
17.309645
21
73.985120
0
LINE
8
Layer 1
10
17.309645
20
73.985120
11
17.283198
21
73.994842
0
LINE
8
Layer 1
10
17.283198
20
73.994842
11
17.272696
21
74.022455
0
LINE
8
Layer 1
10
17.272696
20
74.022455
11
17.307698
21
74.087014
0
LINE
8
Layer 1
10
17.307698
20
74.087014
11
17.393259
21
74.112683
0
LINE
8
Layer 1
10
17.393259
20
74.112683
11
17.502155
21
74.068736
0
LINE
8
Layer 1
10
17.502155
20
74.068736
11
17.522379
21
74.037623
0
LINE
8
Layer 1
10
17.522379
20
74.037623
11
17.530157
21
74.008454
0
LINE
8
Layer 1
10
17.530157
20
74.008454
11
17.530947
21
73.974619
0
LINE
8
Layer 1
10
17.530947
20
73.974619
11
17.531000
21
73.815600
0
LINE
8
Layer 1
10
17.531000
20
73.815600
11
17.532552
21
73.803154
0
LINE
8
Layer 1
10
17.532552
20
73.803154
11
17.541109
21
73.785264
0
LINE
8
Layer 1
10
17.541109
20
73.785264
11
17.560554
21
73.775541
0
LINE
8
Layer 1
10
17.560554
20
73.775541
11
17.588945
21
73.826489
0
LINE
8
Layer 1
10
17.588945
20
73.826489
11
17.588900
21
73.871200
0
LINE
8
Layer 1
10
17.588900
20
73.871200
11
17.609100
21
73.871200
0
LINE
8
Layer 1
10
17.609100
20
73.871200
11
17.609100
21
73.826500
0
LINE
8
Layer 1
10
17.609100
20
73.826500
11
17.586542
21
73.767385
0
LINE
8
Layer 1
10
17.586542
20
73.767385
11
17.543762
21
73.751050
0
LINE
8
Layer 1
10
17.543762
20
73.751050
11
17.500592
21
73.770495
0
LINE
8
Layer 1
10
17.500592
20
73.770495
11
17.481537
21
73.816387
0
LINE
8
Layer 1
10
17.481537
20
73.816387
11
17.441868
21
73.766217
0
LINE
8
Layer 1
10
17.441868
20
73.766217
11
17.377308
21
73.746772
0
LINE
8
Layer 1
10
17.377308
20
73.746772
11
17.321305
21
73.754161
0
LINE
8
Layer 1
10
17.321305
20
73.754161
11
17.271913
21
73.780994
0
LINE
8
Layer 1
10
17.271913
20
73.780994
11
17.249745
21
73.831553
0
LINE
8
Layer 1
10
17.249745
20
73.831553
11
17.249800
21
73.831500
0
LINE
8
Layer 1
10
17.311248
20
73.832290
11
17.332248
21
73.783676
0
LINE
8
Layer 1
10
17.332248
20
73.783676
11
17.382807
21
73.764620
0
LINE
8
Layer 1
10
17.382807
20
73.764620
11
17.446199
21
73.790289
0
LINE
8
Layer 1
10
17.446199
20
73.790289
11
17.476146
21
73.867293
0
LINE
8
Layer 1
10
17.476146
20
73.867293
11
17.476100
21
73.947000
0
LINE
8
Layer 1
10
17.476100
20
73.947000
11
17.349315
21
73.908498
0
LINE
8
Layer 1
10
17.349315
20
73.908498
11
17.311202
21
73.832271
0
LINE
8
Layer 1
10
17.311202
20
73.832271
11
17.311248
21
73.832290
0
LINE
8
Layer 1
10
17.629700
20
74.074200
11
17.629700
21
74.091700
0
LINE
8
Layer 1
10
17.629700
20
74.091700
11
17.690370
21
74.118923
0
LINE
8
Layer 1
10
17.690370
20
74.118923
11
17.723039
21
74.176871
0
LINE
8
Layer 1
10
17.723039
20
74.176871
11
17.732372
21
74.245709
0
LINE
8
Layer 1
10
17.732372
20
74.245709
11
17.752200
21
74.245700
0
LINE
8
Layer 1
10
17.752200
20
74.245700
11
17.752200
21
74.099100
0
LINE
8
Layer 1
10
17.752200
20
74.099100
11
17.866200
21
74.099100
0
LINE
8
Layer 1
10
17.866200
20
74.099100
11
17.866200
21
74.074200
0
LINE
8
Layer 1
10
17.866200
20
74.074200
11
17.752200
21
74.074200
0
LINE
8
Layer 1
10
17.752200
20
74.074200
11
17.752200
21
73.852900
0
LINE
8
Layer 1
10
17.752200
20
73.852900
11
17.805870
21
73.766950
0
LINE
8
Layer 1
10
17.805870
20
73.766950
11
17.843983
21
73.790284
0
LINE
8
Layer 1
10
17.843983
20
73.790284
11
17.859150
21
73.856010
0
LINE
8
Layer 1
10
17.859150
20
73.856010
11
17.859200
21
73.900000
0
LINE
8
Layer 1
10
17.859200
20
73.900000
11
17.879000
21
73.900000
0
LINE
8
Layer 1
10
17.879000
20
73.900000
11
17.879000
21
73.854500
0
LINE
8
Layer 1
10
17.879000
20
73.854500
11
17.859165
21
73.779051
0
LINE
8
Layer 1
10
17.859165
20
73.779051
11
17.800051
21
73.746771
0
LINE
8
Layer 1
10
17.800051
20
73.746771
11
17.771271
21
73.750660
0
LINE
8
Layer 1
10
17.771271
20
73.750660
11
17.738602
21
73.763493
0
LINE
8
Layer 1
10
17.738602
20
73.763493
11
17.708656
21
73.796551
0
LINE
8
Layer 1
10
17.708656
20
73.796551
11
17.697379
21
73.854499
0
LINE
8
Layer 1
10
17.697379
20
73.854499
11
17.697400
21
74.074200
0
LINE
8
Layer 1
10
17.697400
20
74.074200
11
17.629700
21
74.074200
0
LINE
8
Layer 1
10
17.998000
20
73.798500
11
17.945497
21
73.926063
0
LINE
8
Layer 1
10
17.945497
20
73.926063
11
17.996833
21
74.057126
0
LINE
8
Layer 1
10
17.996833
20
74.057126
11
18.122452
21
74.112740
0
LINE
8
Layer 1
10
18.122452
20
74.112740
11
18.246515
21
74.057515
0
LINE
8
Layer 1
10
18.246515
20
74.057515
11
18.298629
21
73.926063
0
LINE
8
Layer 1
10
18.298629
20
73.926063
11
18.246126
21
73.798888
0
LINE
8
Layer 1
10
18.246126
20
73.798888
11
18.121674
21
73.746774
0
LINE
8
Layer 1
10
18.121674
20
73.746774
11
17.998000
21
73.798499
0
LINE
8
Layer 1
10
17.998000
20
73.798499
11
17.998000
21
73.798500
0
LINE
8
Layer 1
10
18.011612
20
73.932675
11
18.031836
21
73.820280
0
LINE
8
Layer 1
10
18.031836
20
73.820280
11
18.122452
21
73.766999
0
LINE
8
Layer 1
10
18.122452
20
73.766999
11
18.176511
21
73.782944
0
LINE
8
Layer 1
10
18.176511
20
73.782944
11
18.215013
21
73.825725
0
LINE
8
Layer 1
10
18.215013
20
73.825725
11
18.232514
21
73.932676
0
LINE
8
Layer 1
10
18.232514
20
73.932676
11
18.211514
21
74.043126
0
LINE
8
Layer 1
10
18.211514
20
74.043126
11
18.121675
21
74.094852
0
LINE
8
Layer 1
10
18.121675
20
74.094852
11
18.070728
21
74.081240
0
LINE
8
Layer 1
10
18.070728
20
74.081240
11
18.030670
21
74.041571
0
LINE
8
Layer 1
10
18.030670
20
74.041571
11
18.011614
21
73.932675
0
LINE
8
Layer 1
10
18.011614
20
73.932675
11
18.011612
21
73.932675
0
LINE
8
Layer 1
10
18.343800
20
73.755700
11
18.343800
21
73.780200
0
LINE
8
Layer 1
10
18.343800
20
73.780200
11
18.395914
21
73.785255
0
LINE
8
Layer 1
10
18.395914
20
73.785255
11
18.406026
21
73.816368
0
LINE
8
Layer 1
10
18.406026
20
73.816368
11
18.406000
21
74.029900
0
LINE
8
Layer 1
10
18.406000
20
74.029900
11
18.395498
21
74.066846
0
LINE
8
Layer 1
10
18.395498
20
74.066846
11
18.343773
21
74.074235
0
LINE
8
Layer 1
10
18.343773
20
74.074235
11
18.343800
21
74.099100
0
LINE
8
Layer 1
10
18.343800
20
74.099100
11
18.454640
21
74.107657
0
LINE
8
Layer 1
10
18.454640
20
74.107657
11
18.454600
21
74.020100
0
LINE
8
Layer 1
10
18.454600
20
74.020100
11
18.489602
21
74.080770
0
LINE
8
Layer 1
10
18.489602
20
74.080770
11
18.552606
21
74.107604
0
LINE
8
Layer 1
10
18.552606
20
74.107604
11
18.594608
21
74.093213
0
LINE
8
Layer 1
10
18.594608
20
74.093213
11
18.611333
21
74.058989
0
LINE
8
Layer 1
10
18.611333
20
74.058989
11
18.600445
21
74.032542
0
LINE
8
Layer 1
10
18.600445
20
74.032542
11
18.577111
21
74.023985
0
LINE
8
Layer 1
10
18.577111
20
74.023985
11
18.552608
21
74.032928
0
LINE
8
Layer 1
10
18.552608
20
74.032928
11
18.542886
21
74.058207
0
LINE
8
Layer 1
10
18.542886
20
74.058207
11
18.547164
21
74.075318
0
LINE
8
Layer 1
10
18.547164
20
74.075318
11
18.555332
21
74.085820
0
LINE
8
Layer 1
10
18.555332
20
74.085820
11
18.561165
21
74.089319
0
LINE
8
Layer 1
10
18.561165
20
74.089319
11
18.552608
21
74.090109
0
LINE
8
Layer 1
10
18.552608
20
74.090109
11
18.483382
21
74.046162
0
LINE
8
Layer 1
10
18.483382
20
74.046162
11
18.458493
21
73.940378
0
LINE
8
Layer 1
10
18.458493
20
73.940378
11
18.458500
21
73.817900
0
LINE
8
Layer 1
10
18.458500
20
73.817900
11
18.467833
21
73.787565
0
LINE
8
Layer 1
10
18.467833
20
73.787565
11
18.519170
21
73.780176
0
LINE
8
Layer 1
10
18.519170
20
73.780176
11
18.535900
21
73.780200
0
LINE
8
Layer 1
10
18.535900
20
73.780200
11
18.535900
21
73.755700
0
LINE
8
Layer 1
10
18.535900
20
73.755700
11
18.434783
21
73.758042
0
LINE
8
Layer 1
10
18.434783
20
73.758042
11
18.409894
21
73.757647
0
LINE
8
Layer 1
10
18.409894
20
73.757647
11
18.374892
21
73.756490
0
LINE
8
Layer 1
10
18.374892
20
73.756490
11
18.343779
21
73.755700
0
LINE
8
Layer 1
10
18.343779
20
73.755700
11
18.343800
21
73.755700
0
LINE
8
Layer 1
10
18.659200
20
73.755700
11
18.659200
21
73.780200
0
LINE
8
Layer 1
10
18.659200
20
73.780200
11
18.711314
21
73.785255
0
LINE
8
Layer 1
10
18.711314
20
73.785255
11
18.721037
21
73.816368
0
LINE
8
Layer 1
10
18.721037
20
73.816368
11
18.721000
21
74.030600
0
LINE
8
Layer 1
10
18.721000
20
74.030600
11
18.710888
21
74.067158
0
LINE
8
Layer 1
10
18.710888
20
74.067158
11
18.662274
21
74.074160
0
LINE
8
Layer 1
10
18.662274
20
74.074160
11
18.662300
21
74.099100
0
LINE
8
Layer 1
10
18.662300
20
74.099100
11
18.773529
21
74.107657
0
LINE
8
Layer 1
10
18.773529
20
74.107657
11
18.773500
21
73.815600
0
LINE
8
Layer 1
10
18.773500
20
73.815600
11
18.782057
21
73.786043
0
LINE
8
Layer 1
10
18.782057
20
73.786043
11
18.829504
21
73.780209
0
LINE
8
Layer 1
10
18.829504
20
73.780209
11
18.829500
21
73.755700
0
LINE
8
Layer 1
10
18.829500
20
73.755700
11
18.746662
21
73.758042
0
LINE
8
Layer 1
10
18.746662
20
73.758042
11
18.659156
21
73.755700
0
LINE
8
Layer 1
10
18.659156
20
73.755700
11
18.659200
21
73.755700
0
LINE
8
Layer 1
10
18.692646
20
74.246507
11
18.704703
21
74.275287
0
LINE
8
Layer 1
10
18.704703
20
74.275287
11
18.734649
21
74.288509
0
LINE
8
Layer 1
10
18.734649
20
74.288509
11
18.764595
21
74.276452
0
LINE
8
Layer 1
10
18.764595
20
74.276452
11
18.777041
21
74.246117
0
LINE
8
Layer 1
10
18.777041
20
74.246117
11
18.764595
21
74.215782
0
LINE
8
Layer 1
10
18.764595
20
74.215782
11
18.734649
21
74.204115
0
LINE
8
Layer 1
10
18.734649
20
74.204115
11
18.704314
21
74.216947
0
LINE
8
Layer 1
10
18.704314
20
74.216947
11
18.692647
21
74.246505
0
LINE
8
Layer 1
10
18.692647
20
74.246505
11
18.692646
21
74.246507
0
LINE
8
Layer 1
10
18.927900
20
73.798500
11
18.875397
21
73.926063
0
LINE
8
Layer 1
10
18.875397
20
73.926063
11
18.926733
21
74.057126
0
LINE
8
Layer 1
10
18.926733
20
74.057126
11
19.052352
21
74.112740
0
LINE
8
Layer 1
10
19.052352
20
74.112740
11
19.176415
21
74.057515
0
LINE
8
Layer 1
10
19.176415
20
74.057515
11
19.228530
21
73.926063
0
LINE
8
Layer 1
10
19.228530
20
73.926063
11
19.176026
21
73.798888
0
LINE
8
Layer 1
10
19.176026
20
73.798888
11
19.051574
21
73.746774
0
LINE
8
Layer 1
10
19.051574
20
73.746774
11
18.927900
21
73.798499
0
LINE
8
Layer 1
10
18.927900
20
73.798499
11
18.927900
21
73.798500
0
LINE
8
Layer 1
10
18.941512
20
73.932675
11
18.961736
21
73.820280
0
LINE
8
Layer 1
10
18.961736
20
73.820280
11
19.052352
21
73.766999
0
LINE
8
Layer 1
10
19.052352
20
73.766999
11
19.106411
21
73.782944
0
LINE
8
Layer 1
10
19.106411
20
73.782944
11
19.144914
21
73.825725
0
LINE
8
Layer 1
10
19.144914
20
73.825725
11
19.162414
21
73.932676
0
LINE
8
Layer 1
10
19.162414
20
73.932676
11
19.141414
21
74.043126
0
LINE
8
Layer 1
10
19.141414
20
74.043126
11
19.051575
21
74.094852
0
LINE
8
Layer 1
10
19.051575
20
74.094852
11
19.000628
21
74.081240
0
LINE
8
Layer 1
10
19.000628
20
74.081240
11
18.960570
21
74.041571
0
LINE
8
Layer 1
10
18.960570
20
74.041571
11
18.941514
21
73.932675
0
LINE
8
Layer 1
10
18.941514
20
73.932675
11
18.941512
21
73.932675
0
LINE
8
Layer 1
10
19.543600
20
73.926800
11
19.596103
21
74.055530
0
LINE
8
Layer 1
10
19.596103
20
74.055530
11
19.719388
21
74.107644
0
LINE
8
Layer 1
10
19.719388
20
74.107644
11
19.773058
21
74.093254
0
LINE
8
Layer 1
10
19.773058
20
74.093254
11
19.808060
21
74.064474
0
LINE
8
Layer 1
10
19.808060
20
74.064474
11
19.826340
21
74.035306
0
LINE
8
Layer 1
10
19.826340
20
74.035306
11
19.856286
21
74.107643
0
LINE
8
Layer 1
10
19.856286
20
74.107643
11
19.874200
21
74.107600
0
LINE
8
Layer 1
10
19.874200
20
74.107600
11
19.874200
21
73.661600
0
LINE
8
Layer 1
10
19.874200
20
73.661600
11
19.883923
21
73.630876
0
LINE
8
Layer 1
10
19.883923
20
73.630876
11
19.936037
21
73.625821
0
LINE
8
Layer 1
10
19.936037
20
73.625821
11
19.936000
21
73.601300
0
LINE
8
Layer 1
10
19.936000
20
73.601300
11
19.846161
21
73.603642
0
LINE
8
Layer 1
10
19.846161
20
73.603642
11
19.756711
21
73.601300
0
LINE
8
Layer 1
10
19.756711
20
73.601300
11
19.756700
21
73.625800
0
LINE
8
Layer 1
10
19.756700
20
73.625800
11
19.808814
21
73.631244
0
LINE
8
Layer 1
10
19.808814
20
73.631244
11
19.818926
21
73.661579
0
LINE
8
Layer 1
10
19.818926
20
73.661579
11
19.818900
21
73.804300
0
LINE
8
Layer 1
10
19.818900
20
73.804300
11
19.713116
21
73.746741
0
LINE
8
Layer 1
10
19.713116
20
73.746741
11
19.593720
21
73.799633
0
LINE
8
Layer 1
10
19.593720
20
73.799633
11
19.543551
21
73.926807
0
LINE
8
Layer 1
10
19.543551
20
73.926807
11
19.543600
21
73.926800
0
LINE
8
Layer 1
10
19.609715
20
73.926800
11
19.640828
21
73.811293
0
LINE
8
Layer 1
10
19.640828
20
73.811293
11
19.716277
21
73.764623
0
LINE
8
Layer 1
10
19.716277
20
73.764623
11
19.789392
21
73.796903
0
LINE
8
Layer 1
10
19.789392
20
73.796903
11
19.821283
21
73.864185
0
LINE
8
Layer 1
10
19.821283
20
73.864185
11
19.821300
21
73.976200
0
LINE
8
Layer 1
10
19.821300
20
73.976200
11
19.794466
21
74.050483
0
LINE
8
Layer 1
10
19.794466
20
74.050483
11
19.724462
21
74.087818
0
LINE
8
Layer 1
10
19.724462
20
74.087818
11
19.644346
21
74.041926
0
LINE
8
Layer 1
10
19.644346
20
74.041926
11
19.609733
21
73.926808
0
LINE
8
Layer 1
10
19.609733
20
73.926808
11
19.609715
21
73.926800
0
LINE
8
Layer 1
10
19.961700
20
74.074200
11
19.961700
21
74.099100
0
LINE
8
Layer 1
10
19.961700
20
74.099100
11
20.078763
21
74.107657
0
LINE
8
Layer 1
10
20.078763
20
74.107657
11
20.078700
21
73.843200
0
LINE
8
Layer 1
10
20.078700
20
73.843200
11
20.080252
21
73.812865
0
LINE
8
Layer 1
10
20.080252
20
73.812865
11
20.088030
21
73.789141
0
LINE
8
Layer 1
10
20.088030
20
73.789141
11
20.109420
21
73.770472
0
LINE
8
Layer 1
10
20.109420
20
73.770472
11
20.148700
21
73.764639
0
LINE
8
Layer 1
10
20.148700
20
73.764639
11
20.218315
21
73.800030
0
LINE
8
Layer 1
10
20.218315
20
73.800030
11
20.245149
21
73.887924
0
LINE
8
Layer 1
10
20.245149
20
73.887924
11
20.245200
21
74.029900
0
LINE
8
Layer 1
10
20.245200
20
74.029900
11
20.234699
21
74.066846
0
LINE
8
Layer 1
10
20.234699
20
74.066846
11
20.182973
21
74.074235
0
LINE
8
Layer 1
10
20.182973
20
74.074235
11
20.182900
21
74.099100
0
LINE
8
Layer 1
10
20.182900
20
74.099100
11
20.299963
21
74.107657
0
LINE
8
Layer 1
10
20.299963
20
74.107657
11
20.300000
21
73.824900
0
LINE
8
Layer 1
10
20.300000
20
73.824900
11
20.310112
21
73.787564
0
LINE
8
Layer 1
10
20.310112
20
73.787564
11
20.362226
21
73.780176
0
LINE
8
Layer 1
10
20.362226
20
73.780176
11
20.362200
21
73.755700
0
LINE
8
Layer 1
10
20.362200
20
73.755700
11
20.247471
21
73.746756
0
LINE
8
Layer 1
10
20.247471
20
73.746756
11
20.247500
21
73.818700
0
LINE
8
Layer 1
10
20.247500
20
73.818700
11
20.144827
21
73.746752
0
LINE
8
Layer 1
10
20.144827
20
73.746752
11
20.085712
21
73.755695
0
LINE
8
Layer 1
10
20.085712
20
73.755695
11
20.049932
21
73.775530
0
LINE
8
Layer 1
10
20.049932
20
73.775530
11
20.031266
21
73.808198
0
LINE
8
Layer 1
10
20.031266
20
73.808198
11
20.024264
21
73.842812
0
LINE
8
Layer 1
10
20.024264
20
73.842812
11
20.023474
21
73.881703
0
LINE
8
Layer 1
10
20.023474
20
73.881703
11
20.023500
21
74.001100
0
LINE
8
Layer 1
10
20.023500
20
74.001100
11
20.015722
21
74.064493
0
LINE
8
Layer 1
10
20.015722
20
74.064493
11
19.961663
21
74.074215
0
LINE
8
Layer 1
10
19.961663
20
74.074215
11
19.961700
21
74.074200
0
LINE
8
Layer 1
10
20.404200
20
73.755700
11
20.404200
21
73.780200
0
LINE
8
Layer 1
10
20.404200
20
73.780200
11
20.456314
21
73.785255
0
LINE
8
Layer 1
10
20.456314
20
73.785255
11
20.466037
21
73.816368
0
LINE
8
Layer 1
10
20.466037
20
73.816368
11
20.466100
21
74.030600
0
LINE
8
Layer 1
10
20.466100
20
74.030600
11
20.455988
21
74.067158
0
LINE
8
Layer 1
10
20.455988
20
74.067158
11
20.407374
21
74.074160
0
LINE
8
Layer 1
10
20.407374
20
74.074160
11
20.407300
21
74.099100
0
LINE
8
Layer 1
10
20.407300
20
74.099100
11
20.518529
21
74.107657
0
LINE
8
Layer 1
10
20.518529
20
74.107657
11
20.518600
21
73.815600
0
LINE
8
Layer 1
10
20.518600
20
73.815600
11
20.527157
21
73.786043
0
LINE
8
Layer 1
10
20.527157
20
73.786043
11
20.574604
21
73.780209
0
LINE
8
Layer 1
10
20.574604
20
73.780209
11
20.574600
21
73.755700
0
LINE
8
Layer 1
10
20.574600
20
73.755700
11
20.491762
21
73.758042
0
LINE
8
Layer 1
10
20.491762
20
73.758042
11
20.404256
21
73.755700
0
LINE
8
Layer 1
10
20.404256
20
73.755700
11
20.404200
21
73.755700
0
LINE
8
Layer 1
10
20.441535
20
74.161725
11
20.494816
21
74.213839
0
LINE
8
Layer 1
10
20.494816
20
74.213839
11
20.543042
21
74.259342
0
LINE
8
Layer 1
10
20.543042
20
74.259342
11
20.560932
21
74.267120
0
LINE
8
Layer 1
10
20.560932
20
74.267120
11
20.580766
21
74.257397
0
LINE
8
Layer 1
10
20.580766
20
74.257397
11
20.588934
21
74.237563
0
LINE
8
Layer 1
10
20.588934
20
74.237563
11
20.586224
21
74.225896
0
LINE
8
Layer 1
10
20.586224
20
74.225896
11
20.578057
21
74.216563
0
LINE
8
Layer 1
10
20.578057
20
74.216563
11
20.569500
21
74.210729
0
LINE
8
Layer 1
10
20.569500
20
74.210729
11
20.560943
21
74.206451
0
LINE
8
Layer 1
10
20.560943
20
74.206451
11
20.453603
21
74.146169
0
LINE
8
Layer 1
10
20.453603
20
74.146169
11
20.441535
21
74.161725
0
LINE
8
Layer 1
10
20.624000
20
73.755700
11
20.624000
21
73.780200
0
LINE
8
Layer 1
10
20.624000
20
73.780200
11
20.676114
21
73.785255
0
LINE
8
Layer 1
10
20.676114
20
73.785255
11
20.685837
21
73.816368
0
LINE
8
Layer 1
10
20.685837
20
73.816368
11
20.685800
21
74.029900
0
LINE
8
Layer 1
10
20.685800
20
74.029900
11
20.675299
21
74.066846
0
LINE
8
Layer 1
10
20.675299
20
74.066846
11
20.623962
21
74.074235
0
LINE
8
Layer 1
10
20.623962
20
74.074235
11
20.624000
21
74.099100
0
LINE
8
Layer 1
10
20.624000
20
74.099100
11
20.736007
21
74.107657
0
LINE
8
Layer 1
10
20.736007
20
74.107657
11
20.736000
21
74.024000
0
LINE
8
Layer 1
10
20.736000
20
74.024000
11
20.853840
21
74.107616
0
LINE
8
Layer 1
10
20.853840
20
74.107616
11
20.960013
21
74.029834
0
LINE
8
Layer 1
10
20.960013
20
74.029834
11
21.002015
21
74.083893
0
LINE
8
Layer 1
10
21.002015
20
74.083893
11
21.075520
21
74.107616
0
LINE
8
Layer 1
10
21.075520
20
74.107616
11
21.159136
21
74.078059
0
LINE
8
Layer 1
10
21.159136
20
74.078059
11
21.180136
21
74.036056
0
LINE
8
Layer 1
10
21.180136
20
74.036056
11
21.183636
21
73.956329
0
LINE
8
Layer 1
10
21.183636
20
73.956329
11
21.183600
21
73.804300
0
LINE
8
Layer 1
10
21.183600
20
73.804300
11
21.197212
21
73.783687
0
LINE
8
Layer 1
10
21.197212
20
73.783687
11
21.245825
21
73.780187
0
LINE
8
Layer 1
10
21.245825
20
73.780187
11
21.245800
21
73.755700
0
LINE
8
Layer 1
10
21.245800
20
73.755700
11
21.156739
21
73.758042
0
LINE
8
Layer 1
10
21.156739
20
73.758042
11
21.066511
21
73.755700
0
LINE
8
Layer 1
10
21.066511
20
73.755700
11
21.066600
21
73.780200
0
LINE
8
Layer 1
10
21.066600
20
73.780200
11
21.118714
21
73.785255
0
LINE
8
Layer 1
10
21.118714
20
73.785255
11
21.128826
21
73.816368
0
LINE
8
Layer 1
10
21.128826
20
73.816368
11
21.128800
21
74.001900
0
LINE
8
Layer 1
10
21.128800
20
74.001900
11
21.116354
21
74.066071
0
LINE
8
Layer 1
10
21.116354
20
74.066071
11
21.069684
21
74.090184
0
LINE
8
Layer 1
10
21.069684
20
74.090184
11
20.995402
21
74.055570
0
LINE
8
Layer 1
10
20.995402
20
74.055570
11
20.962345
21
73.962620
0
LINE
8
Layer 1
10
20.962345
20
73.962620
11
20.962300
21
73.816300
0
LINE
8
Layer 1
10
20.962300
20
73.816300
11
20.972023
21
73.785187
0
LINE
8
Layer 1
10
20.972023
20
73.785187
11
21.024526
21
73.780132
0
LINE
8
Layer 1
10
21.024526
20
73.780132
11
21.024500
21
73.755700
0
LINE
8
Layer 1
10
21.024500
20
73.755700
11
20.935050
21
73.758042
0
LINE
8
Layer 1
10
20.935050
20
73.758042
11
20.845211
21
73.755700
0
LINE
8
Layer 1
10
20.845211
20
73.755700
11
20.845300
21
73.780200
0
LINE
8
Layer 1
10
20.845300
20
73.780200
11
20.897414
21
73.785255
0
LINE
8
Layer 1
10
20.897414
20
73.785255
11
20.907526
21
73.816368
0
LINE
8
Layer 1
10
20.907526
20
73.816368
11
20.907500
21
74.001900
0
LINE
8
Layer 1
10
20.907500
20
74.001900
11
20.895054
21
74.066071
0
LINE
8
Layer 1
10
20.895054
20
74.066071
11
20.848384
21
74.090184
0
LINE
8
Layer 1
10
20.848384
20
74.090184
11
20.774102
21
74.055570
0
LINE
8
Layer 1
10
20.774102
20
74.055570
11
20.741045
21
73.962620
0
LINE
8
Layer 1
10
20.741045
20
73.962620
11
20.741000
21
73.816300
0
LINE
8
Layer 1
10
20.741000
20
73.816300
11
20.750723
21
73.785187
0
LINE
8
Layer 1
10
20.750723
20
73.785187
11
20.802837
21
73.780132
0
LINE
8
Layer 1
10
20.802837
20
73.780132
11
20.802900
21
73.755700
0
LINE
8
Layer 1
10
20.802900
20
73.755700
11
20.713839
21
73.758042
0
LINE
8
Layer 1
10
20.713839
20
73.758042
11
20.624000
21
73.755700
0
LINE
8
Layer 1
10
20.624000
20
73.755700
11
20.624000
21
73.755700
0
LINE
8
Layer 1
10
21.287800
20
73.755700
11
21.287800
21
73.780200
0
LINE
8
Layer 1
10
21.287800
20
73.780200
11
21.339914
21
73.785255
0
LINE
8
Layer 1
10
21.339914
20
73.785255
11
21.349637
21
73.816368
0
LINE
8
Layer 1
10
21.349637
20
73.816368
11
21.349700
21
74.030600
0
LINE
8
Layer 1
10
21.349700
20
74.030600
11
21.339588
21
74.067158
0
LINE
8
Layer 1
10
21.339588
20
74.067158
11
21.290974
21
74.074160
0
LINE
8
Layer 1
10
21.290974
20
74.074160
11
21.291000
21
74.099100
0
LINE
8
Layer 1
10
21.291000
20
74.099100
11
21.402229
21
74.107657
0
LINE
8
Layer 1
10
21.402229
20
74.107657
11
21.402200
21
73.815600
0
LINE
8
Layer 1
10
21.402200
20
73.815600
11
21.410757
21
73.786043
0
LINE
8
Layer 1
10
21.410757
20
73.786043
11
21.458204
21
73.780209
0
LINE
8
Layer 1
10
21.458204
20
73.780209
11
21.458200
21
73.755700
0
LINE
8
Layer 1
10
21.458200
20
73.755700
11
21.375362
21
73.758042
0
LINE
8
Layer 1
10
21.375362
20
73.758042
11
21.287856
21
73.755700
0
LINE
8
Layer 1
10
21.287856
20
73.755700
11
21.287800
21
73.755700
0
LINE
8
Layer 1
10
21.321246
20
74.246507
11
21.333303
21
74.275287
0
LINE
8
Layer 1
10
21.333303
20
74.275287
11
21.363249
21
74.288509
0
LINE
8
Layer 1
10
21.363249
20
74.288509
11
21.393195
21
74.276452
0
LINE
8
Layer 1
10
21.393195
20
74.276452
11
21.405641
21
74.246117
0
LINE
8
Layer 1
10
21.405641
20
74.246117
11
21.393195
21
74.215782
0
LINE
8
Layer 1
10
21.393195
20
74.215782
11
21.363249
21
74.204115
0
LINE
8
Layer 1
10
21.363249
20
74.204115
11
21.332914
21
74.216947
0
LINE
8
Layer 1
10
21.332914
20
74.216947
11
21.321247
21
74.246505
0
LINE
8
Layer 1
10
21.321247
20
74.246505
11
21.321246
21
74.246507
0
LINE
8
Layer 1
10
21.559700
20
73.799200
11
21.509141
21
73.927541
0
LINE
8
Layer 1
10
21.509141
20
73.927541
11
21.558922
21
74.057827
0
LINE
8
Layer 1
10
21.558922
20
74.057827
11
21.681818
21
74.112664
0
LINE
8
Layer 1
10
21.681818
20
74.112664
11
21.766990
21
74.089330
0
LINE
8
Layer 1
10
21.766990
20
74.089330
11
21.803548
21
74.027104
0
LINE
8
Layer 1
10
21.803548
20
74.027104
11
21.793046
21
73.999491
0
LINE
8
Layer 1
10
21.793046
20
73.999491
11
21.766988
21
73.989768
0
LINE
8
Layer 1
10
21.766988
20
73.989768
11
21.740152
21
73.999880
0
LINE
8
Layer 1
10
21.740152
20
73.999880
11
21.730429
21
74.026327
0
LINE
8
Layer 1
10
21.730429
20
74.026327
11
21.732772
21
74.040328
0
LINE
8
Layer 1
10
21.732772
20
74.040328
11
21.743660
21
74.054719
0
LINE
8
Layer 1
10
21.743660
20
74.054719
11
21.767773
21
74.063276
0
LINE
8
Layer 1
10
21.767773
20
74.063276
11
21.684157
21
74.092444
0
LINE
8
Layer 1
10
21.684157
20
74.092444
11
21.682605
21
74.092444
0
LINE
8
Layer 1
10
21.682605
20
74.092444
11
21.608711
21
74.054331
0
LINE
8
Layer 1
10
21.608711
20
74.054331
11
21.575265
21
73.929101
0
LINE
8
Layer 1
10
21.575265
20
73.929101
11
21.586153
21
73.850152
0
LINE
8
Layer 1
10
21.586153
20
73.850152
11
21.615710
21
73.799982
0
LINE
8
Layer 1
10
21.615710
20
73.799982
11
21.651879
21
73.774703
0
LINE
8
Layer 1
10
21.651879
20
73.774703
11
21.687270
21
73.766925
0
LINE
8
Layer 1
10
21.687270
20
73.766925
11
21.791887
21
73.850542
0
LINE
8
Layer 1
10
21.791887
20
73.850542
11
21.801999
21
73.858320
0
LINE
8
Layer 1
10
21.801999
20
73.858320
11
21.812500
21
73.850542
0
LINE
8
Layer 1
10
21.812500
20
73.850542
11
21.809390
21
73.836541
0
LINE
8
Layer 1
10
21.809390
20
73.836541
11
21.796558
21
73.810483
0
LINE
8
Layer 1
10
21.796558
20
73.810483
11
21.772834
21
73.780537
0
LINE
8
Layer 1
10
21.772834
20
73.780537
11
21.734721
21
73.756813
0
LINE
8
Layer 1
10
21.734721
20
73.756813
11
21.680273
21
73.746701
0
LINE
8
Layer 1
10
21.680273
20
73.746701
11
21.559710
21
73.799204
0
LINE
8
Layer 1
10
21.559710
20
73.799204
11
21.559700
21
73.799200
0
LINE
8
Layer 1
10
21.868900
20
73.831500
11
21.948627
21
73.934950
0
LINE
8
Layer 1
10
21.948627
20
73.934950
11
22.095247
21
73.963730
0
LINE
8
Layer 1
10
22.095247
20
73.963730
11
22.095200
21
73.992900
0
LINE
8
Layer 1
10
22.095200
20
73.992900
11
22.069142
21
74.068349
0
LINE
8
Layer 1
10
22.069142
20
74.068349
11
22.010805
21
74.094796
0
LINE
8
Layer 1
10
22.010805
20
74.094796
11
21.924467
21
74.058238
0
LINE
8
Layer 1
10
21.924467
20
74.058238
11
21.956747
21
74.045403
0
LINE
8
Layer 1
10
21.956747
20
74.045403
11
21.965304
21
74.021679
0
LINE
8
Layer 1
10
21.965304
20
74.021679
11
21.955192
21
73.995232
0
LINE
8
Layer 1
10
21.955192
20
73.995232
11
21.928745
21
73.985120
0
LINE
8
Layer 1
10
21.928745
20
73.985120
11
21.902298
21
73.994842
0
LINE
8
Layer 1
10
21.902298
20
73.994842
11
21.891796
21
74.022455
0
LINE
8
Layer 1
10
21.891796
20
74.022455
11
21.926798
21
74.087014
0
LINE
8
Layer 1
10
21.926798
20
74.087014
11
22.012359
21
74.112683
0
LINE
8
Layer 1
10
22.012359
20
74.112683
11
22.121254
21
74.068736
0
LINE
8
Layer 1
10
22.121254
20
74.068736
11
22.141478
21
74.037623
0
LINE
8
Layer 1
10
22.141478
20
74.037623
11
22.149256
21
74.008454
0
LINE
8
Layer 1
10
22.149256
20
74.008454
11
22.150046
21
73.974619
0
LINE
8
Layer 1
10
22.150046
20
73.974619
11
22.150100
21
73.815600
0
LINE
8
Layer 1
10
22.150100
20
73.815600
11
22.151652
21
73.803154
0
LINE
8
Layer 1
10
22.151652
20
73.803154
11
22.160209
21
73.785264
0
LINE
8
Layer 1
10
22.160209
20
73.785264
11
22.179654
21
73.775541
0
LINE
8
Layer 1
10
22.179654
20
73.775541
11
22.208045
21
73.826489
0
LINE
8
Layer 1
10
22.208045
20
73.826489
11
22.208000
21
73.871200
0
LINE
8
Layer 1
10
22.208000
20
73.871200
11
22.228200
21
73.871200
0
LINE
8
Layer 1
10
22.228200
20
73.871200
11
22.228200
21
73.826500
0
LINE
8
Layer 1
10
22.228200
20
73.826500
11
22.205642
21
73.767385
0
LINE
8
Layer 1
10
22.205642
20
73.767385
11
22.162862
21
73.751050
0
LINE
8
Layer 1
10
22.162862
20
73.751050
11
22.119692
21
73.770495
0
LINE
8
Layer 1
10
22.119692
20
73.770495
11
22.100637
21
73.816387
0
LINE
8
Layer 1
10
22.100637
20
73.816387
11
22.060968
21
73.766217
0
LINE
8
Layer 1
10
22.060968
20
73.766217
11
21.996408
21
73.746772
0
LINE
8
Layer 1
10
21.996408
20
73.746772
11
21.940405
21
73.754161
0
LINE
8
Layer 1
10
21.940405
20
73.754161
11
21.891013
21
73.780994
0
LINE
8
Layer 1
10
21.891013
20
73.780994
11
21.868845
21
73.831553
0
LINE
8
Layer 1
10
21.868845
20
73.831553
11
21.868900
21
73.831500
0
LINE
8
Layer 1
10
21.930348
20
73.832290
11
21.951348
21
73.783676
0
LINE
8
Layer 1
10
21.951348
20
73.783676
11
22.001907
21
73.764620
0
LINE
8
Layer 1
10
22.001907
20
73.764620
11
22.065300
21
73.790289
0
LINE
8
Layer 1
10
22.065300
20
73.790289
11
22.095246
21
73.867293
0
LINE
8
Layer 1
10
22.095246
20
73.867293
11
22.095200
21
73.947000
0
LINE
8
Layer 1
10
22.095200
20
73.947000
11
21.968414
21
73.908498
0
LINE
8
Layer 1
10
21.968414
20
73.908498
11
21.930301
21
73.832271
0
LINE
8
Layer 1
10
21.930301
20
73.832271
11
21.930348
21
73.832290
0
LINE
8
Layer 1
10
12.938700
20
72.760100
11
12.938700
21
72.784600
0
LINE
8
Layer 1
10
12.938700
20
72.784600
11
13.027761
21
72.838270
0
LINE
8
Layer 1
10
13.027761
20
72.838270
11
13.192660
21
73.314299
0
LINE
8
Layer 1
10
13.192660
20
73.314299
11
13.199272
21
73.327131
0
LINE
8
Layer 1
10
13.199272
20
73.327131
11
13.211718
21
73.330244
0
LINE
8
Layer 1
10
13.211718
20
73.330244
11
13.219107
21
73.329454
0
LINE
8
Layer 1
10
13.219107
20
73.329454
11
13.224161
21
73.325955
0
LINE
8
Layer 1
10
13.224161
20
73.325955
11
13.226871
21
73.321676
0
LINE
8
Layer 1
10
13.226871
20
73.321676
11
13.229981
21
73.314288
0
LINE
8
Layer 1
10
13.229981
20
73.314288
11
13.401880
21
72.816480
0
LINE
8
Layer 1
10
13.401880
20
72.816480
11
13.420935
21
72.790422
0
LINE
8
Layer 1
10
13.420935
20
72.790422
11
13.469939
21
72.784588
0
LINE
8
Layer 1
10
13.469939
20
72.784588
11
13.483900
21
72.784500
0
LINE
8
Layer 1
10
13.483900
20
72.784500
11
13.483900
21
72.760000
0
LINE
8
Layer 1
10
13.483900
20
72.760000
11
13.379671
21
72.762342
0
LINE
8
Layer 1
10
13.379671
20
72.762342
11
13.264942
21
72.760000
0
LINE
8
Layer 1
10
13.264942
20
72.760000
11
13.265000
21
72.784500
0
LINE
8
Layer 1
10
13.265000
20
72.784500
11
13.331115
21
72.808613
0
LINE
8
Layer 1
10
13.331115
20
72.808613
11
13.328773
21
72.819891
0
LINE
8
Layer 1
10
13.328773
20
72.819891
11
13.286770
21
72.941621
0
LINE
8
Layer 1
10
13.286770
20
72.941621
11
13.089900
21
72.941700
0
LINE
8
Layer 1
10
13.089900
20
72.941700
11
13.052953
21
72.837471
0
LINE
8
Layer 1
10
13.052953
20
72.837471
11
13.051401
21
72.825414
0
LINE
8
Layer 1
10
13.051401
20
72.825414
11
13.066957
21
72.796635
0
LINE
8
Layer 1
10
13.066957
20
72.796635
11
13.111293
21
72.784578
0
LINE
8
Layer 1
10
13.111293
20
72.784578
11
13.111300
21
72.760000
0
LINE
8
Layer 1
10
13.111300
20
72.760000
11
13.019517
21
72.762342
0
LINE
8
Layer 1
10
13.019517
20
72.762342
11
12.938623
21
72.760000
0
LINE
8
Layer 1
10
12.938623
20
72.760000
11
12.938700
21
72.760100
0
LINE
8
Layer 1
10
13.098543
20
72.966224
11
13.277800
21
72.966200
0
LINE
8
Layer 1
10
13.277800
20
72.966200
11
13.188000
21
73.225200
0
LINE
8
Layer 1
10
13.188000
20
73.225200
11
13.098543
21
72.966224
0
LINE
8
Layer 1
10
13.536000
20
72.760100
11
13.536000
21
72.784600
0
LINE
8
Layer 1
10
13.536000
20
72.784600
11
13.588114
21
72.789655
0
LINE
8
Layer 1
10
13.588114
20
72.789655
11
13.597837
21
72.820768
0
LINE
8
Layer 1
10
13.597837
20
72.820768
11
13.597900
21
73.034200
0
LINE
8
Layer 1
10
13.597900
20
73.034200
11
13.587398
21
73.071147
0
LINE
8
Layer 1
10
13.587398
20
73.071147
11
13.536062
21
73.078535
0
LINE
8
Layer 1
10
13.536062
20
73.078535
11
13.536000
21
73.103500
0
LINE
8
Layer 1
10
13.536000
20
73.103500
11
13.648007
21
73.112057
0
LINE
8
Layer 1
10
13.648007
20
73.112057
11
13.648100
21
73.028400
0
LINE
8
Layer 1
10
13.648100
20
73.028400
11
13.765940
21
73.112016
0
LINE
8
Layer 1
10
13.765940
20
73.112016
11
13.849556
21
73.082459
0
LINE
8
Layer 1
10
13.849556
20
73.082459
11
13.870556
21
73.040456
0
LINE
8
Layer 1
10
13.870556
20
73.040456
11
13.874445
21
72.960729
0
LINE
8
Layer 1
10
13.874445
20
72.960729
11
13.874400
21
72.808700
0
LINE
8
Layer 1
10
13.874400
20
72.808700
11
13.888012
21
72.788087
0
LINE
8
Layer 1
10
13.888012
20
72.788087
11
13.936625
21
72.784587
0
LINE
8
Layer 1
10
13.936625
20
72.784587
11
13.936600
21
72.760100
0
LINE
8
Layer 1
10
13.936600
20
72.760100
11
13.847150
21
72.762442
0
LINE
8
Layer 1
10
13.847150
20
72.762442
11
13.757311
21
72.760100
0
LINE
8
Layer 1
10
13.757311
20
72.760100
11
13.757300
21
72.784600
0
LINE
8
Layer 1
10
13.757300
20
72.784600
11
13.809414
21
72.789655
0
LINE
8
Layer 1
10
13.809414
20
72.789655
11
13.819526
21
72.820768
0
LINE
8
Layer 1
10
13.819526
20
72.820768
11
13.819600
21
73.006200
0
LINE
8
Layer 1
10
13.819600
20
73.006200
11
13.807154
21
73.070371
0
LINE
8
Layer 1
10
13.807154
20
73.070371
11
13.760484
21
73.094484
0
LINE
8
Layer 1
10
13.760484
20
73.094484
11
13.686202
21
73.059870
0
LINE
8
Layer 1
10
13.686202
20
73.059870
11
13.653145
21
72.966920
0
LINE
8
Layer 1
10
13.653145
20
72.966920
11
13.653100
21
72.820700
0
LINE
8
Layer 1
10
13.653100
20
72.820700
11
13.662823
21
72.789587
0
LINE
8
Layer 1
10
13.662823
20
72.789587
11
13.714937
21
72.784532
0
LINE
8
Layer 1
10
13.714937
20
72.784532
11
13.714900
21
72.760100
0
LINE
8
Layer 1
10
13.714900
20
72.760100
11
13.625839
21
72.762442
0
LINE
8
Layer 1
10
13.625839
20
72.762442
11
13.536000
21
72.760100
0
LINE
8
Layer 1
10
13.536000
20
72.760100
11
13.536000
21
72.760100
0
LINE
8
Layer 1
10
13.979400
20
72.931200
11
14.032292
21
73.059541
0
LINE
8
Layer 1
10
14.032292
20
73.059541
11
14.156744
21
73.112044
0
LINE
8
Layer 1
10
14.156744
20
73.112044
11
14.257084
21
73.062652
0
LINE
8
Layer 1
10
14.257084
20
73.062652
11
14.257100
21
73.234900
0
LINE
8
Layer 1
10
14.257100
20
73.234900
11
14.246598
21
73.271846
0
LINE
8
Layer 1
10
14.246598
20
73.271846
11
14.195262
21
73.279235
0
LINE
8
Layer 1
10
14.195262
20
73.279235
11
14.195300
21
73.304100
0
LINE
8
Layer 1
10
14.195300
20
73.304100
11
14.310029
21
73.312657
0
LINE
8
Layer 1
10
14.310029
20
73.312657
11
14.310000
21
72.829300
0
LINE
8
Layer 1
10
14.310000
20
72.829300
11
14.320112
21
72.791964
0
LINE
8
Layer 1
10
14.320112
20
72.791964
11
14.371837
21
72.784576
0
LINE
8
Layer 1
10
14.371837
20
72.784576
11
14.371800
21
72.760100
0
LINE
8
Layer 1
10
14.371800
20
72.760100
11
14.254737
21
72.751156
0
LINE
8
Layer 1
10
14.254737
20
72.751156
11
14.254800
21
72.804000
0
LINE
8
Layer 1
10
14.254800
20
72.804000
11
14.148238
21
72.751108
0
LINE
8
Layer 1
10
14.148238
20
72.751108
11
14.029620
21
72.803611
0
LINE
8
Layer 1
10
14.029620
20
72.803611
11
13.979450
21
72.931174
0
LINE
8
Layer 1
10
13.979450
20
72.931174
11
13.979400
21
72.931200
0
LINE
8
Layer 1
10
14.045515
20
72.930410
11
14.068460
21
72.819959
0
LINE
8
Layer 1
10
14.068460
20
72.819959
11
14.152076
21
72.769011
0
LINE
8
Layer 1
10
14.152076
20
72.769011
11
14.246193
21
72.824626
0
LINE
8
Layer 1
10
14.246193
20
72.824626
11
14.254750
21
72.854183
0
LINE
8
Layer 1
10
14.254750
20
72.854183
11
14.254800
21
73.017500
0
LINE
8
Layer 1
10
14.254800
20
73.017500
11
14.246243
21
73.046668
0
LINE
8
Layer 1
10
14.246243
20
73.046668
11
14.160293
21
73.094505
0
LINE
8
Layer 1
10
14.160293
20
73.094505
11
14.070066
21
73.043557
0
LINE
8
Layer 1
10
14.070066
20
73.043557
11
14.045563
21
72.930384
0
LINE
8
Layer 1
10
14.045563
20
72.930384
11
14.045515
21
72.930410
0
LINE
8
Layer 1
10
14.416200
20
72.760100
11
14.416200
21
72.784600
0
LINE
8
Layer 1
10
14.416200
20
72.784600
11
14.468314
21
72.789655
0
LINE
8
Layer 1
10
14.468314
20
72.789655
11
14.478426
21
72.820768
0
LINE
8
Layer 1
10
14.478426
20
72.820768
11
14.478400
21
73.034200
0
LINE
8
Layer 1
10
14.478400
20
73.034200
11
14.467899
21
73.071147
0
LINE
8
Layer 1
10
14.467899
20
73.071147
11
14.416173
21
73.078535
0
LINE
8
Layer 1
10
14.416173
20
73.078535
11
14.416200
21
73.103500
0
LINE
8
Layer 1
10
14.416200
20
73.103500
11
14.527040
21
73.112057
0
LINE
8
Layer 1
10
14.527040
20
73.112057
11
14.527000
21
73.024500
0
LINE
8
Layer 1
10
14.527000
20
73.024500
11
14.562002
21
73.085170
0
LINE
8
Layer 1
10
14.562002
20
73.085170
11
14.625006
21
73.112004
0
LINE
8
Layer 1
10
14.625006
20
73.112004
11
14.667009
21
73.097613
0
LINE
8
Layer 1
10
14.667009
20
73.097613
11
14.683733
21
73.063389
0
LINE
8
Layer 1
10
14.683733
20
73.063389
11
14.672845
21
73.036942
0
LINE
8
Layer 1
10
14.672845
20
73.036942
11
14.649511
21
73.028385
0
LINE
8
Layer 1
10
14.649511
20
73.028385
11
14.625008
21
73.037328
0
LINE
8
Layer 1
10
14.625008
20
73.037328
11
14.615286
21
73.062607
0
LINE
8
Layer 1
10
14.615286
20
73.062607
11
14.619564
21
73.079718
0
LINE
8
Layer 1
10
14.619564
20
73.079718
11
14.627732
21
73.090220
0
LINE
8
Layer 1
10
14.627732
20
73.090220
11
14.633565
21
73.093719
0
LINE
8
Layer 1
10
14.633565
20
73.093719
11
14.625008
21
73.094509
0
LINE
8
Layer 1
10
14.625008
20
73.094509
11
14.555782
21
73.050562
0
LINE
8
Layer 1
10
14.555782
20
73.050562
11
14.530893
21
72.944778
0
LINE
8
Layer 1
10
14.530893
20
72.944778
11
14.530900
21
72.822300
0
LINE
8
Layer 1
10
14.530900
20
72.822300
11
14.540233
21
72.791965
0
LINE
8
Layer 1
10
14.540233
20
72.791965
11
14.591570
21
72.784576
0
LINE
8
Layer 1
10
14.591570
20
72.784576
11
14.608300
21
72.784600
0
LINE
8
Layer 1
10
14.608300
20
72.784600
11
14.608300
21
72.760100
0
LINE
8
Layer 1
10
14.608300
20
72.760100
11
14.507183
21
72.762442
0
LINE
8
Layer 1
10
14.507183
20
72.762442
11
14.482294
21
72.762047
0
LINE
8
Layer 1
10
14.482294
20
72.762047
11
14.447292
21
72.760890
0
LINE
8
Layer 1
10
14.447292
20
72.760890
11
14.416179
21
72.760100
0
LINE
8
Layer 1
10
14.416179
20
72.760100
11
14.416200
21
72.760100
0
LINE
8
Layer 1
10
14.727300
20
72.935500
11
14.775525
21
73.063841
0
LINE
8
Layer 1
10
14.775525
20
73.063841
11
14.892977
21
73.117122
0
LINE
8
Layer 1
10
14.892977
20
73.117122
11
14.999150
21
73.071619
0
LINE
8
Layer 1
10
14.999150
20
73.071619
11
15.035708
21
72.960779
0
LINE
8
Layer 1
10
15.035708
20
72.960779
11
15.032598
21
72.946389
0
LINE
8
Layer 1
10
15.032598
20
72.946389
11
15.015873
21
72.944046
0
LINE
8
Layer 1
10
15.015873
20
72.944046
11
14.793400
21
72.944000
0
LINE
8
Layer 1
10
14.793400
20
72.944000
11
14.817513
21
72.824604
0
LINE
8
Layer 1
10
14.817513
20
72.824604
11
14.907352
21
72.771323
0
LINE
8
Layer 1
10
14.907352
20
72.771323
11
14.924463
21
72.772875
0
LINE
8
Layer 1
10
14.924463
20
72.772875
11
14.952853
21
72.781043
0
LINE
8
Layer 1
10
14.952853
20
72.781043
11
14.988633
21
72.806321
0
LINE
8
Layer 1
10
14.988633
20
72.806321
11
15.015080
21
72.853380
0
LINE
8
Layer 1
10
15.015080
20
72.853380
11
15.025192
21
72.864268
0
LINE
8
Layer 1
10
15.025192
20
72.864268
11
15.035694
21
72.854935
0
LINE
8
Layer 1
10
15.035694
20
72.854935
11
15.027916
21
72.831990
0
LINE
8
Layer 1
10
15.027916
20
72.831990
11
15.006137
21
72.797766
0
LINE
8
Layer 1
10
15.006137
20
72.797766
11
14.963745
21
72.765097
0
LINE
8
Layer 1
10
14.963745
20
72.765097
11
14.902686
21
72.751096
0
LINE
8
Layer 1
10
14.902686
20
72.751096
11
14.779790
21
72.803988
0
LINE
8
Layer 1
10
14.779790
20
72.803988
11
14.727287
21
72.935441
0
LINE
8
Layer 1
10
14.727287
20
72.935441
11
14.727300
21
72.935500
0
LINE
8
Layer 1
10
14.794193
20
72.960779
11
14.983200
21
72.960700
0
LINE
8
Layer 1
10
14.983200
20
72.960700
11
14.980090
21
72.996091
0
LINE
8
Layer 1
10
14.980090
20
72.996091
11
14.968812
21
73.040427
0
LINE
8
Layer 1
10
14.968812
20
73.040427
11
14.941200
21
73.082819
0
LINE
8
Layer 1
10
14.941200
20
73.082819
11
14.892975
21
73.099153
0
LINE
8
Layer 1
10
14.892975
20
73.099153
11
14.866138
21
73.093709
0
LINE
8
Layer 1
10
14.866138
20
73.093709
11
14.835803
21
73.075040
0
LINE
8
Layer 1
10
14.835803
20
73.075040
11
14.807412
21
73.031871
0
LINE
8
Layer 1
10
14.807412
20
73.031871
11
14.794190
21
72.960700
0
LINE
8
Layer 1
10
14.794190
20
72.960700
11
14.794193
21
72.960779
0
LINE
8
Layer 1
10
14.808583
20
73.166125
11
14.861086
21
73.217461
0
LINE
8
Layer 1
10
14.861086
20
73.217461
11
14.909312
21
73.263353
0
LINE
8
Layer 1
10
14.909312
20
73.263353
11
14.927981
21
73.271520
0
LINE
8
Layer 1
10
14.927981
20
73.271520
11
14.947815
21
73.261798
0
LINE
8
Layer 1
10
14.947815
20
73.261798
11
14.955983
21
73.241963
0
LINE
8
Layer 1
10
14.955983
20
73.241963
11
14.954431
21
73.233406
0
LINE
8
Layer 1
10
14.954431
20
73.233406
11
14.950931
21
73.227183
0
LINE
8
Layer 1
10
14.950931
20
73.227183
11
14.945097
21
73.221739
0
LINE
8
Layer 1
10
14.945097
20
73.221739
11
14.939653
21
73.217850
0
LINE
8
Layer 1
10
14.939653
20
73.217850
11
14.933430
21
73.213961
0
LINE
8
Layer 1
10
14.933430
20
73.213961
11
14.927986
21
73.210848
0
LINE
8
Layer 1
10
14.927986
20
73.210848
11
14.820646
21
73.150567
0
LINE
8
Layer 1
10
14.820646
20
73.150567
11
14.808583
21
73.166125
0
LINE
8
Layer 1
10
15.085100
20
72.770600
11
15.085100
21
72.875600
0
LINE
8
Layer 1
10
15.085100
20
72.875600
11
15.085495
21
72.887657
0
LINE
8
Layer 1
10
15.085495
20
72.887657
11
15.088204
21
72.893101
0
LINE
8
Layer 1
10
15.088204
20
72.893101
11
15.095206
21
72.895443
0
LINE
8
Layer 1
10
15.095206
20
72.895443
11
15.102595
21
72.893101
0
LINE
8
Layer 1
10
15.102595
20
72.893101
11
15.106484
21
72.881823
0
LINE
8
Layer 1
10
15.106484
20
72.881823
11
15.144209
21
72.797818
0
LINE
8
Layer 1
10
15.144209
20
72.797818
11
15.217324
21
72.769038
0
LINE
8
Layer 1
10
15.217324
20
72.769038
11
15.284606
21
72.788873
0
LINE
8
Layer 1
10
15.284606
20
72.788873
11
15.307164
21
72.841376
0
LINE
8
Layer 1
10
15.307164
20
72.841376
11
15.224325
21
72.914492
0
LINE
8
Layer 1
10
15.224325
20
72.914492
11
15.156655
21
72.930437
0
LINE
8
Layer 1
10
15.156655
20
72.930437
11
15.119319
21
72.951437
0
LINE
8
Layer 1
10
15.119319
20
72.951437
11
15.085095
21
73.019108
0
LINE
8
Layer 1
10
15.085095
20
73.019108
11
15.115041
21
73.087945
0
LINE
8
Layer 1
10
15.115041
20
73.087945
11
15.212269
21
73.117114
0
LINE
8
Layer 1
10
15.212269
20
73.117114
11
15.287329
21
73.094556
0
LINE
8
Layer 1
10
15.287329
20
73.094556
11
15.300941
21
73.107391
0
LINE
8
Layer 1
10
15.300941
20
73.107391
11
15.316886
21
73.117114
0
LINE
8
Layer 1
10
15.316886
20
73.117114
11
15.324275
21
73.112835
0
LINE
8
Layer 1
10
15.324275
20
73.112835
11
15.325432
21
73.097669
0
LINE
8
Layer 1
10
15.325432
20
73.097669
11
15.325400
21
73.017500
0
LINE
8
Layer 1
10
15.325400
20
73.017500
11
15.325005
21
73.005443
0
LINE
8
Layer 1
10
15.325005
20
73.005443
11
15.322296
21
72.999999
0
LINE
8
Layer 1
10
15.322296
20
72.999999
11
15.314907
21
72.998052
0
LINE
8
Layer 1
10
15.314907
20
72.998052
11
15.305574
21
73.005441
0
LINE
8
Layer 1
10
15.305574
20
73.005441
11
15.212235
21
73.101891
0
LINE
8
Layer 1
10
15.212235
20
73.101891
11
15.144175
21
73.083611
0
LINE
8
Layer 1
10
15.144175
20
73.083611
11
15.123175
21
73.041220
0
LINE
8
Layer 1
10
15.123175
20
73.041220
11
15.129398
21
73.017107
0
LINE
8
Layer 1
10
15.129398
20
73.017107
11
15.144178
21
73.000772
0
LINE
8
Layer 1
10
15.144178
20
73.000772
11
15.168291
21
72.989105
0
LINE
8
Layer 1
10
15.168291
20
72.989105
11
15.193181
21
72.981716
0
LINE
8
Layer 1
10
15.193181
20
72.981716
11
15.221183
21
72.975883
0
LINE
8
Layer 1
10
15.221183
20
72.975883
11
15.311799
21
72.937769
0
LINE
8
Layer 1
10
15.311799
20
72.937769
11
15.345246
21
72.861931
0
LINE
8
Layer 1
10
15.345246
20
72.861931
11
15.313355
21
72.782982
0
LINE
8
Layer 1
10
15.313355
20
72.782982
11
15.217294
21
72.751091
0
LINE
8
Layer 1
10
15.217294
20
72.751091
11
15.129399
21
72.785705
0
LINE
8
Layer 1
10
15.129399
20
72.785705
11
15.121232
21
72.776761
0
LINE
8
Layer 1
10
15.121232
20
72.776761
11
15.116177
21
72.771317
0
LINE
8
Layer 1
10
15.116177
20
72.771317
11
15.114625
21
72.768608
0
LINE
8
Layer 1
10
15.114625
20
72.768608
11
15.113468
21
72.767056
0
LINE
8
Layer 1
10
15.113468
20
72.767056
11
15.093633
21
72.751110
0
LINE
8
Layer 1
10
15.093633
20
72.751110
11
15.086245
21
72.755389
0
LINE
8
Layer 1
10
15.086245
20
72.755389
11
15.085087
21
72.770555
0
LINE
8
Layer 1
10
15.085087
20
72.770555
11
15.085100
21
72.770600
0
LINE
8
Layer 1
10
15.665000
20
72.760100
11
15.665000
21
72.784600
0
LINE
8
Layer 1
10
15.665000
20
72.784600
11
15.684000
21
72.784600
0
LINE
8
Layer 1
10
15.684000
20
72.784600
11
15.736892
21
72.791599
0
LINE
8
Layer 1
10
15.736892
20
72.791599
11
15.747004
21
72.822323
0
LINE
8
Layer 1
10
15.747004
20
72.822323
11
15.747000
21
73.241900
0
LINE
8
Layer 1
10
15.747000
20
73.241900
11
15.736888
21
73.271846
0
LINE
8
Layer 1
10
15.736888
20
73.271846
11
15.683996
21
73.279235
0
LINE
8
Layer 1
10
15.683996
20
73.279235
11
15.665000
21
73.279300
0
LINE
8
Layer 1
10
15.665000
20
73.279300
11
15.665000
21
73.304100
0
LINE
8
Layer 1
10
15.665000
20
73.304100
11
15.946100
21
73.304100
0
LINE
8
Layer 1
10
15.946100
20
73.304100
11
16.080275
21
73.259764
0
LINE
8
Layer 1
10
16.080275
20
73.259764
11
16.133945
21
73.155924
0
LINE
8
Layer 1
10
16.133945
20
73.155924
11
16.079108
21
73.054029
0
LINE
8
Layer 1
10
16.079108
20
73.054029
11
15.952323
21
73.011638
0
LINE
8
Layer 1
10
15.952323
20
73.011638
11
15.817800
21
73.011700
0
LINE
8
Layer 1
10
15.817800
20
73.011700
11
15.817800
21
72.822300
0
LINE
8
Layer 1
10
15.817800
20
72.822300
11
15.827523
21
72.791965
0
LINE
8
Layer 1
10
15.827523
20
72.791965
11
15.880804
21
72.784576
0
LINE
8
Layer 1
10
15.880804
20
72.784576
11
15.899900
21
72.784600
0
LINE
8
Layer 1
10
15.899900
20
72.784600
11
15.899900
21
72.760100
0
LINE
8
Layer 1
10
15.899900
20
72.760100
11
15.782060
21
72.762442
0
LINE
8
Layer 1
10
15.782060
20
72.762442
11
15.664997
21
72.760100
0
LINE
8
Layer 1
10
15.664997
20
72.760100
11
15.665000
21
72.760100
0
LINE
8
Layer 1
10
15.815509
20
73.032339
11
15.925100
21
73.032300
0
LINE
8
Layer 1
10
15.925100
20
73.032300
11
15.986937
21
73.042412
0
LINE
8
Layer 1
10
15.986937
20
73.042412
11
16.024662
21
73.064581
0
LINE
8
Layer 1
10
16.024662
20
73.064581
11
16.043331
21
73.096860
0
LINE
8
Layer 1
10
16.043331
20
73.096860
11
16.051109
21
73.127973
0
LINE
8
Layer 1
10
16.051109
20
73.127973
11
16.051899
21
73.155975
0
LINE
8
Layer 1
10
16.051899
20
73.155975
11
16.051109
21
73.184366
0
LINE
8
Layer 1
10
16.051109
20
73.184366
11
16.043331
21
73.215479
0
LINE
8
Layer 1
10
16.043331
20
73.215479
11
16.024662
21
73.247759
0
LINE
8
Layer 1
10
16.024662
20
73.247759
11
15.986937
21
73.269538
0
LINE
8
Layer 1
10
15.986937
20
73.269538
11
15.925100
21
73.279260
0
LINE
8
Layer 1
10
15.925100
20
73.279260
11
15.854400
21
73.279300
0
LINE
8
Layer 1
10
15.854400
20
73.279300
11
15.821343
21
73.273856
0
LINE
8
Layer 1
10
15.821343
20
73.273856
11
15.815509
21
73.247409
0
LINE
8
Layer 1
10
15.815509
20
73.247409
11
15.815509
21
73.032339
0
LINE
8
Layer 1
10
16.178300
20
72.935500
11
16.226525
21
73.063841
0
LINE
8
Layer 1
10
16.226525
20
73.063841
11
16.343977
21
73.117122
0
LINE
8
Layer 1
10
16.343977
20
73.117122
11
16.450150
21
73.071619
0
LINE
8
Layer 1
10
16.450150
20
73.071619
11
16.486708
21
72.960779
0
LINE
8
Layer 1
10
16.486708
20
72.960779
11
16.483598
21
72.946389
0
LINE
8
Layer 1
10
16.483598
20
72.946389
11
16.466873
21
72.944046
0
LINE
8
Layer 1
10
16.466873
20
72.944046
11
16.244400
21
72.944000
0
LINE
8
Layer 1
10
16.244400
20
72.944000
11
16.268513
21
72.824604
0
LINE
8
Layer 1
10
16.268513
20
72.824604
11
16.358352
21
72.771323
0
LINE
8
Layer 1
10
16.358352
20
72.771323
11
16.375463
21
72.772875
0
LINE
8
Layer 1
10
16.375463
20
72.772875
11
16.403853
21
72.781043
0
LINE
8
Layer 1
10
16.403853
20
72.781043
11
16.439633
21
72.806321
0
LINE
8
Layer 1
10
16.439633
20
72.806321
11
16.466081
21
72.853380
0
LINE
8
Layer 1
10
16.466081
20
72.853380
11
16.476192
21
72.864268
0
LINE
8
Layer 1
10
16.476192
20
72.864268
11
16.486694
21
72.854935
0
LINE
8
Layer 1
10
16.486694
20
72.854935
11
16.478916
21
72.831990
0
LINE
8
Layer 1
10
16.478916
20
72.831990
11
16.457137
21
72.797766
0
LINE
8
Layer 1
10
16.457137
20
72.797766
11
16.414745
21
72.765097
0
LINE
8
Layer 1
10
16.414745
20
72.765097
11
16.353686
21
72.751096
0
LINE
8
Layer 1
10
16.353686
20
72.751096
11
16.230790
21
72.803988
0
LINE
8
Layer 1
10
16.230790
20
72.803988
11
16.178287
21
72.935441
0
LINE
8
Layer 1
10
16.178287
20
72.935441
11
16.178300
21
72.935500
0
LINE
8
Layer 1
10
16.245193
20
72.960779
11
16.434200
21
72.960700
0
LINE
8
Layer 1
10
16.434200
20
72.960700
11
16.431090
21
72.996091
0
LINE
8
Layer 1
10
16.431090
20
72.996091
11
16.419812
21
73.040427
0
LINE
8
Layer 1
10
16.419812
20
73.040427
11
16.392200
21
73.082819
0
LINE
8
Layer 1
10
16.392200
20
73.082819
11
16.343975
21
73.099153
0
LINE
8
Layer 1
10
16.343975
20
73.099153
11
16.317141
21
73.093709
0
LINE
8
Layer 1
10
16.317141
20
73.093709
11
16.286806
21
73.075040
0
LINE
8
Layer 1
10
16.286806
20
73.075040
11
16.258415
21
73.031871
0
LINE
8
Layer 1
10
16.258415
20
73.031871
11
16.245193
21
72.960700
0
LINE
8
Layer 1
10
16.245193
20
72.960700
11
16.245193
21
72.960779
0
LINE
8
Layer 1
10
16.536900
20
72.931200
11
16.589792
21
73.059541
0
LINE
8
Layer 1
10
16.589792
20
73.059541
11
16.714244
21
73.112044
0
LINE
8
Layer 1
10
16.714244
20
73.112044
11
16.814584
21
73.062652
0
LINE
8
Layer 1
10
16.814584
20
73.062652
11
16.814600
21
73.234900
0
LINE
8
Layer 1
10
16.814600
20
73.234900
11
16.804098
21
73.271846
0
LINE
8
Layer 1
10
16.804098
20
73.271846
11
16.752762
21
73.279235
0
LINE
8
Layer 1
10
16.752762
20
73.279235
11
16.752700
21
73.304100
0
LINE
8
Layer 1
10
16.752700
20
73.304100
11
16.867429
21
73.312657
0
LINE
8
Layer 1
10
16.867429
20
73.312657
11
16.867500
21
72.829300
0
LINE
8
Layer 1
10
16.867500
20
72.829300
11
16.877612
21
72.791964
0
LINE
8
Layer 1
10
16.877612
20
72.791964
11
16.929337
21
72.784576
0
LINE
8
Layer 1
10
16.929337
20
72.784576
11
16.929300
21
72.760100
0
LINE
8
Layer 1
10
16.929300
20
72.760100
11
16.812237
21
72.751156
0
LINE
8
Layer 1
10
16.812237
20
72.751156
11
16.812200
21
72.804000
0
LINE
8
Layer 1
10
16.812200
20
72.804000
11
16.705638
21
72.751108
0
LINE
8
Layer 1
10
16.705638
20
72.751108
11
16.587020
21
72.803611
0
LINE
8
Layer 1
10
16.587020
20
72.803611
11
16.536850
21
72.931174
0
LINE
8
Layer 1
10
16.536850
20
72.931174
11
16.536900
21
72.931200
0
LINE
8
Layer 1
10
16.603015
20
72.930410
11
16.625960
21
72.819959
0
LINE
8
Layer 1
10
16.625960
20
72.819959
11
16.709576
21
72.769011
0
LINE
8
Layer 1
10
16.709576
20
72.769011
11
16.803693
21
72.824626
0
LINE
8
Layer 1
10
16.803693
20
72.824626
11
16.812250
21
72.854183
0
LINE
8
Layer 1
10
16.812250
20
72.854183
11
16.812200
21
73.017500
0
LINE
8
Layer 1
10
16.812200
20
73.017500
11
16.803643
21
73.046668
0
LINE
8
Layer 1
10
16.803643
20
73.046668
11
16.717693
21
73.094505
0
LINE
8
Layer 1
10
16.717693
20
73.094505
11
16.627466
21
73.043557
0
LINE
8
Layer 1
10
16.627466
20
73.043557
11
16.602963
21
72.930384
0
LINE
8
Layer 1
10
16.602963
20
72.930384
11
16.603015
21
72.930410
0
LINE
8
Layer 1
10
16.973600
20
72.760100
11
16.973600
21
72.784600
0
LINE
8
Layer 1
10
16.973600
20
72.784600
11
17.025714
21
72.789655
0
LINE
8
Layer 1
10
17.025714
20
72.789655
11
17.035826
21
72.820768
0
LINE
8
Layer 1
10
17.035826
20
72.820768
11
17.035900
21
73.034200
0
LINE
8
Layer 1
10
17.035900
20
73.034200
11
17.025399
21
73.071147
0
LINE
8
Layer 1
10
17.025399
20
73.071147
11
16.973673
21
73.078535
0
LINE
8
Layer 1
10
16.973673
20
73.078535
11
16.973600
21
73.103500
0
LINE
8
Layer 1
10
16.973600
20
73.103500
11
17.084440
21
73.112057
0
LINE
8
Layer 1
10
17.084440
20
73.112057
11
17.084500
21
73.024500
0
LINE
8
Layer 1
10
17.084500
20
73.024500
11
17.119502
21
73.085170
0
LINE
8
Layer 1
10
17.119502
20
73.085170
11
17.182506
21
73.112004
0
LINE
8
Layer 1
10
17.182506
20
73.112004
11
17.224508
21
73.097613
0
LINE
8
Layer 1
10
17.224508
20
73.097613
11
17.241233
21
73.063389
0
LINE
8
Layer 1
10
17.241233
20
73.063389
11
17.230342
21
73.036942
0
LINE
8
Layer 1
10
17.230342
20
73.036942
11
17.207008
21
73.028385
0
LINE
8
Layer 1
10
17.207008
20
73.028385
11
17.182505
21
73.037328
0
LINE
8
Layer 1
10
17.182505
20
73.037328
11
17.172783
21
73.062607
0
LINE
8
Layer 1
10
17.172783
20
73.062607
11
17.177061
21
73.079718
0
LINE
8
Layer 1
10
17.177061
20
73.079718
11
17.185229
21
73.090220
0
LINE
8
Layer 1
10
17.185229
20
73.090220
11
17.191062
21
73.093719
0
LINE
8
Layer 1
10
17.191062
20
73.093719
11
17.182505
21
73.094509
0
LINE
8
Layer 1
10
17.182505
20
73.094509
11
17.113279
21
73.050562
0
LINE
8
Layer 1
10
17.113279
20
73.050562
11
17.088390
21
72.944778
0
LINE
8
Layer 1
10
17.088390
20
72.944778
11
17.088400
21
72.822300
0
LINE
8
Layer 1
10
17.088400
20
72.822300
11
17.097733
21
72.791965
0
LINE
8
Layer 1
10
17.097733
20
72.791965
11
17.149070
21
72.784576
0
LINE
8
Layer 1
10
17.149070
20
72.784576
11
17.165800
21
72.784600
0
LINE
8
Layer 1
10
17.165800
20
72.784600
11
17.165800
21
72.760100
0
LINE
8
Layer 1
10
17.165800
20
72.760100
11
17.064683
21
72.762442
0
LINE
8
Layer 1
10
17.064683
20
72.762442
11
17.039794
21
72.762047
0
LINE
8
Layer 1
10
17.039794
20
72.762047
11
17.004792
21
72.760890
0
LINE
8
Layer 1
10
17.004792
20
72.760890
11
16.973679
21
72.760100
0
LINE
8
Layer 1
10
16.973679
20
72.760100
11
16.973600
21
72.760100
0
LINE
8
Layer 1
10
17.296100
20
72.835900
11
17.375827
21
72.939350
0
LINE
8
Layer 1
10
17.375827
20
72.939350
11
17.522447
21
72.968130
0
LINE
8
Layer 1
10
17.522447
20
72.968130
11
17.522400
21
72.997300
0
LINE
8
Layer 1
10
17.522400
20
72.997300
11
17.496342
21
73.072749
0
LINE
8
Layer 1
10
17.496342
20
73.072749
11
17.438005
21
73.099196
0
LINE
8
Layer 1
10
17.438005
20
73.099196
11
17.351667
21
73.062638
0
LINE
8
Layer 1
10
17.351667
20
73.062638
11
17.383947
21
73.049802
0
LINE
8
Layer 1
10
17.383947
20
73.049802
11
17.392504
21
73.026079
0
LINE
8
Layer 1
10
17.392504
20
73.026079
11
17.382392
21
72.999632
0
LINE
8
Layer 1
10
17.382392
20
72.999632
11
17.355945
21
72.989520
0
LINE
8
Layer 1
10
17.355945
20
72.989520
11
17.329498
21
72.999242
0
LINE
8
Layer 1
10
17.329498
20
72.999242
11
17.318996
21
73.026855
0
LINE
8
Layer 1
10
17.318996
20
73.026855
11
17.353998
21
73.091414
0
LINE
8
Layer 1
10
17.353998
20
73.091414
11
17.439559
21
73.117083
0
LINE
8
Layer 1
10
17.439559
20
73.117083
11
17.548454
21
73.073136
0
LINE
8
Layer 1
10
17.548454
20
73.073136
11
17.568678
21
73.042023
0
LINE
8
Layer 1
10
17.568678
20
73.042023
11
17.576456
21
73.012854
0
LINE
8
Layer 1
10
17.576456
20
73.012854
11
17.577246
21
72.979019
0
LINE
8
Layer 1
10
17.577246
20
72.979019
11
17.577200
21
72.819900
0
LINE
8
Layer 1
10
17.577200
20
72.819900
11
17.578752
21
72.807454
0
LINE
8
Layer 1
10
17.578752
20
72.807454
11
17.587309
21
72.789564
0
LINE
8
Layer 1
10
17.587309
20
72.789564
11
17.606754
21
72.779841
0
LINE
8
Layer 1
10
17.606754
20
72.779841
11
17.635145
21
72.830789
0
LINE
8
Layer 1
10
17.635145
20
72.830789
11
17.635200
21
72.875600
0
LINE
8
Layer 1
10
17.635200
20
72.875600
11
17.655400
21
72.875600
0
LINE
8
Layer 1
10
17.655400
20
72.875600
11
17.655400
21
72.830800
0
LINE
8
Layer 1
10
17.655400
20
72.830800
11
17.632842
21
72.771685
0
LINE
8
Layer 1
10
17.632842
20
72.771685
11
17.590062
21
72.755350
0
LINE
8
Layer 1
10
17.590062
20
72.755350
11
17.546892
21
72.774795
0
LINE
8
Layer 1
10
17.546892
20
72.774795
11
17.527837
21
72.820687
0
LINE
8
Layer 1
10
17.527837
20
72.820687
11
17.488168
21
72.770517
0
LINE
8
Layer 1
10
17.488168
20
72.770517
11
17.423608
21
72.751072
0
LINE
8
Layer 1
10
17.423608
20
72.751072
11
17.367605
21
72.758461
0
LINE
8
Layer 1
10
17.367605
20
72.758461
11
17.318213
21
72.785297
0
LINE
8
Layer 1
10
17.318213
20
72.785297
11
17.296045
21
72.835856
0
LINE
8
Layer 1
10
17.296045
20
72.835856
11
17.296100
21
72.835900
0
LINE
8
Layer 1
10
17.357548
20
72.836690
11
17.378548
21
72.788076
0
LINE
8
Layer 1
10
17.378548
20
72.788076
11
17.429107
21
72.769020
0
LINE
8
Layer 1
10
17.429107
20
72.769020
11
17.492500
21
72.794689
0
LINE
8
Layer 1
10
17.492500
20
72.794689
11
17.522446
21
72.871693
0
LINE
8
Layer 1
10
17.522446
20
72.871693
11
17.522400
21
72.951400
0
LINE
8
Layer 1
10
17.522400
20
72.951400
11
17.395614
21
72.912898
0
LINE
8
Layer 1
10
17.395614
20
72.912898
11
17.357501
21
72.836671
0
LINE
8
Layer 1
10
17.357501
20
72.836671
11
17.357548
21
72.836690
0
LINE
8
Layer 1
10
17.683000
20
72.771300
11
17.690389
21
72.785691
0
LINE
8
Layer 1
10
17.690389
20
72.785691
11
17.912458
21
73.085931
0
LINE
8
Layer 1
10
17.912458
20
73.085931
11
17.821900
21
73.086000
0
LINE
8
Layer 1
10
17.821900
20
73.086000
11
17.738284
21
73.062666
0
LINE
8
Layer 1
10
17.738284
20
73.062666
11
17.714171
21
72.975161
0
LINE
8
Layer 1
10
17.714171
20
72.975161
11
17.694300
21
72.975100
0
LINE
8
Layer 1
10
17.694300
20
72.975100
11
17.703244
21
73.103441
0
LINE
8
Layer 1
10
17.703244
20
73.103441
11
17.958000
21
73.103500
0
LINE
8
Layer 1
10
17.958000
20
73.103500
11
17.970446
21
73.103105
0
LINE
8
Layer 1
10
17.970446
20
73.103105
11
17.976280
21
73.099995
0
LINE
8
Layer 1
10
17.976280
20
73.099995
11
17.978622
21
73.092993
0
LINE
8
Layer 1
10
17.978622
20
73.092993
11
17.971620
21
73.079381
0
LINE
8
Layer 1
10
17.971620
20
73.079381
11
17.749940
21
72.779918
0
LINE
8
Layer 1
10
17.749940
20
72.779918
11
17.844000
21
72.779900
0
LINE
8
Layer 1
10
17.844000
20
72.779900
11
17.932283
21
72.807513
0
LINE
8
Layer 1
10
17.932283
20
72.807513
11
17.960285
21
72.909019
0
LINE
8
Layer 1
10
17.960285
20
72.909019
11
17.980200
21
72.909000
0
LINE
8
Layer 1
10
17.980200
20
72.909000
11
17.966588
21
72.760047
0
LINE
8
Layer 1
10
17.966588
20
72.760047
11
17.704000
21
72.760100
0
LINE
8
Layer 1
10
17.704000
20
72.760100
11
17.686889
21
72.761652
0
LINE
8
Layer 1
10
17.686889
20
72.761652
11
17.683000
21
72.771375
0
LINE
8
Layer 1
10
17.683000
20
72.771375
11
17.683000
21
72.771300
0
LINE
8
Layer 1
10
18.047800
20
72.835900
11
18.127527
21
72.939350
0
LINE
8
Layer 1
10
18.127527
20
72.939350
11
18.274147
21
72.968130
0
LINE
8
Layer 1
10
18.274147
20
72.968130
11
18.274200
21
72.997300
0
LINE
8
Layer 1
10
18.274200
20
72.997300
11
18.248142
21
73.072749
0
LINE
8
Layer 1
10
18.248142
20
73.072749
11
18.189805
21
73.099196
0
LINE
8
Layer 1
10
18.189805
20
73.099196
11
18.103467
21
73.062638
0
LINE
8
Layer 1
10
18.103467
20
73.062638
11
18.135747
21
73.049802
0
LINE
8
Layer 1
10
18.135747
20
73.049802
11
18.144304
21
73.026079
0
LINE
8
Layer 1
10
18.144304
20
73.026079
11
18.134192
21
72.999632
0
LINE
8
Layer 1
10
18.134192
20
72.999632
11
18.107745
21
72.989520
0
LINE
8
Layer 1
10
18.107745
20
72.989520
11
18.081298
21
72.999242
0
LINE
8
Layer 1
10
18.081298
20
72.999242
11
18.070796
21
73.026855
0
LINE
8
Layer 1
10
18.070796
20
73.026855
11
18.105798
21
73.091414
0
LINE
8
Layer 1
10
18.105798
20
73.091414
11
18.191359
21
73.117083
0
LINE
8
Layer 1
10
18.191359
20
73.117083
11
18.300255
21
73.073136
0
LINE
8
Layer 1
10
18.300255
20
73.073136
11
18.320479
21
73.042023
0
LINE
8
Layer 1
10
18.320479
20
73.042023
11
18.328257
21
73.012854
0
LINE
8
Layer 1
10
18.328257
20
73.012854
11
18.329047
21
72.979019
0
LINE
8
Layer 1
10
18.329047
20
72.979019
11
18.329000
21
72.819900
0
LINE
8
Layer 1
10
18.329000
20
72.819900
11
18.330552
21
72.807454
0
LINE
8
Layer 1
10
18.330552
20
72.807454
11
18.339109
21
72.789564
0
LINE
8
Layer 1
10
18.339109
20
72.789564
11
18.358554
21
72.779841
0
LINE
8
Layer 1
10
18.358554
20
72.779841
11
18.386945
21
72.830789
0
LINE
8
Layer 1
10
18.386945
20
72.830789
11
18.387000
21
72.875600
0
LINE
8
Layer 1
10
18.387000
20
72.875600
11
18.407200
21
72.875600
0
LINE
8
Layer 1
10
18.407200
20
72.875600
11
18.407200
21
72.830800
0
LINE
8
Layer 1
10
18.407200
20
72.830800
11
18.384642
21
72.771685
0
LINE
8
Layer 1
10
18.384642
20
72.771685
11
18.341862
21
72.755350
0
LINE
8
Layer 1
10
18.341862
20
72.755350
11
18.298692
21
72.774795
0
LINE
8
Layer 1
10
18.298692
20
72.774795
11
18.279637
21
72.820687
0
LINE
8
Layer 1
10
18.279637
20
72.820687
11
18.239968
21
72.770517
0
LINE
8
Layer 1
10
18.239968
20
72.770517
11
18.175408
21
72.751072
0
LINE
8
Layer 1
10
18.175408
20
72.751072
11
18.119405
21
72.758461
0
LINE
8
Layer 1
10
18.119405
20
72.758461
11
18.070013
21
72.785297
0
LINE
8
Layer 1
10
18.070013
20
72.785297
11
18.047845
21
72.835856
0
LINE
8
Layer 1
10
18.047845
20
72.835856
11
18.047800
21
72.835900
0
LINE
8
Layer 1
10
18.109248
20
72.836690
11
18.130248
21
72.788076
0
LINE
8
Layer 1
10
18.130248
20
72.788076
11
18.180807
21
72.769020
0
LINE
8
Layer 1
10
18.180807
20
72.769020
11
18.244200
21
72.794689
0
LINE
8
Layer 1
10
18.244200
20
72.794689
11
18.274146
21
72.871693
0
LINE
8
Layer 1
10
18.274146
20
72.871693
11
18.274200
21
72.951400
0
LINE
8
Layer 1
10
18.274200
20
72.951400
11
18.147415
21
72.912898
0
LINE
8
Layer 1
10
18.147415
20
72.912898
11
18.109302
21
72.836671
0
LINE
8
Layer 1
10
18.109302
20
72.836671
11
18.109248
21
72.836690
0
LINE
8
Layer 1
10
18.685200
20
72.908200
11
18.685200
21
72.955300
0
LINE
8
Layer 1
10
18.685200
20
72.955300
11
18.897200
21
72.955300
0
LINE
8
Layer 1
10
18.897200
20
72.955300
11
18.897200
21
72.908200
0
LINE
8
Layer 1
10
18.897200
20
72.908200
11
18.685200
21
72.908200
0
LINE
8
Layer 1
10
19.235200
20
72.760100
11
19.235200
21
72.784600
0
LINE
8
Layer 1
10
19.235200
20
72.784600
11
19.254200
21
72.784600
0
LINE
8
Layer 1
10
19.254200
20
72.784600
11
19.307092
21
72.791599
0
LINE
8
Layer 1
10
19.307092
20
72.791599
11
19.317204
21
72.822323
0
LINE
8
Layer 1
10
19.317204
20
72.822323
11
19.317200
21
73.241900
0
LINE
8
Layer 1
10
19.317200
20
73.241900
11
19.307088
21
73.271846
0
LINE
8
Layer 1
10
19.307088
20
73.271846
11
19.254196
21
73.279235
0
LINE
8
Layer 1
10
19.254196
20
73.279235
11
19.235200
21
73.279300
0
LINE
8
Layer 1
10
19.235200
20
73.279300
11
19.235200
21
73.304100
0
LINE
8
Layer 1
10
19.235200
20
73.304100
11
19.526500
21
73.304100
0
LINE
8
Layer 1
10
19.526500
20
73.304100
11
19.699177
21
73.222817
0
LINE
8
Layer 1
10
19.699177
20
73.222817
11
19.770348
21
73.027583
0
LINE
8
Layer 1
10
19.770348
20
73.027583
11
19.698788
21
72.837794
0
LINE
8
Layer 1
10
19.698788
20
72.837794
11
19.526500
21
72.760012
0
LINE
8
Layer 1
10
19.526500
20
72.760012
11
19.235200
21
72.760100
0
LINE
8
Layer 1
10
19.385709
20
72.816492
11
19.391543
21
72.790045
0
LINE
8
Layer 1
10
19.391543
20
72.790045
11
19.424600
21
72.784601
0
LINE
8
Layer 1
10
19.424600
20
72.784601
11
19.505100
21
72.784600
0
LINE
8
Layer 1
10
19.505100
20
72.784600
11
19.592994
21
72.805990
0
LINE
8
Layer 1
10
19.592994
20
72.805990
11
19.646664
21
72.852659
0
LINE
8
Layer 1
10
19.646664
20
72.852659
11
19.690611
21
73.027670
0
LINE
8
Layer 1
10
19.690611
20
73.027670
11
19.649386
21
73.205403
0
LINE
8
Layer 1
10
19.649386
20
73.205403
11
19.504322
21
73.279296
0
LINE
8
Layer 1
10
19.504322
20
73.279296
11
19.424600
21
73.279300
0
LINE
8
Layer 1
10
19.424600
20
73.279300
11
19.391542
21
73.273856
0
LINE
8
Layer 1
10
19.391542
20
73.273856
11
19.385709
21
73.247409
0
LINE
8
Layer 1
10
19.385709
20
73.247409
11
19.385709
21
72.816492
0
LINE
8
Layer 1
10
19.844200
20
72.760100
11
19.844200
21
72.784600
0
LINE
8
Layer 1
10
19.844200
20
72.784600
11
19.891258
21
72.790044
0
LINE
8
Layer 1
10
19.891258
20
72.790044
11
19.916148
21
72.806379
0
LINE
8
Layer 1
10
19.916148
20
72.806379
11
19.924705
21
72.824269
0
LINE
8
Layer 1
10
19.924705
20
72.824269
11
19.926257
21
72.843714
0
LINE
8
Layer 1
10
19.926257
20
72.843714
11
19.926300
21
73.241900
0
LINE
8
Layer 1
10
19.926300
20
73.241900
11
19.916188
21
73.271846
0
LINE
8
Layer 1
10
19.916188
20
73.271846
11
19.863296
21
73.279235
0
LINE
8
Layer 1
10
19.863296
20
73.279235
11
19.844200
21
73.279300
0
LINE
8
Layer 1
10
19.844200
20
73.279300
11
19.844200
21
73.304100
0
LINE
8
Layer 1
10
19.844200
20
73.304100
11
19.978800
21
73.304100
0
LINE
8
Layer 1
10
19.978800
20
73.304100
11
19.997079
21
73.301391
0
LINE
8
Layer 1
10
19.997079
20
73.301391
11
20.006802
21
73.286611
0
LINE
8
Layer 1
10
20.006802
20
73.286611
11
20.179479
21
72.840528
0
LINE
8
Layer 1
10
20.179479
20
72.840528
11
20.353712
21
73.288944
0
LINE
8
Layer 1
10
20.353712
20
73.288944
11
20.361101
21
73.302166
0
LINE
8
Layer 1
10
20.361101
20
73.302166
11
20.380156
21
73.304113
0
LINE
8
Layer 1
10
20.380156
20
73.304113
11
20.514700
21
73.304200
0
LINE
8
Layer 1
10
20.514700
20
73.304200
11
20.514700
21
73.279300
0
LINE
8
Layer 1
10
20.514700
20
73.279300
11
20.495600
21
73.279300
0
LINE
8
Layer 1
10
20.495600
20
73.279300
11
20.442319
21
73.271911
0
LINE
8
Layer 1
10
20.442319
20
73.271911
11
20.432596
21
73.241965
0
LINE
8
Layer 1
10
20.432596
20
73.241965
11
20.432600
21
72.822300
0
LINE
8
Layer 1
10
20.432600
20
72.822300
11
20.442323
21
72.791965
0
LINE
8
Layer 1
10
20.442323
20
72.791965
11
20.495604
21
72.784576
0
LINE
8
Layer 1
10
20.495604
20
72.784576
11
20.514700
21
72.784600
0
LINE
8
Layer 1
10
20.514700
20
72.784600
11
20.514700
21
72.760100
0
LINE
8
Layer 1
10
20.514700
20
72.760100
11
20.400749
21
72.762442
0
LINE
8
Layer 1
10
20.400749
20
72.762442
11
20.286020
21
72.760100
0
LINE
8
Layer 1
10
20.286020
20
72.760100
11
20.286000
21
72.784600
0
LINE
8
Layer 1
10
20.286000
20
72.784600
11
20.305400
21
72.784600
0
LINE
8
Layer 1
10
20.305400
20
72.784600
11
20.358292
21
72.791599
0
LINE
8
Layer 1
10
20.358292
20
72.791599
11
20.368015
21
72.822323
0
LINE
8
Layer 1
10
20.368015
20
72.822323
11
20.368100
21
73.279300
0
LINE
8
Layer 1
10
20.368100
20
73.279300
11
20.367300
21
73.279300
0
LINE
8
Layer 1
10
20.367300
20
73.279300
11
20.171677
21
72.775270
0
LINE
8
Layer 1
10
20.171677
20
72.775270
11
20.157286
21
72.760103
0
LINE
8
Layer 1
10
20.157286
20
72.760103
11
20.141341
21
72.777604
0
LINE
8
Layer 1
10
20.141341
20
72.777604
11
19.949218
21
73.273078
0
LINE
8
Layer 1
10
19.949218
20
73.273078
11
19.948400
21
73.273000
0
LINE
8
Layer 1
10
19.948400
20
73.273000
11
19.948400
21
72.843700
0
LINE
8
Layer 1
10
19.948400
20
72.843700
11
19.949952
21
72.824255
0
LINE
8
Layer 1
10
19.949952
20
72.824255
11
19.958120
21
72.806365
0
LINE
8
Layer 1
10
19.958120
20
72.806365
11
19.983398
21
72.790030
0
LINE
8
Layer 1
10
19.983398
20
72.790030
11
20.030457
21
72.784586
0
LINE
8
Layer 1
10
20.030457
20
72.784586
11
20.030500
21
72.760100
0
LINE
8
Layer 1
10
20.030500
20
72.760100
11
19.937161
21
72.762442
0
LINE
8
Layer 1
10
19.937161
20
72.762442
11
19.844211
21
72.760100
0
LINE
8
Layer 1
10
19.844211
20
72.760100
11
19.844200
21
72.760100
0
LINE
8
Layer 1
10
20.571900
20
72.760100
11
20.571900
21
72.784600
0
LINE
8
Layer 1
10
20.571900
20
72.784600
11
20.590900
21
72.784600
0
LINE
8
Layer 1
10
20.590900
20
72.784600
11
20.643792
21
72.791599
0
LINE
8
Layer 1
10
20.643792
20
72.791599
11
20.653904
21
72.822323
0
LINE
8
Layer 1
10
20.653904
20
72.822323
11
20.653900
21
73.241900
0
LINE
8
Layer 1
10
20.653900
20
73.241900
11
20.643788
21
73.271846
0
LINE
8
Layer 1
10
20.643788
20
73.271846
11
20.590896
21
73.279235
0
LINE
8
Layer 1
10
20.590896
20
73.279235
11
20.571900
21
73.279300
0
LINE
8
Layer 1
10
20.571900
20
73.279300
11
20.571900
21
73.304100
0
LINE
8
Layer 1
10
20.571900
20
73.304100
11
20.853000
21
73.304100
0
LINE
8
Layer 1
10
20.853000
20
73.304100
11
20.987175
21
73.259764
0
LINE
8
Layer 1
10
20.987175
20
73.259764
11
21.040845
21
73.155924
0
LINE
8
Layer 1
10
21.040845
20
73.155924
11
20.986008
21
73.054029
0
LINE
8
Layer 1
10
20.986008
20
73.054029
11
20.859223
21
73.011638
0
LINE
8
Layer 1
10
20.859223
20
73.011638
11
20.724700
21
73.011700
0
LINE
8
Layer 1
10
20.724700
20
73.011700
11
20.724700
21
72.822300
0
LINE
8
Layer 1
10
20.724700
20
72.822300
11
20.734423
21
72.791965
0
LINE
8
Layer 1
10
20.734423
20
72.791965
11
20.787704
21
72.784576
0
LINE
8
Layer 1
10
20.787704
20
72.784576
11
20.806800
21
72.784600
0
LINE
8
Layer 1
10
20.806800
20
72.784600
11
20.806800
21
72.760100
0
LINE
8
Layer 1
10
20.806800
20
72.760100
11
20.688960
21
72.762442
0
LINE
8
Layer 1
10
20.688960
20
72.762442
11
20.571897
21
72.760100
0
LINE
8
Layer 1
10
20.571897
20
72.760100
11
20.571900
21
72.760100
0
LINE
8
Layer 1
10
20.722409
20
73.032339
11
20.832000
21
73.032300
0
LINE
8
Layer 1
10
20.832000
20
73.032300
11
20.893837
21
73.042412
0
LINE
8
Layer 1
10
20.893837
20
73.042412
11
20.931562
21
73.064581
0
LINE
8
Layer 1
10
20.931562
20
73.064581
11
20.950231
21
73.096860
0
LINE
8
Layer 1
10
20.950231
20
73.096860
11
20.958009
21
73.127973
0
LINE
8
Layer 1
10
20.958009
20
73.127973
11
20.958799
21
73.155975
0
LINE
8
Layer 1
10
20.958799
20
73.155975
11
20.958009
21
73.184366
0
LINE
8
Layer 1
10
20.958009
20
73.184366
11
20.950231
21
73.215479
0
LINE
8
Layer 1
10
20.950231
20
73.215479
11
20.931562
21
73.247759
0
LINE
8
Layer 1
10
20.931562
20
73.247759
11
20.893837
21
73.269538
0
LINE
8
Layer 1
10
20.893837
20
73.269538
11
20.832000
21
73.279260
0
LINE
8
Layer 1
10
20.832000
20
73.279260
11
20.761300
21
73.279300
0
LINE
8
Layer 1
10
20.761300
20
73.279300
11
20.728242
21
73.273856
0
LINE
8
Layer 1
10
20.728242
20
73.273856
11
20.722409
21
73.247409
0
LINE
8
Layer 1
10
20.722409
20
73.247409
11
20.722409
21
73.032339
0
LINE
8
Layer 1
10
21.044800
20
72.760100
11
21.044800
21
72.784600
0
LINE
8
Layer 1
10
21.044800
20
72.784600
11
21.133861
21
72.838270
0
LINE
8
Layer 1
10
21.133861
20
72.838270
11
21.298760
21
73.314299
0
LINE
8
Layer 1
10
21.298760
20
73.314299
11
21.305373
21
73.327131
0
LINE
8
Layer 1
10
21.305373
20
73.327131
11
21.317819
21
73.330244
0
LINE
8
Layer 1
10
21.317819
20
73.330244
11
21.325207
21
73.329454
0
LINE
8
Layer 1
10
21.325207
20
73.329454
11
21.330265
21
73.325955
0
LINE
8
Layer 1
10
21.330265
20
73.325955
11
21.332974
21
73.321676
0
LINE
8
Layer 1
10
21.332974
20
73.321676
11
21.336084
21
73.314288
0
LINE
8
Layer 1
10
21.336084
20
73.314288
11
21.507983
21
72.816480
0
LINE
8
Layer 1
10
21.507983
20
72.816480
11
21.527039
21
72.790422
0
LINE
8
Layer 1
10
21.527039
20
72.790422
11
21.576042
21
72.784588
0
LINE
8
Layer 1
10
21.576042
20
72.784588
11
21.590000
21
72.784500
0
LINE
8
Layer 1
10
21.590000
20
72.784500
11
21.590000
21
72.760000
0
LINE
8
Layer 1
10
21.590000
20
72.760000
11
21.485771
21
72.762342
0
LINE
8
Layer 1
10
21.485771
20
72.762342
11
21.371042
21
72.760000
0
LINE
8
Layer 1
10
21.371042
20
72.760000
11
21.371100
21
72.784500
0
LINE
8
Layer 1
10
21.371100
20
72.784500
11
21.437215
21
72.808613
0
LINE
8
Layer 1
10
21.437215
20
72.808613
11
21.434873
21
72.819891
0
LINE
8
Layer 1
10
21.434873
20
72.819891
11
21.392870
21
72.941621
0
LINE
8
Layer 1
10
21.392870
20
72.941621
11
21.196000
21
72.941700
0
LINE
8
Layer 1
10
21.196000
20
72.941700
11
21.159053
21
72.837471
0
LINE
8
Layer 1
10
21.159053
20
72.837471
11
21.157501
21
72.825414
0
LINE
8
Layer 1
10
21.157501
20
72.825414
11
21.173057
21
72.796635
0
LINE
8
Layer 1
10
21.173057
20
72.796635
11
21.217393
21
72.784578
0
LINE
8
Layer 1
10
21.217393
20
72.784578
11
21.217400
21
72.760000
0
LINE
8
Layer 1
10
21.217400
20
72.760000
11
21.125617
21
72.762342
0
LINE
8
Layer 1
10
21.125617
20
72.762342
11
21.044723
21
72.760000
0
LINE
8
Layer 1
10
21.044723
20
72.760000
11
21.044800
21
72.760100
0
LINE
8
Layer 1
10
21.204643
20
72.966224
11
21.383900
21
72.966200
0
LINE
8
Layer 1
10
21.383900
20
72.966200
11
21.294061
21
73.225216
0
LINE
8
Layer 1
10
21.294061
20
73.225216
11
21.204643
21
72.966224
 0 
ENDSEC
 0 
EOF